<?xml version="1.0" encoding="utf-8"?>
<!-- Generator: Adobe Illustrator 26.1.0, SVG Export Plug-In . SVG Version: 6.00 Build 0)  -->
<svg version="1.1" id="a" xmlns="http://www.w3.org/2000/svg" xmlns:xlink="http://www.w3.org/1999/xlink" x="0px" y="0px"
	 viewBox="0 0 375 423.85" style="enable-background:new 0 0 375 423.85;" xml:space="preserve">
<style type="text/css">
	.st0{clip-path:url(#SVGID_00000127038119415343992330000004539007907906605215_);}
</style>
<g>
	<defs>
		<rect id="SVGID_1_" y="-214.08" width="375" height="812"/>
	</defs>
	<clipPath id="SVGID_00000134960847044707763840000010971340593805535872_">
		<use xlink:href="#SVGID_1_"  style="overflow:visible;"/>
	</clipPath>
	<g style="clip-path:url(#SVGID_00000134960847044707763840000010971340593805535872_);">
		<path d="M473.17,241.99c1.39-3.11,1.87-6.33,1.59-9.65c-0.58-6.8-3.52-12.38-8.8-16.71c-0.66-0.54-1.3-1.07-1.04-2.05
			c0.28-1.07,1.23-1.13,2.08-1.25c11.38-1.59,22.51,4.31,27.62,14.64c2.38,4.81,3.14,9.91,2.53,15.22c-0.02,0.2-0.03,0.41-0.07,0.81
			c2.52-0.63,4.9-1.22,7.28-1.82c14.96-3.8,29.93-7.6,44.89-11.4c11.14-2.83,22.27-5.66,33.41-8.49c1.83-0.47,2.52-0.06,2.69,1.82
			c1.34,14.69-1.47,28.54-9.06,41.21c-11.17,18.63-27.6,29.84-49.07,33.23c-14.13,2.23-27.72,0-40.59-6.35
			c-0.27-0.13-0.55-0.26-0.83-0.38c-0.07-0.03-0.16-0.02-0.38-0.05c-1.99,4.33-4.3,8.55-5.4,13.29
			c-5.99,25.68,0.36,47.85,19.47,65.98c10.11,9.59,22.56,14.68,36.42,16.19c6,0.65,11.99,0.47,17.94-0.53
			c0.34-0.06,0.73-0.18,1.03-0.07c0.54,0.18,1.25,0.4,1.47,0.82c0.2,0.4,0.05,1.24-0.28,1.6c-1.64,1.79-3.32,3.56-5.11,5.21
			c-11.46,10.59-24.27,19.04-39.03,24.35c-9.59,3.45-19.46,4.9-29.67,4.72c-13.88-0.25-27.77-0.08-41.65-0.04
			c-1.11,0-1.82-0.31-2.51-1.19c-10.19-13.03-15.17-27.8-14.91-44.34c0-0.13,0-0.26-0.02-0.39c-0.01-0.08-0.07-0.16-0.15-0.34
			c-9.72,2.81-19.63,4.81-29.7,5.95c-10.09,1.14-20.21,1.39-30.6,0.82c1.02,13.84,4.66,26.86,10.81,39.46c-0.65,0-1.14,0-1.63,0
			c-11.88,0-23.76,0-35.64,0c-14.84,0-29.68-0.02-44.51,0.03c-1.51,0-2.28-0.52-2.81-1.88c-3.79-9.89-6.21-20.08-7.12-30.63
			c-1.01-11.62-0.19-23.11,2.38-34.48c0.13-0.59,0.18-1.21,0.18-1.81c0.01-11.23,0.02-22.46-0.02-33.68c0-0.65-0.21-1.38-0.56-1.92
			c-12.49-18.92-20.85-39.57-25.64-61.66c-1.72-7.96-2.72-16.09-3.92-24.15c-0.38-2.57-0.39-5.2-0.55-7.8
			c-0.09-1.36,0.42-2.21,1.39-2.28c1.24-0.08,1.6,0.73,1.78,1.79c2.1,12.19,6.06,23.76,12.29,34.45
			c16.77,28.76,41.52,46.56,74.23,52.94c16.03,3.13,32.05,2.36,47.8-2.05c27.15-7.6,48.16-23.53,63.29-47.26
			c0.34-0.54,0.5-1.29,0.5-1.95c0.03-12.53,0.02-25.07,0.02-37.6c0-2.81,0.9-3.39,3.42-2.05c8.48,4.5,13.4,11.49,14.6,21.05
			c0.03,0.23,0.1,0.46,0.15,0.7L473.17,241.99z M550.36,232.71c-0.53,0.13-1,0.23-1.46,0.34c-17.57,4.46-35.15,8.9-52.71,13.41
			c-2.13,0.55-3-0.47-2.54-2.53c2.86-12.78-5.02-25.29-17.75-28.19c-1.78-0.41-3.63-0.49-5.45-0.73c0.18,0.66,0.44,0.99,0.72,1.31
			c8.37,9.67,9.02,23.55,1.57,33.5c-0.6,0.8-1.28,1.44-2.28,1c-1.01-0.45-0.95-1.42-0.78-2.37c1.31-7.25-0.45-13.71-5.04-19.42
			c-1.75-2.17-3.85-3.96-6.53-5.36v1.71c0,11.75,0.01,23.5-0.03,35.25c0,0.77-0.25,1.64-0.65,2.31c-3.85,6.34-8.3,12.24-13.39,17.63
			c-17.59,18.62-38.98,30.12-64.32,34.13c-12.27,1.94-24.54,1.78-36.75-0.46c-19.87-3.64-37.47-12.09-52.71-25.35
			c-13.32-11.59-23.36-25.56-29.94-41.98c-0.4-0.99-0.81-1.97-1.22-2.96c0.56,4,1.24,7.94,2.11,11.83
			c4.86,21.75,13.05,42.12,25.41,60.74c0.49,0.74,0.8,1.76,0.8,2.64c0.05,11.53,0.04,23.06,0.03,34.59c0,0.69-0.07,1.39-0.17,2.08
			c-0.78,4.98-1.83,9.93-2.31,14.93c-1.57,16.15,0.71,31.83,6.3,47.04c0.37,1.01,0.84,1.38,1.95,1.37
			c12.49-0.04,24.98-0.03,37.47-0.03h1.57c-5.95-14.9-8.65-30.14-8-46.08c43.48,11.91,85.49,8.49,126.17-11.02
			c0.04,0.63,0.06,1.02,0.09,1.4c0.33,3.63,0.4,7.31,1.05,10.88c3.5,19.12,13.65,33.81,29.98,44.26c0.44,0.28,1.03,0.43,1.57,0.47
			c7.01,0.46,13.9-0.38,20.66-2.2c17.9-4.82,32.99-14.49,46.35-27.09c0.1-0.09,0.13-0.26,0.22-0.45c-0.37,0-0.63-0.02-0.88,0
			c-5.88,0.58-11.74,0.45-17.55-0.55c-17.46-2.99-31.93-11.18-42.71-25.3c-11.1-14.54-15.77-31.04-14.16-49.32
			c0.82-9.35,3.98-17.92,8.23-26.17c0.53-1.02,1.32-1.33,2.38-0.79c0.5,0.26,1,0.52,1.51,0.78c12.64,6.46,26.05,8.86,39.99,6.42
			c25.09-4.39,42.27-18.78,51.58-42.49c2.07-5.27,3.18-10.79,3.65-16.81c-4.33,5.73-9.81,8.59-16.71,8.06
			c-6.97-0.53-11.97-4.22-15.3-10.46L550.36,232.71z M447.38,366.98c-0.54,0.24-0.88,0.41-1.24,0.54
			c-6.18,2.38-12.35,4.79-18.57,7.09c-1.01,0.37-1.29,0.81-1.31,1.82c-0.3,15.42,4.16,29.28,13.41,41.62
			c0.61,0.82,1.25,1.13,2.27,1.13c10.92-0.04,21.83-0.02,32.75-0.02c0.45,0,0.91-0.04,1.64-0.08
			C458.79,405.96,449.18,388.71,447.38,366.98L447.38,366.98z M327.1,377.16c0.32,4.26,0.53,8.29,0.93,12.3
			c0.97,9.86,3.5,19.33,7.17,28.52c0.37,0.92,0.83,1.21,1.81,1.2c10.09-0.04,20.19-0.02,30.28-0.03c0.4,0,0.81-0.05,1.25-0.09
			c-0.05-0.27-0.06-0.4-0.11-0.52c-4.84-11.23-7.8-22.93-8.74-35.13c-0.06-0.78-0.45-0.89-1.1-0.93
			c-7.63-0.57-15.17-1.68-22.64-3.31C333.12,378.55,330.3,377.88,327.1,377.16L327.1,377.16z"/>
		<path d="M508.9,268.41c-4.72,0.01-8.49-3.73-8.46-8.4c0.03-4.58,3.76-8.32,8.29-8.32c4.84,0,8.63,3.71,8.59,8.42
			C517.28,264.75,513.57,268.4,508.9,268.41L508.9,268.41z"/>
	</g>
	<g style="clip-path:url(#SVGID_00000134960847044707763840000010971340593805535872_);">
		<path d="M320.43,213.95c1.66-1.92,3.21-3.83,4.89-5.62c9.68-10.33,21.37-17.29,35.07-20.86c8.04-2.09,16.23-2.78,24.49-1.97
			c21.62,2.12,38.95,11.96,52.12,29.2c1.52,1.99,1.5,2.01,0,4c-7.09,9.47-15.92,16.85-26.55,22.06c-7.08,3.47-14.52,5.77-22.35,6.71
			c-20.26,2.45-38.5-2.54-54.65-15.04c-4.69-3.63-8.81-7.87-12.44-12.56c-0.16-0.2-0.32-0.4-0.57-0.73
			c-1.19,2.05-2.39,3.99-3.48,5.99c-3.85,7.12-6.29,14.71-7.48,22.7c-0.6,4.04-0.76,8.11-0.69,12.19c0.02,0.87-0.33,1.41-1,1.64
			c-0.71,0.24-1.35,0-1.88-0.75c-2.28-3.17-4.3-6.51-6.04-10c-3.7-7.41-6.12-15.23-7.06-23.45c-2.16-18.77,2.17-35.93,13.07-51.4
			c0.66-0.93,1.42-1.17,2.19-0.72c0.51,0.3,0.71,0.76,0.75,1.34c0.19,2.6,0.29,5.21,0.61,7.79c1.12,9.09,4.04,17.6,8.59,25.54
			c0.77,1.34,1.6,2.64,2.39,3.93L320.43,213.95z M404.74,193.36c-28.21-11.79-63.42-3.13-82.35,23.27
			c21.05,28.8,57.62,34.37,83.34,22.9c-7.55-5.75-11.83-13.26-12.04-22.84c-0.2-9.57,3.72-17.27,11.04-23.34L404.74,193.36z
			 M434.8,216.83c-0.23-0.32-0.35-0.53-0.5-0.7c-1.62-1.93-3.16-3.93-4.87-5.78c-5.92-6.39-12.85-11.45-20.68-15.26
			c-0.48-0.23-0.82-0.24-1.27,0.1c-8.21,6.25-11.84,14.49-10.44,24.72c1.05,7.68,5.13,13.56,11.58,17.83
			c0.4,0.27,0.69,0.24,1.1,0.04c7.28-3.65,13.74-8.4,19.32-14.32c2.01-2.13,3.84-4.41,5.76-6.62L434.8,216.83z M305.79,255.21
			c0.02-0.29,0.03-0.43,0.04-0.58c0.36-3.25,0.54-6.54,1.11-9.75c1.77-10.06,5.6-19.32,11.35-27.78c0.27-0.4,0.23-0.65-0.01-1.02
			c-0.84-1.28-1.68-2.56-2.45-3.88c-5.13-8.74-8.32-18.13-9.49-28.2c-0.1-0.85-0.2-1.71-0.31-2.66
			c-14.28,22.05-14.26,51.93-0.23,73.87H305.79z"/>
		<path d="M420.74,212.64c-0.01,3.23-2.62,5.84-5.84,5.84c-3.24,0-5.86-2.64-5.84-5.9c0.01-3.23,2.62-5.83,5.84-5.84
			C418.14,206.74,420.76,209.37,420.74,212.64L420.74,212.64z"/>
	</g>
	<g style="clip-path:url(#SVGID_00000134960847044707763840000010971340593805535872_);">
		<path d="M-50.65,259.55c1.66-1.92,3.21-3.83,4.89-5.62c9.68-10.33,21.37-17.29,35.07-20.86c8.04-2.09,16.23-2.78,24.49-1.97
			c21.62,2.12,38.95,11.96,52.12,29.2c1.52,1.99,1.5,2.01,0,4c-7.09,9.47-15.92,16.85-26.55,22.06c-7.08,3.47-14.52,5.77-22.35,6.71
			c-20.26,2.45-38.5-2.54-54.65-15.04c-4.69-3.63-8.81-7.87-12.44-12.56c-0.16-0.2-0.32-0.4-0.57-0.73
			c-1.19,2.05-2.39,3.99-3.48,5.99c-3.85,7.12-6.29,14.71-7.48,22.7c-0.6,4.04-0.76,8.11-0.69,12.19c0.02,0.87-0.33,1.41-1,1.64
			c-0.71,0.24-1.35,0-1.88-0.75c-2.28-3.17-4.3-6.51-6.04-10c-3.7-7.41-6.12-15.23-7.06-23.45c-2.16-18.77,2.17-35.93,13.07-51.4
			c0.66-0.93,1.42-1.17,2.19-0.72c0.51,0.3,0.71,0.76,0.75,1.34c0.19,2.6,0.29,5.21,0.61,7.79c1.12,9.09,4.04,17.6,8.59,25.54
			c0.77,1.34,1.6,2.64,2.39,3.93L-50.65,259.55z M33.66,238.96c-28.21-11.79-63.42-3.13-82.35,23.27
			c21.05,28.8,57.62,34.37,83.34,22.9c-7.55-5.75-11.83-13.26-12.04-22.84c-0.2-9.57,3.72-17.27,11.04-23.34L33.66,238.96z
			 M63.72,262.43c-0.23-0.32-0.35-0.53-0.5-0.7c-1.62-1.93-3.16-3.93-4.87-5.78c-5.92-6.39-12.85-11.45-20.68-15.26
			c-0.48-0.23-0.82-0.24-1.27,0.1c-8.21,6.25-11.84,14.49-10.44,24.72c1.05,7.68,5.13,13.56,11.58,17.83
			c0.4,0.27,0.69,0.24,1.1,0.04c7.28-3.65,13.74-8.4,19.32-14.32c2.01-2.13,3.84-4.41,5.76-6.62V262.43z M-65.29,300.81
			c0.02-0.29,0.03-0.43,0.04-0.58c0.36-3.25,0.54-6.54,1.11-9.75c1.77-10.06,5.6-19.32,11.35-27.78c0.27-0.4,0.23-0.65-0.01-1.02
			c-0.84-1.28-1.68-2.56-2.45-3.88c-5.13-8.74-8.32-18.13-9.49-28.2c-0.1-0.85-0.2-1.71-0.31-2.66
			C-79.33,248.99-79.31,278.87-65.29,300.81L-65.29,300.81z"/>
		<path d="M49.66,258.24c-0.01,3.23-2.62,5.84-5.84,5.84c-3.24,0-5.86-2.64-5.84-5.9c0.01-3.23,2.62-5.83,5.84-5.84
			c3.24,0,5.86,2.63,5.84,5.89V258.24z"/>
	</g>
	<g style="clip-path:url(#SVGID_00000134960847044707763840000010971340593805535872_);">
		<path d="M250.84,122.17c1.66-1.92,3.21-3.83,4.89-5.62c9.68-10.33,21.37-17.29,35.07-20.86c8.04-2.09,16.23-2.78,24.49-1.97
			c21.62,2.12,38.95,11.96,52.12,29.2c1.52,1.99,1.5,2.01,0,4c-7.09,9.47-15.92,16.85-26.55,22.06c-7.08,3.47-14.52,5.77-22.35,6.71
			c-20.26,2.45-38.5-2.54-54.65-15.04c-4.69-3.63-8.81-7.87-12.44-12.56c-0.16-0.2-0.32-0.4-0.57-0.73
			c-1.19,2.05-2.39,3.99-3.48,5.99c-3.85,7.12-6.29,14.71-7.48,22.7c-0.6,4.04-0.76,8.11-0.69,12.19c0.02,0.87-0.33,1.41-1,1.64
			c-0.71,0.24-1.35,0-1.88-0.75c-2.28-3.17-4.3-6.51-6.04-10c-3.7-7.41-6.12-15.23-7.06-23.45c-2.16-18.77,2.17-35.93,13.07-51.4
			c0.66-0.93,1.42-1.17,2.19-0.72c0.51,0.3,0.71,0.76,0.75,1.34c0.19,2.6,0.29,5.21,0.61,7.79c1.12,9.09,4.04,17.6,8.59,25.54
			c0.77,1.34,1.6,2.64,2.39,3.93L250.84,122.17z M335.15,101.58c-28.21-11.79-63.42-3.13-82.35,23.27
			c21.05,28.8,57.62,34.37,83.34,22.9c-7.55-5.75-11.83-13.26-12.04-22.84c-0.2-9.57,3.72-17.27,11.04-23.34L335.15,101.58z
			 M365.21,125.05c-0.23-0.32-0.35-0.53-0.5-0.7c-1.62-1.93-3.16-3.93-4.87-5.78c-5.92-6.39-12.85-11.45-20.68-15.26
			c-0.48-0.23-0.82-0.24-1.27,0.1c-8.21,6.25-11.84,14.49-10.44,24.72c1.05,7.68,5.13,13.56,11.58,17.83
			c0.4,0.27,0.69,0.24,1.1,0.04c7.28-3.65,13.74-8.4,19.32-14.32c2.01-2.13,3.84-4.41,5.76-6.62L365.21,125.05z M236.2,163.43
			c0.02-0.29,0.03-0.43,0.04-0.58c0.36-3.25,0.54-6.54,1.11-9.75c1.77-10.06,5.6-19.32,11.35-27.78c0.27-0.4,0.23-0.65-0.01-1.02
			c-0.84-1.28-1.68-2.56-2.45-3.88c-5.13-8.74-8.32-18.13-9.49-28.2c-0.1-0.85-0.2-1.71-0.31-2.66
			C222.16,111.61,222.18,141.49,236.2,163.43L236.2,163.43z"/>
		<path d="M351.15,120.86c-0.01,3.23-2.62,5.84-5.84,5.84c-3.24,0-5.86-2.64-5.84-5.9c0.01-3.23,2.62-5.83,5.84-5.84
			c3.24,0,5.86,2.63,5.84,5.89V120.86z"/>
	</g>
	<g style="clip-path:url(#SVGID_00000134960847044707763840000010971340593805535872_);">
		<path d="M102.87,276.91c-0.65-1.55-1.38-3.07-1.95-4.65c-0.19-0.54-0.2-1.32,0.07-1.79c0.21-0.37,1.03-0.68,1.48-0.58
			c2.31,0.51,4.64,1,6.87,1.77c17.96,6.18,28.11,24.66,23.8,43.27c-0.15,0.64-0.07,1.11,0.33,1.61c1,1.24,1.91,2.55,2.95,3.75
			c10.41,12.09,23.6,18.67,39.5,19.67c7.67,0.49,15.19-0.6,22.37-3.41c16.9-6.61,28.23-18.54,33.82-35.82
			c2.45-7.56,3.02-15.33,2.04-23.21c-0.34-2.76,1.04-5.42,3.63-6.44c2.55-1.01,5.5-0.22,7.06,2.09c0.36,0.54,0.66,1.12,0.96,1.69
			c6.26,12,8.25,24.69,5.84,37.99c-2.56,14.1-9.53,25.68-20.52,34.86c-0.52,0.43-0.59,0.76-0.41,1.38
			c3.13,10.48,2.35,20.66-2.44,30.51c-0.19,0.38-0.3,0.88-0.24,1.29c0.52,3.11,0.3,6.21,0,9.33c-1.03,10.62-3.69,20.82-7.92,30.61
			c-0.45,1.05-1.13,1.47-2.25,1.47c-17.42-0.01-34.85,0-52.27-0.01c-1.86,0-2.51-1.13-1.59-2.76c2.48-4.38,4.63-8.93,6.43-13.64
			c0.14-0.37,0.26-0.75,0.43-1.24c-8.68,0.72-17.16,0.43-25.63-0.93c-0.07,0.26-0.11,0.41-0.15,0.56
			c-1.38,5.56-3.2,10.96-5.42,16.24c-0.55,1.32-1.34,1.79-2.74,1.79c-12.19-0.04-24.38-0.02-36.57-0.02c-5.14,0-10.27,0-15.41,0
			c-1.8,0-2.48-1.18-1.59-2.71c3.89-6.72,6.89-13.82,8.99-21.29c0.96-3.4,1.5-6.92,2.47-10.31c1.54-5.41,2.39-10.89,2.33-16.52
			c-0.1-10.1-2.87-19.39-8.14-27.97c-0.68-1.11-1.49-1.76-2.76-2.17c-15.57-4.91-26.2-19.96-25.51-35.99
			c0.07-1.69,0.75-2.36,2.39-2.38c6.99-0.07,12.56-2.99,16.62-8.61c3.34-4.64,4.58-9.88,3.29-15.51c-0.52-2.26-1.47-4.42-2.28-6.6
			c-0.52-1.41,0.17-2.45,1.66-2.36c7.26,0.46,13.83,2.81,19.7,7.11c0.25,0.19,0.52,0.36,0.89,0.63
			C102.95,277.27,102.95,277.07,102.87,276.91L102.87,276.91z M195.63,419.21c6.96,0,13.91-0.01,20.87,0.02
			c0.73,0,1.09-0.21,1.37-0.89c3.97-9.58,6.49-19.52,7.21-29.88c0.18-2.54-0.14-5.11-0.16-7.67c0-0.68,0.08-1.44,0.37-2.04
			c4.84-9.7,5.54-19.68,2.12-29.96c-0.45-1.36-0.36-1.73,0.74-2.61c10.88-8.66,17.81-19.77,20.4-33.44
			c2.5-13.22,0.43-25.78-6.08-37.59c-0.66-1.19-1.97-1.71-3.24-1.34c-1.31,0.38-2.13,1.43-2.06,2.83c0.1,2.01,0.35,4.01,0.41,6.02
			c0.83,28.5-18.8,53.37-46.72,59.23c-23.15,4.85-47.19-4.88-60.51-24.48c-0.52-0.77-0.6-1.48-0.39-2.37
			c2.98-12.53,0.04-23.49-8.98-32.7c-4.15-4.24-9.22-7.02-14.98-8.53c-0.27-0.07-0.55-0.11-0.86-0.17c0.43,1.67,0.87,3.25,1.22,4.85
			c0.19,0.88,0.23,1.8,0.31,2.71c0.07,0.73-0.08,1.4-0.82,1.72c-0.75,0.32-1.38,0.08-2.04-0.44c-2.18-1.74-4.31-3.56-6.66-5.04
			c-3.77-2.37-7.98-3.7-12.68-4.3c3.21,7.67,2.83,15.04-1.57,21.96c-4.41,6.92-10.91,10.44-19.12,11c-0.07,2.68,0.18,5.3,0.85,7.84
			c3.44,13.04,11.64,21.44,24.65,25.09c0.79,0.22,1.34,0.58,1.54,1.42c0.07,0.31,0.25,0.6,0.42,0.87
			c6.96,11.01,9.88,23.01,8.73,35.97c-0.26,2.9-0.84,5.78-1.48,8.63c-1.07,4.75-2.2,9.48-3.51,14.17
			c-1.75,6.28-4.29,12.25-7.31,18.02c-0.16,0.31-0.32,0.63-0.53,1.05c0.36,0.02,0.63,0.05,0.9,0.05c7.15,0,14.3-0.01,21.46,0.02
			c0.73,0,1.07-0.25,1.38-0.89c3.57-7.5,6.13-15.32,7.71-23.47c0.35-1.81,1.18-2.25,2.89-1.49c12.98,5.79,26.58,8.73,40.8,8.64
			c12.79-0.08,25.11-2.59,36.94-7.45c0.21-0.09,0.42-0.17,0.63-0.27c0.65-0.31,1.36-0.35,1.78,0.23c0.32,0.43,0.55,1.14,0.45,1.65
			c-1.46,7.64-3.88,14.97-7.1,22.05c-0.11,0.24-0.21,0.47-0.31,0.71c-0.02,0.05,0.02,0.12,0.04,0.29c0.3,0,0.61,0,0.92,0
			L195.63,419.21z M113.93,419.16c0.42,0.02,0.69,0.05,0.97,0.05c7.01,0,14.03,0,21.04,0c0.53,0,0.95,0,1.22-0.64
			c2.06-4.95,3.74-10.02,5.01-15.35c-7.13-1.45-14.04-3.55-20.77-6.47c-1.63,7.8-4.11,15.19-7.47,22.4L113.93,419.16z
			 M185.44,402.25c-3.35,0.84-6.79,1.31-10.2,1.92c-0.65,0.12-1.02,0.33-1.31,1.02c-1.85,4.35-3.79,8.67-5.7,13
			c-0.13,0.29-0.28,0.57-0.47,0.96c0.39,0.02,0.7,0.06,1,0.06c7.11,0,14.23-0.01,21.34,0.02c0.74,0,1.07-0.25,1.38-0.89
			c2.96-6.22,5.21-12.68,6.84-19.37c0.04-0.18,0.04-0.37,0.05-0.47c-4.36,1.28-8.6,2.66-12.92,3.74L185.44,402.25z"/>
		<path d="M97.13,303.04c0.02-3.73-2.94-6.72-6.64-6.72c-3.73,0-6.71,2.94-6.74,6.65c-0.03,3.67,2.98,6.72,6.67,6.75
			S97.12,306.75,97.13,303.04z"/>
	</g>
	<g style="clip-path:url(#SVGID_00000134960847044707763840000010971340593805535872_);">
		<path d="M207.97,256.04c0.28-0.02,0.36-0.01,0.44-0.04c1.51-0.53,3.06-0.96,4.51-1.62c2.11-0.96,4.15-2.07,6.21-3.14
			c1.14-0.59,2.41,0.04,2.38,1.25c-0.01,0.38-0.18,0.77-0.36,1.11c-5.24,9.75-12.88,16.96-22.96,21.54
			c-0.85,0.39-1.11,0.79-1.1,1.73c0.12,8.26,2.35,15.89,6.63,22.94c0.39,0.65,0.61,1.28,0.21,1.97c-0.4,0.68-1.06,0.74-1.78,0.71
			c-4.55-0.2-9.05-0.73-13.47-1.79c-21.56-5.17-37.95-17.36-49.21-36.44c-2.87-4.86-5.04-10.05-6.71-15.45
			c-0.08-0.27-0.37-0.54-0.63-0.67c-6.22-3.09-10.88-7.73-13.95-13.97c-0.08-0.17-0.18-0.34-0.29-0.53
			c-0.18,0.05-0.32,0.09-0.46,0.14c-4.31,1.65-7.96,4.22-10.97,7.7c-0.41,0.48-0.86,0.8-1.52,0.74c-0.86-0.08-1.58-1-1.62-2.12
			c-0.16-3.81,0.02-7.6,0.83-11.32c3.52-16.14,12.82-27.65,27.83-34.53c5.95-2.72,12.2-3.77,18.65-2.39
			c12.1,2.6,19.88,9.96,23.38,21.82c0.15,0.51,0.38,0.7,0.86,0.77c6.91,1.06,13.73,0.7,20.41-1.38
			c11.78-3.67,20.64-10.97,26.68-21.72c0.46-0.82,0.97-1.09,1.75-0.96c0.7,0.12,1.12,0.61,1.27,1.48c0.83,4.65,0.95,9.32,0.42,14.01
			c-1.06,9.27-4.56,17.53-10.37,24.82c-0.13,0.17-0.25,0.35-0.38,0.52c0.54-0.12,1-0.32,1.45-0.53c5.01-2.35,9.44-5.53,13.32-9.47
			c0.31-0.31,0.74-0.6,1.15-0.67c1.16-0.19,1.88,0.81,1.61,2.14c-2.88,14.04-10.45,24.82-22.6,32.39
			C209.1,255.38,208.61,255.65,207.97,256.04L207.97,256.04z M222.51,196.63c-1.41,1.77-2.71,3.54-4.16,5.17
			c-7.1,7.95-15.88,13.06-26.31,15.27c-6.3,1.33-12.62,1.36-18.94,0.16c-1.23-0.23-1.51-0.51-1.77-1.75
			c-2.13-10.33-10.81-18.75-21.21-20.63c-3.16-0.58-6.31-0.61-9.48-0.12c-0.6,0.09-0.93,0.33-1.2,0.9
			c-2.94,6.34-4.97,12.96-6.02,19.87c-0.6,3.91-0.88,7.83-0.84,11.78c0.07,6.93,1.08,13.72,3.07,20.36
			c2.63,8.79,6.78,16.8,12.48,23.98c9.37,11.82,21.24,20.04,35.64,24.59c5.1,1.61,10.31,2.6,15.64,3.02c0.11,0,0.21,0,0.4,0
			c-0.15-0.3-0.25-0.53-0.37-0.76c-3.78-7.33-5.56-15.12-5.42-23.37c0.02-1.12,0.48-1.72,1.52-2.15
			c8.16-3.35,14.77-8.66,19.88-15.84c0.1-0.14,0.19-0.29,0.36-0.56c-0.29,0.11-0.47,0.17-0.63,0.24c-6.45,2.83-13.2,4.22-20.25,4.12
			c-0.75-0.01-1.34-0.23-1.64-0.95c-0.38-0.92,0.13-1.85,1.18-2.09c3.55-0.81,7-1.96,10.25-3.61c11.4-5.79,19.12-14.76,23.17-26.89
			c0.05-0.16,0.1-0.33,0.19-0.66c-0.5,0.38-0.88,0.66-1.24,0.95c-5.15,4.1-10.92,6.95-17.25,8.69c-0.81,0.23-1.52-0.04-1.88-0.68
			c-0.37-0.66-0.24-1.4,0.42-2.01c3.83-3.54,6.97-7.62,9.4-12.24c2.77-5.27,4.44-10.89,4.97-16.83
			C222.7,201.95,222.77,199.3,222.51,196.63L222.51,196.63z M106.35,236.87c2.05-1.4,3.98-2.96,6.12-4.11
			c4.98-2.68,10.27-4.62,15.89-5.52c1.09-0.17,1.11-0.17,1.11-1.26c0.08-10.25,2.14-20.08,6.19-29.5c0.04-0.1,0.07-0.21,0.15-0.44
			c-7.93,2.91-14.49,7.58-19.7,14.1c-6.26,7.83-9.46,16.8-9.77,26.72L106.35,236.87z M129.53,230.26c-1.1-0.09-6.9,1.36-8.77,2.18
			c2.35,5.01,5.89,8.92,10.76,11.87c-1.12-4.71-1.74-9.33-1.99-14.04V230.26z"/>
		<path d="M143.99,205.1c2.92,0.01,5.25,2.36,5.24,5.27c-0.02,2.89-2.41,5.27-5.29,5.25c-2.9-0.01-5.23-2.38-5.23-5.29
			c0-2.92,2.34-5.23,5.27-5.23H143.99z"/>
	</g>
	<path style="clip-path:url(#SVGID_00000134960847044707763840000010971340593805535872_);" d="M-37.85,361.61
		c0.51-2.5,1.44-4.78,2.96-6.76c4.15-5.39,9.63-7.65,16.38-6.76c0.46,0.06,0.57-0.14,0.7-0.48c2.43-6.04,6.52-10.63,12.17-13.84
		c9.64-5.48,22.33-4.24,30.78,2.99c5.2,4.45,8.4,10.05,9.44,16.83c0.26,1.7,0.28,3.45,0.41,5.19c4.9-1.36,9.31-0.42,12.72,3.54
		c3.4,3.94,3.69,8.42,1.6,13.19c0.33,0.27,0.69,0.57,1.05,0.88c8.07,6.78,13.09,15.35,14.93,25.72c1.08,6.06,0.79,12.1-0.73,18.07
		c-0.27,1.05-0.73,1.4-1.83,1.4c-42.18,0-84.36,0-126.54,0c-1.11,0-1.56-0.35-1.83-1.4c-4.08-15.82,1.1-32.45,13.44-43.14
		c0.45-0.39,0.59-0.71,0.46-1.31c-1.76-8.04,4.93-15.29,13.08-14.22C-38.41,361.54-38.17,361.57-37.85,361.61L-37.85,361.61z
		 M-63.08,418.67h0.8c41.16,0,82.32,0,123.48,0.02c0.57,0,0.79-0.17,0.9-0.72c0.98-4.65,1.19-9.32,0.51-14.02
		c-1.55-10.74-6.67-19.42-15.16-26.15c-0.42-0.33-0.83-0.47-1.36-0.47c-9.36,0.13-18.72,0.25-28.07,0.37
		c-7.31,0.09-14.62,0.17-21.93,0.25c-7.35,0.08-14.71,0.17-22.06,0.25c-7.65,0.09-15.29,0.16-22.94,0.26
		c-0.26,0-0.57,0.12-0.78,0.29c-4.03,3.33-7.26,7.31-9.72,11.91c-3.78,7.11-5.22,14.71-4.47,22.71
		C-63.72,415.13-63.36,416.87-63.08,418.67L-63.08,418.67z M-1.17,374.98v-0.14c2.97,0,5.93,0.02,8.9,0
		c8.15-0.07,16.29-0.16,24.44-0.25c4.6-0.05,9.19-0.1,13.79-0.14c0.37,0,0.62-0.09,0.79-0.45c1.47-3.21,1.3-6.32-0.79-9.18
		c-2.08-2.86-4.99-4-8.5-3.57c-1.26,0.16-2.4,0.66-3.49,1.31c-1.07,0.64-2.26-0.05-2.23-1.27c0-0.39,0.09-0.79,0.12-1.18
		c0.6-7.33-1.54-13.74-6.55-19.14c-7.83-8.43-20.8-10.12-30.56-4.01c-5,3.13-8.45,7.51-10.34,13.1c-0.4,1.17-1.03,1.47-2.22,1.17
		c-2.25-0.58-4.51-0.57-6.76-0.01c-5.49,1.35-9.92,6.01-10.61,12.2c-0.15,1.35-0.95,1.8-2.23,1.4c-3.2-1-6.14-0.46-8.66,1.75
		c-2.52,2.21-3.43,5.06-2.9,8.36c0.07,0.45,0.25,0.61,0.73,0.6c4.01-0.07,8.02-0.13,12.03-0.17c11.68-0.12,23.36-0.24,35.03-0.36
		L-1.17,374.98z"/>
	<path style="clip-path:url(#SVGID_00000134960847044707763840000010971340593805535872_);" d="M25.19,398.97
		c1.64,0.45,3.06,1.19,4.2,2.44c2.63,2.89,2.58,7.23-0.1,10.06c-2.62,2.77-6.98,3.04-10.01,0.61c-4.6-3.7-9.83-5.94-15.69-6.67
		c-8.32-1.03-15.91,0.88-22.75,5.74c-0.36,0.25-0.7,0.53-1.04,0.8c-2.39,1.93-5.05,2.38-7.85,1.13c-2.82-1.26-4.24-3.57-4.36-6.63
		c-0.12-3.32,2.27-6.36,5.58-7.21c0.19-0.05,0.38-0.1,0.75-0.2c-0.36-0.09-0.53-0.14-0.7-0.18c-2.93-0.75-5.18-3.2-5.55-6.05
		c-0.4-3.18,1-6.05,3.7-7.56c2.63-1.47,5.89-1.18,8.28,0.76c4.23,3.42,9.04,5.6,14.39,6.47c8.59,1.4,16.51-0.36,23.69-5.31
		c0.46-0.32,0.92-0.66,1.35-1.02c2.4-2.04,5.64-2.4,8.36-0.94c2.75,1.48,4.19,4.39,3.78,7.64c-0.35,2.8-2.65,5.28-5.58,6.02
		c-0.16,0.04-0.31,0.08-0.47,0.11L25.19,398.97z"/>
</g>
</svg>
