<?xml version="1.0" encoding="UTF-8"?><svg id="a" xmlns="http://www.w3.org/2000/svg" xmlns:xlink="http://www.w3.org/1999/xlink" viewBox="0 0 664.48 812"><defs><style>.c{clip-path:url(#b);}.d{fill:none;}</style><clipPath id="b"><rect class="d" x="79.04" width="375" height="812"/></clipPath></defs><g class="c"><g><path d="M551.98,312.76c1.39-3.11,1.87-6.33,1.59-9.65-.58-6.8-3.52-12.38-8.8-16.71-.66-.54-1.3-1.07-1.04-2.05,.28-1.07,1.23-1.13,2.08-1.25,11.38-1.59,22.51,4.31,27.62,14.64,2.38,4.81,3.14,9.91,2.53,15.22-.02,.2-.03,.41-.07,.81,2.52-.63,4.9-1.22,7.28-1.82,14.96-3.8,29.93-7.6,44.89-11.4,11.14-2.83,22.27-5.66,33.41-8.49,1.83-.47,2.52-.06,2.69,1.82,1.34,14.69-1.47,28.54-9.06,41.21-11.17,18.63-27.6,29.84-49.07,33.23-14.13,2.23-27.72,0-40.59-6.35-.27-.13-.55-.26-.83-.38-.07-.03-.16-.02-.38-.05-1.99,4.33-4.3,8.55-5.4,13.29-5.99,25.68,.36,47.85,19.47,65.98,10.11,9.59,22.56,14.68,36.42,16.19,6,.65,11.99,.47,17.94-.53,.34-.06,.73-.18,1.03-.07,.54,.18,1.25,.4,1.47,.82,.2,.4,.05,1.24-.28,1.6-1.64,1.79-3.32,3.56-5.11,5.21-11.46,10.59-24.27,19.04-39.03,24.35-9.59,3.45-19.46,4.9-29.67,4.72-13.88-.25-27.77-.08-41.65-.04-1.11,0-1.82-.31-2.51-1.19-10.19-13.03-15.17-27.8-14.91-44.34,0-.13,0-.26-.02-.39-.01-.08-.07-.16-.15-.34-9.72,2.81-19.63,4.81-29.7,5.95-10.09,1.14-20.21,1.39-30.6,.82,1.02,13.84,4.66,26.86,10.81,39.46h-37.27c-14.84,0-29.68-.02-44.51,.03-1.51,0-2.28-.52-2.81-1.88-3.79-9.89-6.21-20.08-7.12-30.63-1.01-11.62-.19-23.11,2.38-34.48,.13-.59,.18-1.21,.18-1.81,.01-11.23,.02-22.46-.02-33.68,0-.65-.21-1.38-.56-1.92-12.49-18.92-20.85-39.57-25.64-61.66-1.72-7.96-2.72-16.09-3.92-24.15-.38-2.57-.39-5.2-.55-7.8-.09-1.36,.42-2.21,1.39-2.28,1.24-.08,1.6,.73,1.78,1.79,2.1,12.19,6.06,23.76,12.29,34.45,16.77,28.76,41.52,46.56,74.23,52.94,16.03,3.13,32.05,2.36,47.8-2.05,27.15-7.6,48.16-23.53,63.29-47.26,.34-.54,.5-1.29,.5-1.95,.03-12.53,.02-25.07,.02-37.6,0-2.81,.9-3.39,3.42-2.05,8.48,4.5,13.4,11.49,14.6,21.05,.03,.23,.1,.46,.15,.7v-.03Zm77.2-9.28c-.53,.13-1,.23-1.46,.34-17.57,4.46-35.15,8.9-52.71,13.41-2.13,.55-3-.47-2.54-2.53,2.86-12.78-5.02-25.29-17.75-28.19-1.78-.41-3.63-.49-5.45-.73,.18,.66,.44,.99,.72,1.31,8.37,9.67,9.02,23.55,1.57,33.5-.6,.8-1.28,1.44-2.28,1-1.01-.45-.95-1.42-.78-2.37,1.31-7.25-.45-13.71-5.04-19.42-1.75-2.17-3.85-3.96-6.53-5.36v1.71c0,11.75,.01,23.5-.03,35.25,0,.77-.25,1.64-.65,2.31-3.85,6.34-8.3,12.24-13.39,17.63-17.59,18.62-38.98,30.12-64.32,34.13-12.27,1.94-24.54,1.78-36.75-.46-19.87-3.64-37.47-12.09-52.71-25.35-13.32-11.59-23.36-25.56-29.94-41.98-.4-.99-.81-1.97-1.22-2.96,.56,4,1.24,7.94,2.11,11.83,4.86,21.75,13.05,42.12,25.41,60.74,.49,.74,.8,1.76,.8,2.64,.05,11.53,.04,23.06,.03,34.59,0,.69-.07,1.39-.17,2.08-.78,4.98-1.83,9.93-2.31,14.93-1.57,16.15,.71,31.83,6.3,47.04,.37,1.01,.84,1.38,1.95,1.37,12.49-.04,24.98-.03,37.47-.03h1.57c-5.95-14.9-8.65-30.14-8-46.08,43.48,11.91,85.49,8.49,126.17-11.02,.04,.63,.06,1.02,.09,1.4,.33,3.63,.4,7.31,1.05,10.88,3.5,19.12,13.65,33.81,29.98,44.26,.44,.28,1.03,.43,1.57,.47,7.01,.46,13.9-.38,20.66-2.2,17.9-4.82,32.99-14.49,46.35-27.09,.1-.09,.13-.26,.22-.45-.37,0-.63-.02-.88,0-5.88,.58-11.74,.45-17.55-.55-17.46-2.99-31.93-11.18-42.71-25.3-11.1-14.54-15.77-31.04-14.16-49.32,.82-9.35,3.98-17.92,8.23-26.17,.53-1.02,1.32-1.33,2.38-.79,.5,.26,1,.52,1.51,.78,12.64,6.46,26.05,8.86,39.99,6.42,25.09-4.39,42.27-18.78,51.58-42.49,2.07-5.27,3.18-10.79,3.65-16.81-4.33,5.73-9.81,8.59-16.71,8.06-6.97-.53-11.97-4.22-15.3-10.46l-.02,.03Zm-102.98,134.27c-.54,.24-.88,.41-1.24,.54-6.18,2.38-12.35,4.79-18.57,7.09-1.01,.37-1.29,.81-1.31,1.82-.3,15.42,4.16,29.28,13.41,41.62,.61,.82,1.25,1.13,2.27,1.13,10.92-.04,21.83-.02,32.75-.02,.45,0,.91-.04,1.64-.08-17.54-13.12-27.15-30.37-28.95-52.1h0Zm-120.28,10.18c.32,4.26,.53,8.29,.93,12.3,.97,9.86,3.5,19.33,7.17,28.52,.37,.92,.83,1.21,1.81,1.2,10.09-.04,20.19-.02,30.28-.03,.4,0,.81-.05,1.25-.09-.05-.27-.06-.4-.11-.52-4.84-11.23-7.8-22.93-8.74-35.13-.06-.78-.45-.89-1.1-.93-7.63-.57-15.17-1.68-22.64-3.31-2.83-.62-5.65-1.29-8.85-2.02h0Z"/><path d="M587.71,339.18c-4.72,0-8.49-3.73-8.46-8.4,.03-4.58,3.76-8.32,8.29-8.32,4.84,0,8.63,3.71,8.59,8.42-.04,4.64-3.75,8.29-8.42,8.31h0Z"/></g><g><path d="M402.58,281.3c1.66-1.92,3.21-3.83,4.89-5.62,9.68-10.33,21.37-17.29,35.07-20.86,8.04-2.09,16.23-2.78,24.49-1.97,21.62,2.12,38.95,11.96,52.12,29.2,1.52,1.99,1.5,2.01,0,4-7.09,9.47-15.92,16.85-26.55,22.06-7.08,3.47-14.52,5.77-22.35,6.71-20.26,2.45-38.5-2.54-54.65-15.04-4.69-3.63-8.81-7.87-12.44-12.56-.16-.2-.32-.4-.57-.73-1.19,2.05-2.39,3.99-3.48,5.99-3.85,7.12-6.29,14.71-7.48,22.7-.6,4.04-.76,8.11-.69,12.19,.02,.87-.33,1.41-1,1.64-.71,.24-1.35,0-1.88-.75-2.28-3.17-4.3-6.51-6.04-10-3.7-7.41-6.12-15.23-7.06-23.45-2.16-18.77,2.17-35.93,13.07-51.4,.66-.93,1.42-1.17,2.19-.72,.51,.3,.71,.76,.75,1.34,.19,2.6,.29,5.21,.61,7.79,1.12,9.09,4.04,17.6,8.59,25.54,.77,1.34,1.6,2.64,2.39,3.93h.02Zm84.31-20.58c-28.21-11.79-63.42-3.13-82.35,23.27,21.05,28.8,57.62,34.37,83.34,22.9-7.55-5.75-11.83-13.26-12.04-22.84-.2-9.57,3.72-17.27,11.04-23.34h.01Zm30.06,23.48c-.23-.32-.35-.53-.5-.7-1.62-1.93-3.16-3.93-4.87-5.78-5.92-6.39-12.85-11.45-20.68-15.26-.48-.23-.82-.24-1.27,.1-8.21,6.25-11.84,14.49-10.44,24.72,1.05,7.68,5.13,13.56,11.58,17.83,.4,.27,.69,.24,1.1,.04,7.28-3.65,13.74-8.4,19.32-14.32,2.01-2.13,3.84-4.41,5.76-6.62h0Zm-129.01,38.37c.02-.29,.03-.43,.04-.58,.36-3.25,.54-6.54,1.11-9.75,1.77-10.06,5.6-19.32,11.35-27.78,.27-.4,.23-.65-.01-1.02-.84-1.28-1.68-2.56-2.45-3.88-5.13-8.74-8.32-18.13-9.49-28.2-.1-.85-.2-1.71-.31-2.66-14.28,22.05-14.26,51.93-.23,73.87h-.01Z"/><path d="M502.89,279.99c-.01,3.23-2.62,5.84-5.84,5.84s-5.86-2.64-5.84-5.9c.01-3.23,2.62-5.83,5.84-5.84,3.24,0,5.86,2.63,5.84,5.89h0Z"/></g><g><path d="M28.16,330.32c1.66-1.92,3.21-3.83,4.89-5.62,9.68-10.33,21.37-17.29,35.07-20.86,8.04-2.09,16.23-2.78,24.49-1.97,21.62,2.12,38.95,11.96,52.12,29.2,1.52,1.99,1.5,2.01,0,4-7.09,9.47-15.92,16.85-26.55,22.06-7.08,3.47-14.52,5.77-22.35,6.71-20.26,2.45-38.5-2.54-54.65-15.04-4.69-3.63-8.81-7.87-12.44-12.56-.16-.2-.32-.4-.57-.73-1.19,2.05-2.39,3.99-3.48,5.99-3.85,7.12-6.29,14.71-7.48,22.7-.6,4.04-.76,8.11-.69,12.19,.02,.87-.33,1.41-1,1.64-.71,.24-1.35,0-1.88-.75-2.28-3.17-4.3-6.51-6.04-10-3.7-7.41-6.12-15.23-7.06-23.45-2.16-18.77,2.17-35.93,13.07-51.4,.66-.93,1.42-1.17,2.19-.72,.51,.3,.71,.76,.75,1.34,.19,2.6,.29,5.21,.61,7.79,1.12,9.09,4.04,17.6,8.59,25.54,.77,1.34,1.6,2.64,2.39,3.93h.02Zm84.31-20.58c-28.21-11.79-63.42-3.13-82.35,23.27,21.05,28.8,57.62,34.37,83.34,22.9-7.55-5.75-11.83-13.26-12.04-22.84-.2-9.57,3.72-17.27,11.04-23.34h.01Zm30.06,23.48c-.23-.32-.35-.53-.5-.7-1.62-1.93-3.16-3.93-4.87-5.78-5.92-6.39-12.85-11.45-20.68-15.26-.48-.23-.82-.24-1.27,.1-8.21,6.25-11.84,14.49-10.44,24.72,1.05,7.68,5.13,13.56,11.58,17.83,.4,.27,.69,.24,1.1,.04,7.28-3.65,13.74-8.4,19.32-14.32,2.01-2.13,3.84-4.41,5.76-6.62h0ZM13.52,371.58c.02-.29,.03-.43,.04-.58,.36-3.25,.54-6.54,1.11-9.75,1.77-10.06,5.6-19.32,11.35-27.78,.27-.4,.23-.65-.01-1.02-.84-1.28-1.68-2.56-2.45-3.88-5.13-8.74-8.32-18.13-9.49-28.2-.1-.85-.2-1.71-.31-2.66-14.28,22.05-14.26,51.93-.23,73.87h0Z"/><path d="M128.47,329.01c-.01,3.23-2.62,5.84-5.84,5.84s-5.86-2.64-5.84-5.9c.01-3.23,2.62-5.83,5.84-5.84,3.24,0,5.86,2.63,5.84,5.89h0Z"/></g><g><path d="M329.65,192.94c1.66-1.92,3.21-3.83,4.89-5.62,9.68-10.33,21.37-17.29,35.07-20.86,8.04-2.09,16.23-2.78,24.49-1.97,21.62,2.12,38.95,11.96,52.12,29.2,1.52,1.99,1.5,2.01,0,4-7.09,9.47-15.92,16.85-26.55,22.06-7.08,3.47-14.52,5.77-22.35,6.71-20.26,2.45-38.5-2.54-54.65-15.04-4.69-3.63-8.81-7.87-12.44-12.56-.16-.2-.32-.4-.57-.73-1.19,2.05-2.39,3.99-3.48,5.99-3.85,7.12-6.29,14.71-7.48,22.7-.6,4.04-.76,8.11-.69,12.19,.02,.87-.33,1.41-1,1.64-.71,.24-1.35,0-1.88-.75-2.28-3.17-4.3-6.51-6.04-10-3.7-7.41-6.12-15.23-7.06-23.45-2.16-18.77,2.17-35.93,13.07-51.4,.66-.93,1.42-1.17,2.19-.72,.51,.3,.71,.76,.75,1.34,.19,2.6,.29,5.21,.61,7.79,1.12,9.09,4.04,17.6,8.59,25.54,.77,1.34,1.6,2.64,2.39,3.93h.02Zm84.31-20.58c-28.21-11.79-63.42-3.13-82.35,23.27,21.05,28.8,57.62,34.37,83.34,22.9-7.55-5.75-11.83-13.26-12.04-22.84-.2-9.57,3.72-17.27,11.04-23.34h.01Zm30.06,23.48c-.23-.32-.35-.53-.5-.7-1.62-1.93-3.16-3.93-4.87-5.78-5.92-6.39-12.85-11.45-20.68-15.26-.48-.23-.82-.24-1.27,.1-8.21,6.25-11.84,14.49-10.44,24.72,1.05,7.68,5.13,13.56,11.58,17.83,.4,.27,.69,.24,1.1,.04,7.28-3.65,13.74-8.4,19.32-14.32,2.01-2.13,3.84-4.41,5.76-6.62h0Zm-129.01,38.37c.02-.29,.03-.43,.04-.58,.36-3.25,.54-6.54,1.11-9.75,1.77-10.06,5.6-19.32,11.35-27.78,.27-.4,.23-.65-.01-1.02-.84-1.28-1.68-2.56-2.45-3.88-5.13-8.74-8.32-18.13-9.49-28.2-.1-.85-.2-1.71-.31-2.66-14.28,22.05-14.26,51.93-.23,73.87h0Z"/><path d="M429.96,191.63c-.01,3.23-2.62,5.84-5.84,5.84s-5.86-2.64-5.84-5.9c.01-3.23,2.62-5.83,5.84-5.84,3.24,0,5.86,2.63,5.84,5.89h0Z"/></g><g><path d="M181.68,347.68c-.65-1.55-1.38-3.07-1.95-4.65-.19-.54-.2-1.32,.07-1.79,.21-.37,1.03-.68,1.48-.58,2.31,.51,4.64,1,6.87,1.77,17.96,6.18,28.11,24.66,23.8,43.27-.15,.64-.07,1.11,.33,1.61,1,1.24,1.91,2.55,2.95,3.75,10.41,12.09,23.6,18.67,39.5,19.67,7.67,.49,15.19-.6,22.37-3.41,16.9-6.61,28.23-18.54,33.82-35.82,2.45-7.56,3.02-15.33,2.04-23.21-.34-2.76,1.04-5.42,3.63-6.44,2.55-1.01,5.5-.22,7.06,2.09,.36,.54,.66,1.12,.96,1.69,6.26,12,8.25,24.69,5.84,37.99-2.56,14.1-9.53,25.68-20.52,34.86-.52,.43-.59,.76-.41,1.38,3.13,10.48,2.35,20.66-2.44,30.51-.19,.38-.3,.88-.24,1.29,.52,3.11,.3,6.21,0,9.33-1.03,10.62-3.69,20.82-7.92,30.61-.45,1.05-1.13,1.47-2.25,1.47-17.42-.01-34.85,0-52.27-.01-1.86,0-2.51-1.13-1.59-2.76,2.48-4.38,4.63-8.93,6.43-13.64,.14-.37,.26-.75,.43-1.24-8.68,.72-17.16,.43-25.63-.93-.07,.26-.11,.41-.15,.56-1.38,5.56-3.2,10.96-5.42,16.24-.55,1.32-1.34,1.79-2.74,1.79-12.19-.04-24.38-.02-36.57-.02h-15.41c-1.8,0-2.48-1.18-1.59-2.71,3.89-6.72,6.89-13.82,8.99-21.29,.96-3.4,1.5-6.92,2.47-10.31,1.54-5.41,2.39-10.89,2.33-16.52-.1-10.1-2.87-19.39-8.14-27.97-.68-1.11-1.49-1.76-2.76-2.17-15.57-4.91-26.2-19.96-25.51-35.99,.07-1.69,.75-2.36,2.39-2.38,6.99-.07,12.56-2.99,16.62-8.61,3.34-4.64,4.58-9.88,3.29-15.51-.52-2.26-1.47-4.42-2.28-6.6-.52-1.41,.17-2.45,1.66-2.36,7.26,.46,13.83,2.81,19.7,7.11,.25,.19,.52,.36,.89,.63-.05-.34-.05-.54-.12-.7h0Zm92.76,142.3c6.96,0,13.91-.01,20.87,.02,.73,0,1.09-.21,1.37-.89,3.97-9.58,6.49-19.52,7.21-29.88,.18-2.54-.14-5.11-.16-7.67,0-.68,.08-1.44,.37-2.04,4.84-9.7,5.54-19.68,2.12-29.96-.45-1.36-.36-1.73,.74-2.61,10.88-8.66,17.81-19.77,20.4-33.44,2.5-13.22,.43-25.78-6.08-37.59-.66-1.19-1.97-1.71-3.24-1.34-1.31,.38-2.13,1.43-2.06,2.83,.1,2.01,.35,4.01,.41,6.02,.83,28.5-18.8,53.37-46.72,59.23-23.15,4.85-47.19-4.88-60.51-24.48-.52-.77-.6-1.48-.39-2.37,2.98-12.53,.04-23.49-8.98-32.7-4.15-4.24-9.22-7.02-14.98-8.53-.27-.07-.55-.11-.86-.17,.43,1.67,.87,3.25,1.22,4.85,.19,.88,.23,1.8,.31,2.71,.07,.73-.08,1.4-.82,1.72-.75,.32-1.38,.08-2.04-.44-2.18-1.74-4.31-3.56-6.66-5.04-3.77-2.37-7.98-3.7-12.68-4.3,3.21,7.67,2.83,15.04-1.57,21.96-4.41,6.92-10.91,10.44-19.12,11-.07,2.68,.18,5.3,.85,7.84,3.44,13.04,11.64,21.44,24.65,25.09,.79,.22,1.34,.58,1.54,1.42,.07,.31,.25,.6,.42,.87,6.96,11.01,9.88,23.01,8.73,35.97-.26,2.9-.84,5.78-1.48,8.63-1.07,4.75-2.2,9.48-3.51,14.17-1.75,6.28-4.29,12.25-7.31,18.02-.16,.31-.32,.63-.53,1.05,.36,.02,.63,.05,.9,.05,7.15,0,14.3-.01,21.46,.02,.73,0,1.07-.25,1.38-.89,3.57-7.5,6.13-15.32,7.71-23.47,.35-1.81,1.18-2.25,2.89-1.49,12.98,5.79,26.58,8.73,40.8,8.64,12.79-.08,25.11-2.59,36.94-7.45,.21-.09,.42-.17,.63-.27,.65-.31,1.36-.35,1.78,.23,.32,.43,.55,1.14,.45,1.65-1.46,7.64-3.88,14.97-7.1,22.05-.11,.24-.21,.47-.31,.71-.02,.05,.02,.12,.04,.29h.92v-.02Zm-81.7-.05c.42,.02,.69,.05,.97,.05h21.04c.53,0,.95,0,1.22-.64,2.06-4.95,3.74-10.02,5.01-15.35-7.13-1.45-14.04-3.55-20.77-6.47-1.63,7.8-4.11,15.19-7.47,22.4h0Zm71.51-16.9c-3.35,.84-6.79,1.31-10.2,1.92-.65,.12-1.02,.33-1.31,1.02-1.85,4.35-3.79,8.67-5.7,13-.13,.29-.28,.57-.47,.96,.39,.02,.7,.06,1,.06,7.11,0,14.23-.01,21.34,.02,.74,0,1.07-.25,1.38-.89,2.96-6.22,5.21-12.68,6.84-19.37,.04-.18,.04-.37,.05-.47-4.36,1.28-8.6,2.66-12.92,3.74h-.01Z"/><path d="M175.94,373.81c.02-3.73-2.94-6.72-6.64-6.72s-6.71,2.94-6.74,6.65c-.03,3.67,2.98,6.72,6.67,6.75s6.7-2.97,6.71-6.68Z"/></g><g><path d="M207.81,308.36c-.65-.38-1.14-.65-1.62-.95-12.15-7.57-19.72-18.35-22.6-32.39-.27-1.33,.45-2.33,1.61-2.14,.41,.07,.84,.36,1.15,.67,3.88,3.94,8.31,7.12,13.32,9.47,.45,.21,.91,.41,1.45,.53-.13-.17-.25-.35-.38-.52-5.81-7.29-9.31-15.55-10.37-24.82-.53-4.69-.41-9.36,.42-14.01,.15-.87,.57-1.36,1.27-1.48,.78-.13,1.29,.14,1.75,.96,6.04,10.75,14.9,18.05,26.68,21.72,6.68,2.08,13.5,2.44,20.41,1.38,.48-.07,.71-.26,.86-.77,3.5-11.86,11.28-19.22,23.38-21.82,6.45-1.38,12.7-.33,18.65,2.39,15.01,6.88,24.31,18.39,27.83,34.53,.81,3.72,.99,7.51,.83,11.32-.04,1.12-.76,2.04-1.62,2.12-.66,.06-1.11-.26-1.52-.74-3.01-3.48-6.66-6.05-10.97-7.7-.14-.05-.28-.09-.46-.14-.11,.19-.21,.36-.29,.53-3.07,6.24-7.73,10.88-13.95,13.97-.26,.13-.55,.4-.63,.67-1.67,5.4-3.84,10.59-6.71,15.45-11.26,19.08-27.65,31.27-49.21,36.44-4.42,1.06-8.92,1.59-13.47,1.79-.72,.03-1.38-.03-1.78-.71-.4-.69-.18-1.32,.21-1.97,4.28-7.05,6.51-14.68,6.63-22.94,.01-.94-.25-1.34-1.1-1.73-10.08-4.58-17.72-11.79-22.96-21.54-.18-.34-.35-.73-.36-1.11-.03-1.21,1.24-1.84,2.38-1.25,2.06,1.07,4.1,2.18,6.21,3.14,1.45,.66,3,1.09,4.51,1.62,.08,.03,.16,.02,.44,.04h0Zm-14.54-59.41c-.27,2.67-.2,5.32,.03,7.96,.53,5.94,2.2,11.56,4.97,16.83,2.43,4.62,5.57,8.7,9.4,12.24,.66,.61,.79,1.35,.42,2.01-.36,.64-1.07,.91-1.88,.68-6.33-1.74-12.1-4.59-17.25-8.69-.36-.29-.74-.57-1.24-.95,.09,.33,.14,.5,.19,.66,4.05,12.13,11.77,21.1,23.17,26.89,3.25,1.65,6.7,2.8,10.25,3.61,1.05,.24,1.56,1.17,1.18,2.09-.3,.72-.89,.94-1.64,.95-7.05,.1-13.8-1.29-20.25-4.12-.16-.07-.34-.13-.63-.24,.17,.27,.26,.42,.36,.56,5.11,7.18,11.72,12.49,19.88,15.84,1.04,.43,1.5,1.03,1.52,2.15,.14,8.25-1.64,16.04-5.42,23.37-.12,.23-.22,.46-.37,.76h.4c5.33-.42,10.54-1.41,15.64-3.02,14.4-4.55,26.27-12.77,35.64-24.59,5.7-7.18,9.85-15.19,12.48-23.98,1.99-6.64,3-13.43,3.07-20.36,.04-3.95-.24-7.87-.84-11.78-1.05-6.91-3.08-13.53-6.02-19.87-.27-.57-.6-.81-1.2-.9-3.17-.49-6.32-.46-9.48,.12-10.4,1.88-19.08,10.3-21.21,20.63-.26,1.24-.54,1.52-1.77,1.75-6.32,1.2-12.64,1.17-18.94-.16-10.43-2.21-19.21-7.32-26.31-15.27-1.45-1.63-2.75-3.4-4.16-5.17h.01Zm116.16,40.23c-.31-9.92-3.51-18.89-9.77-26.72-5.21-6.52-11.77-11.19-19.7-14.1,.08,.23,.11,.34,.15,.44,4.05,9.42,6.11,19.25,6.19,29.5,0,1.09,.02,1.09,1.11,1.26,5.62,.9,10.91,2.84,15.89,5.52,2.14,1.15,4.07,2.71,6.12,4.11h.01Zm-23.19-6.6c-.25,4.71-.87,9.33-1.99,14.04,4.87-2.95,8.41-6.86,10.76-11.87-1.87-.82-7.67-2.27-8.77-2.18h0Z"/><path d="M271.79,257.43c2.93,0,5.27,2.31,5.27,5.23s-2.33,5.28-5.23,5.29c-2.88,.02-5.27-2.36-5.29-5.25-.01-2.91,2.32-5.26,5.24-5.27h0Z"/></g><g><path d="M40.96,432.38c.51-2.5,1.44-4.78,2.96-6.76,4.15-5.39,9.63-7.65,16.38-6.76,.46,.06,.57-.14,.7-.48,2.43-6.04,6.52-10.63,12.17-13.84,9.64-5.48,22.33-4.24,30.78,2.99,5.2,4.45,8.4,10.05,9.44,16.83,.26,1.7,.28,3.45,.41,5.19,4.9-1.36,9.31-.42,12.72,3.54,3.4,3.94,3.69,8.42,1.6,13.19,.33,.27,.69,.57,1.05,.88,8.07,6.78,13.09,15.35,14.93,25.72,1.08,6.06,.79,12.1-.73,18.07-.27,1.05-.73,1.4-1.83,1.4H15c-1.11,0-1.56-.35-1.83-1.4-4.08-15.82,1.1-32.45,13.44-43.14,.45-.39,.59-.71,.46-1.31-1.76-8.04,4.93-15.29,13.08-14.22,.25,.03,.49,.06,.81,.09h0Zm-25.23,57.07h.8c41.16,0,82.32,0,123.48,.02,.57,0,.79-.17,.9-.72,.98-4.65,1.19-9.32,.51-14.02-1.55-10.74-6.67-19.42-15.16-26.15-.42-.33-.83-.47-1.36-.47-9.36,.13-18.72,.25-28.07,.37-7.31,.09-14.62,.17-21.93,.25-7.35,.08-14.71,.17-22.06,.25-7.65,.09-15.29,.16-22.94,.26-.26,0-.57,.12-.78,.29-4.03,3.33-7.26,7.31-9.72,11.91-3.78,7.11-5.22,14.71-4.47,22.71,.16,1.76,.52,3.5,.79,5.29h0Zm61.91-43.68v-.14c2.97,0,5.93,.02,8.9,0,8.15-.07,16.29-.16,24.44-.25,4.6-.05,9.19-.1,13.79-.14,.37,0,.62-.09,.79-.45,1.47-3.21,1.3-6.32-.79-9.18-2.08-2.86-4.99-4-8.5-3.57-1.26,.16-2.4,.66-3.49,1.31-1.07,.64-2.26-.05-2.23-1.27,0-.39,.09-.79,.12-1.18,.6-7.33-1.54-13.74-6.55-19.14-7.83-8.43-20.8-10.12-30.56-4.01-5,3.13-8.45,7.51-10.34,13.1-.4,1.17-1.03,1.47-2.22,1.17-2.25-.58-4.51-.57-6.76-.01-5.49,1.35-9.92,6.01-10.61,12.2-.15,1.35-.95,1.8-2.23,1.4-3.2-1-6.14-.46-8.66,1.75-2.52,2.21-3.43,5.06-2.9,8.36,.07,.45,.25,.61,.73,.6,4.01-.07,8.02-.13,12.03-.17,11.68-.12,23.36-.24,35.03-.36v-.02Z"/><path d="M104,469.74c1.64,.45,3.06,1.19,4.2,2.44,2.63,2.89,2.58,7.23-.1,10.06-2.62,2.77-6.98,3.04-10.01,.61-4.6-3.7-9.83-5.94-15.69-6.67-8.32-1.03-15.91,.88-22.75,5.74-.36,.25-.7,.53-1.04,.8-2.39,1.93-5.05,2.38-7.85,1.13-2.82-1.26-4.24-3.57-4.36-6.63-.12-3.32,2.27-6.36,5.58-7.21,.19-.05,.38-.1,.75-.2-.36-.09-.53-.14-.7-.18-2.93-.75-5.18-3.2-5.55-6.05-.4-3.18,1-6.05,3.7-7.56,2.63-1.47,5.89-1.18,8.28,.76,4.23,3.42,9.04,5.6,14.39,6.47,8.59,1.4,16.51-.36,23.69-5.31,.46-.32,.92-.66,1.35-1.02,2.4-2.04,5.64-2.4,8.36-.94,2.75,1.48,4.19,4.39,3.78,7.64-.35,2.8-2.65,5.28-5.58,6.02-.16,.04-.31,.08-.47,.11h.02Z"/></g><path d="M163.69,262.25c-.02,11.65-9.36,20.81-20.68,20.94-11.68,.13-21.14-9.25-21.18-20.83-.04-11.67,9.32-20.87,20.66-21.01,11.68-.14,21.18,9.23,21.2,20.9Zm-34.94,11.66c4.04-3.49,8.67-5.33,14.01-5.33s9.97,1.85,14.02,5.35c2.76-3.4,4.19-7.26,4.2-11.61,.01-4.27-1.35-8.07-3.99-11.44-7.33,6.96-20.05,7.78-28.44,.04-5.08,5.89-5.72,16.05,.2,22.99h0Zm1.69-25.03c7.26,6.8,18.45,6.04,24.61-.02-6.69-6.43-17.95-6.41-24.61,.02Zm.24,27.02c7.1,6.44,17.97,5.82,24.14-.01-6.48-5.98-17.23-6.27-24.14,.01Z"/></g></svg>