<?xml version="1.0" encoding="utf-8"?>
<!-- Generator: Adobe Illustrator 26.1.0, SVG Export Plug-In . SVG Version: 6.00 Build 0)  -->
<svg version="1.1" id="a" xmlns="http://www.w3.org/2000/svg" xmlns:xlink="http://www.w3.org/1999/xlink" x="0px" y="0px"
	 viewBox="0 0 344 340.11" style="enable-background:new 0 0 344 340.11;" xml:space="preserve">
<style type="text/css">
	.st0{clip-path:url(#SVGID_00000034068780428262011100000013435575418473012619_);}
</style>
<g>
	<defs>
		<rect id="SVGID_1_" x="-31" y="-154.11" width="375" height="812"/>
	</defs>
	<clipPath id="SVGID_00000088828347543373700520000015820428299815222711_">
		<use xlink:href="#SVGID_1_"  style="overflow:visible;"/>
	</clipPath>
	<path style="clip-path:url(#SVGID_00000088828347543373700520000015820428299815222711_);" d="M243.69,247.36
		c-1.85,0-3.59,0.43-5.14,1.2c-1.44,0.72-2.72,1.73-3.74,2.96c-1-1.2-2.24-2.2-3.65-2.91c-1.57-0.8-3.34-1.25-5.22-1.25
		c-6.37,0-11.54,5.17-11.54,11.54c0,1.88,0.45,3.66,1.25,5.22c0.31,0.61,0.68,1.19,1.09,1.74c0.64,0.85,2.75,2.92,3.58,3.64
		c0,0,8.95,8.66,14.57,8.66s16.53-10.67,16.53-10.67c0.3-0.27,0.59-0.56,0.86-0.86c0.7-0.77,1.29-1.64,1.76-2.58
		c0.77-1.55,1.2-3.29,1.2-5.14c0-6.37-5.17-11.54-11.54-11.54L243.69,247.36z"/>
	<g style="clip-path:url(#SVGID_00000088828347543373700520000015820428299815222711_);">
		<path d="M296.63,158.36c1.2-9.56,6.12-16.55,14.6-21.05c2.52-1.33,3.42-0.76,3.42,2.05c0,12.53,0,25.07,0.02,37.6
			c0,0.65,0.15,1.41,0.5,1.95c15.13,23.73,36.13,39.66,63.29,47.26c15.75,4.41,31.77,5.17,47.8,2.05
			c32.71-6.38,57.45-24.18,74.23-52.94c6.23-10.68,10.19-22.25,12.29-34.45c0.18-1.06,0.54-1.87,1.78-1.79
			c0.98,0.06,1.48,0.92,1.39,2.28c-0.17,2.6-0.17,5.23-0.55,7.8c-1.21,8.07-2.2,16.19-3.92,24.15
			c-4.79,22.09-13.15,42.74-25.64,61.66c-0.35,0.54-0.56,1.28-0.56,1.92c-0.03,11.23-0.03,22.46-0.02,33.68
			c0,0.6,0.05,1.22,0.18,1.81c2.57,11.37,3.39,22.86,2.38,34.48c-0.91,10.56-3.34,20.75-7.12,30.63c-0.52,1.36-1.29,1.89-2.81,1.88
			c-14.84-0.06-29.68-0.03-44.51-0.03c-11.88,0-23.76,0-35.64,0c-0.49,0-0.98,0-1.63,0c6.15-12.61,9.79-25.62,10.81-39.46
			c-10.38,0.57-20.51,0.32-30.6-0.82c-10.07-1.14-19.98-3.14-29.7-5.95c-0.08,0.18-0.14,0.25-0.15,0.34
			c-0.02,0.13-0.02,0.26-0.02,0.39c0.26,16.54-4.72,31.31-14.91,44.34c-0.69,0.89-1.4,1.2-2.51,1.19
			c-13.88-0.04-27.77-0.2-41.65,0.04c-10.22,0.18-20.09-1.27-29.67-4.72c-14.75-5.31-27.56-13.76-39.03-24.35
			c-1.78-1.65-3.47-3.42-5.11-5.21c-0.32-0.35-0.48-1.2-0.28-1.6c0.22-0.42,0.93-0.63,1.47-0.82c0.3-0.1,0.69,0.02,1.03,0.07
			c5.96,1,11.94,1.18,17.94,0.53c13.87-1.51,26.32-6.6,36.42-16.19c19.12-18.13,25.46-40.3,19.47-65.98
			c-1.1-4.73-3.41-8.96-5.4-13.29c-0.22,0.03-0.31,0.02-0.38,0.05c-0.28,0.12-0.56,0.25-0.83,0.38
			c-12.87,6.34-26.46,8.58-40.59,6.35c-21.47-3.39-37.9-14.6-49.07-33.23c-7.59-12.67-10.41-26.52-9.06-41.21
			c0.17-1.88,0.86-2.29,2.69-1.82c11.14,2.83,22.27,5.67,33.41,8.49c14.96,3.8,29.93,7.6,44.89,11.4c2.38,0.6,4.76,1.19,7.28,1.82
			c-0.03-0.4-0.04-0.61-0.07-0.81c-0.61-5.32,0.14-10.41,2.53-15.22c5.11-10.33,16.25-16.23,27.62-14.64
			c0.84,0.12,1.79,0.18,2.08,1.25c0.26,0.98-0.38,1.51-1.04,2.05c-5.28,4.33-8.22,9.92-8.8,16.71c-0.28,3.32,0.2,6.54,1.59,9.65
			c0.05-0.23,0.12-0.46,0.15-0.7L296.63,158.36z M203.99,160.24c-6.9,0.53-12.37-2.34-16.71-8.06c0.47,6.02,1.59,11.55,3.65,16.81
			c9.3,23.71,26.48,38.09,51.58,42.49c13.93,2.44,27.35,0.04,39.99-6.42c0.5-0.26,1-0.52,1.51-0.78c1.06-0.54,1.85-0.24,2.38,0.79
			c4.25,8.25,7.41,16.82,8.23,26.17c1.61,18.28-3.05,34.79-14.16,49.32c-10.79,14.12-25.26,22.31-42.71,25.3
			c-5.82,1-11.68,1.13-17.55,0.55c-0.26-0.03-0.52,0-0.88,0c0.09,0.19,0.12,0.36,0.22,0.45c13.36,12.6,28.45,22.27,46.35,27.09
			c6.76,1.82,13.65,2.65,20.66,2.2c0.53-0.03,1.12-0.18,1.57-0.47c16.33-10.46,26.48-25.14,29.98-44.26
			c0.65-3.57,0.72-7.25,1.05-10.88c0.04-0.38,0.05-0.77,0.09-1.4c40.69,19.51,82.69,22.93,126.17,11.02
			c0.66,15.94-2.05,31.17-8,46.08h1.57c12.49,0,24.98-0.02,37.47,0.03c1.11,0,1.58-0.36,1.95-1.37c5.59-15.22,7.87-30.89,6.3-47.04
			c-0.49-5-1.53-9.95-2.31-14.93c-0.11-0.68-0.17-1.38-0.17-2.08c-0.01-11.53-0.03-23.06,0.03-34.59c0-0.89,0.31-1.9,0.8-2.64
			c12.36-18.63,20.55-38.99,25.41-60.74c0.87-3.9,1.55-7.83,2.11-11.83c-0.41,0.99-0.82,1.97-1.22,2.96
			c-6.58,16.42-16.62,30.39-29.94,41.98c-15.24,13.26-32.84,21.71-52.71,25.35c-12.21,2.24-24.48,2.4-36.75,0.46
			c-25.34-4.01-46.73-15.51-64.32-34.13c-5.09-5.39-9.54-11.29-13.39-17.63c-0.4-0.66-0.65-1.53-0.65-2.31
			c-0.04-11.75-0.03-23.5-0.03-35.25v-1.71c-2.68,1.4-4.78,3.19-6.53,5.36c-4.59,5.7-6.35,12.17-5.04,19.42
			c0.17,0.95,0.24,1.92-0.78,2.37c-1,0.44-1.68-0.19-2.28-1c-7.44-9.95-6.8-23.82,1.57-33.5c0.28-0.32,0.54-0.64,0.72-1.31
			c-1.82,0.23-3.67,0.32-5.45,0.73c-12.74,2.9-20.62,15.41-17.75,28.19c0.46,2.06-0.41,3.08-2.54,2.53
			c-17.56-4.51-35.13-8.95-52.71-13.41c-0.46-0.12-0.92-0.22-1.46-0.34c-3.33,6.24-8.33,9.93-15.3,10.46L203.99,160.24z
			 M293.32,336.15c0.73,0.04,1.18,0.08,1.64,0.08c10.92,0,21.83-0.01,32.75,0.02c1.02,0,1.66-0.31,2.27-1.13
			c9.26-12.34,13.71-26.21,13.41-41.62c-0.02-1.02-0.3-1.45-1.31-1.82c-6.21-2.3-12.38-4.71-18.57-7.09
			c-0.36-0.14-0.7-0.31-1.24-0.54C320.47,305.78,310.86,323.02,293.32,336.15L293.32,336.15z M433.7,296.25
			c-7.47,1.63-15.02,2.74-22.64,3.31c-0.64,0.05-1.04,0.15-1.1,0.93c-0.94,12.2-3.9,23.9-8.74,35.13c-0.05,0.11-0.05,0.25-0.11,0.52
			c0.44,0.03,0.85,0.09,1.25,0.09c10.09,0,20.19-0.01,30.28,0.03c0.98,0,1.44-0.28,1.81-1.2c3.67-9.19,6.2-18.66,7.17-28.52
			c0.4-4.01,0.61-8.04,0.93-12.3C439.35,294.97,436.53,295.65,433.7,296.25L433.7,296.25z"/>
		<path d="M260.75,185.48c4.72,0.01,8.49-3.73,8.46-8.4c-0.03-4.58-3.76-8.32-8.29-8.32c-4.84,0-8.63,3.71-8.59,8.42
			c0.04,4.64,3.75,8.29,8.42,8.31V185.48z"/>
	</g>
	<g style="clip-path:url(#SVGID_00000088828347543373700520000015820428299815222711_);">
		<path d="M455.3,134.11c4.55-7.95,7.47-16.45,8.59-25.54c0.32-2.58,0.43-5.19,0.61-7.79c0.04-0.58,0.24-1.04,0.75-1.34
			c0.77-0.45,1.54-0.21,2.19,0.72c10.9,15.47,15.23,32.62,13.07,51.4c-0.94,8.23-3.36,16.04-7.06,23.45c-1.75,3.5-3.76,6.83-6.04,10
			c-0.53,0.74-1.17,1-1.88,0.75c-0.66-0.23-1.01-0.77-1-1.64c0.08-4.08-0.09-8.15-0.69-12.19c-1.19-8-3.64-15.59-7.48-22.7
			c-1.08-2-2.28-3.94-3.48-5.99c-0.26,0.33-0.42,0.53-0.57,0.73c-3.63,4.69-7.75,8.93-12.44,12.56
			c-16.15,12.5-34.39,17.49-54.65,15.04c-7.83-0.95-15.27-3.24-22.35-6.71c-10.63-5.21-19.46-12.59-26.55-22.06
			c-1.49-1.99-1.52-2.01,0-4c13.17-17.24,30.5-27.08,52.12-29.2c8.27-0.81,16.45-0.12,24.49,1.97c13.7,3.56,25.4,10.53,35.07,20.86
			c1.68,1.79,3.23,3.7,4.89,5.62c0.79-1.29,1.62-2.59,2.39-3.93L455.3,134.11z M379.64,140.79c-0.2,9.58-4.49,17.09-12.04,22.84
			c25.72,11.47,62.3,5.9,83.34-22.9c-18.92-26.4-54.14-35.06-82.35-23.27c7.32,6.07,11.25,13.76,11.04,23.34L379.64,140.79z
			 M344.29,147.54c5.58,5.91,12.05,10.67,19.32,14.32c0.41,0.2,0.7,0.23,1.1-0.04c6.45-4.26,10.53-10.14,11.58-17.83
			c1.4-10.23-2.23-18.47-10.44-24.72c-0.44-0.34-0.79-0.33-1.27-0.1c-7.84,3.81-14.76,8.87-20.68,15.26
			c-1.71,1.85-3.25,3.85-4.87,5.78c-0.15,0.18-0.27,0.38-0.5,0.7c1.91,2.21,3.75,4.5,5.76,6.62L344.29,147.54z M467.31,105.43
			c-0.11,0.96-0.21,1.81-0.31,2.66c-1.18,10.07-4.37,19.46-9.49,28.2c-0.77,1.32-1.61,2.6-2.45,3.88c-0.25,0.37-0.28,0.63-0.01,1.02
			c5.75,8.45,9.58,17.71,11.35,27.78c0.57,3.22,0.75,6.5,1.11,9.75c0.02,0.14,0.02,0.29,0.04,0.58
			C481.57,157.36,481.59,127.48,467.31,105.43L467.31,105.43z"/>
		<path d="M352.6,136.74c0.01,3.23,2.62,5.84,5.84,5.84c3.24,0,5.86-2.64,5.84-5.9c-0.01-3.23-2.62-5.83-5.84-5.84
			C355.2,130.84,352.58,133.47,352.6,136.74L352.6,136.74z"/>
	</g>
	<g style="clip-path:url(#SVGID_00000088828347543373700520000015820428299815222711_);">
		<path d="M149.64,194.27c0.37-0.26,0.64-0.44,0.89-0.63c5.87-4.3,12.44-6.65,19.7-7.11c1.49-0.09,2.18,0.95,1.66,2.36
			c-0.81,2.18-1.77,4.34-2.28,6.6c-1.29,5.63-0.06,10.87,3.29,15.51c4.05,5.63,9.63,8.55,16.62,8.61c1.64,0.02,2.32,0.68,2.39,2.38
			c0.69,16.02-9.95,31.07-25.51,35.99c-1.28,0.4-2.08,1.06-2.76,2.17c-5.27,8.59-8.04,17.88-8.14,27.97
			c-0.06,5.64,0.8,11.11,2.33,16.52c0.97,3.4,1.51,6.91,2.47,10.31c2.1,7.47,5.1,14.57,8.99,21.29c0.89,1.54,0.21,2.71-1.59,2.71
			c-5.14,0.01-10.27,0-15.41,0c-12.19,0-24.38-0.01-36.57,0.02c-1.39,0-2.18-0.47-2.74-1.79c-2.22-5.28-4.04-10.68-5.42-16.24
			c-0.04-0.15-0.08-0.3-0.15-0.56c-8.47,1.36-16.95,1.65-25.63,0.93c0.17,0.49,0.29,0.87,0.43,1.24c1.8,4.71,3.94,9.25,6.43,13.64
			c0.92,1.62,0.27,2.76-1.59,2.76c-17.42,0-34.85,0-52.27,0.01c-1.11,0-1.79-0.42-2.25-1.47c-4.23-9.8-6.89-19.99-7.92-30.61
			c-0.3-3.11-0.52-6.21,0-9.33c0.07-0.41-0.05-0.91-0.24-1.29c-4.8-9.85-5.57-20.03-2.44-30.51c0.19-0.62,0.11-0.95-0.41-1.38
			C10.54,255.19,3.56,243.61,1,229.51c-2.41-13.3-0.42-25.99,5.84-37.99c0.3-0.57,0.59-1.16,0.96-1.69c1.56-2.31,4.51-3.1,7.06-2.09
			c2.59,1.02,3.97,3.68,3.63,6.44c-0.98,7.87-0.41,15.64,2.04,23.21c5.59,17.29,16.92,29.21,33.82,35.82
			c7.18,2.81,14.7,3.89,22.37,3.41c15.9-1.01,29.09-7.58,39.5-19.67c1.04-1.2,1.95-2.51,2.95-3.75c0.4-0.5,0.48-0.96,0.33-1.61
			c-4.31-18.6,5.85-37.08,23.8-43.27c2.23-0.77,4.56-1.27,6.87-1.77c0.45-0.1,1.27,0.21,1.48,0.58c0.27,0.47,0.27,1.25,0.07,1.79
			c-0.57,1.58-1.3,3.1-1.95,4.65c-0.07,0.17-0.06,0.37-0.12,0.7L149.64,194.27z M57.92,335.87c0.03-0.16,0.06-0.24,0.04-0.29
			c-0.09-0.24-0.2-0.48-0.31-0.71c-3.22-7.08-5.63-14.41-7.1-22.05c-0.1-0.51,0.13-1.21,0.45-1.65c0.42-0.57,1.13-0.54,1.78-0.23
			c0.2,0.1,0.42,0.18,0.63,0.27c11.83,4.87,24.15,7.37,36.94,7.45c14.22,0.09,27.82-2.85,40.8-8.64c1.71-0.76,2.54-0.32,2.89,1.49
			c1.58,8.15,4.14,15.97,7.71,23.47c0.31,0.64,0.65,0.9,1.38,0.89c7.15-0.03,14.3-0.02,21.46-0.02c0.27,0,0.54-0.03,0.9-0.05
			c-0.21-0.42-0.36-0.74-0.53-1.05c-3.02-5.77-5.57-11.74-7.31-18.02c-1.3-4.69-2.44-9.42-3.51-14.17
			c-0.64-2.84-1.22-5.73-1.48-8.63c-1.14-12.96,1.77-24.96,8.73-35.97c0.17-0.27,0.35-0.56,0.42-0.87c0.2-0.84,0.75-1.2,1.54-1.42
			c13.01-3.65,21.21-12.05,24.65-25.09c0.67-2.54,0.91-5.16,0.85-7.84c-8.21-0.56-14.72-4.07-19.12-11
			c-4.4-6.92-4.78-14.28-1.57-21.96c-4.7,0.6-8.9,1.92-12.68,4.3c-2.35,1.48-4.48,3.31-6.66,5.04c-0.66,0.53-1.29,0.76-2.04,0.44
			c-0.73-0.31-0.89-0.99-0.82-1.72c0.09-0.9,0.12-1.82,0.31-2.71c0.35-1.6,0.79-3.17,1.22-4.85c-0.31,0.06-0.59,0.1-0.86,0.17
			c-5.75,1.51-10.82,4.29-14.98,8.53c-9.02,9.21-11.96,20.16-8.98,32.7c0.21,0.89,0.13,1.6-0.39,2.37
			c-13.32,19.6-37.36,29.33-60.51,24.48c-27.92-5.85-47.55-30.72-46.72-59.23c0.06-2.01,0.31-4.01,0.41-6.02
			c0.07-1.4-0.75-2.46-2.06-2.83c-1.28-0.37-2.59,0.15-3.24,1.34c-6.5,11.8-8.58,24.37-6.08,37.59c2.59,13.67,9.52,24.78,20.4,33.44
			c1.1,0.87,1.19,1.25,0.74,2.61c-3.42,10.28-2.72,20.26,2.12,29.96c0.3,0.6,0.38,1.36,0.37,2.04c-0.02,2.56-0.34,5.13-0.16,7.67
			c0.73,10.35,3.24,20.29,7.21,29.88c0.28,0.68,0.64,0.89,1.37,0.89c6.96-0.03,13.91-0.02,20.87-0.02h0.92L57.92,335.87z
			 M131.23,313.42c-6.74,2.92-13.65,5.02-20.77,6.47c1.27,5.33,2.95,10.4,5.01,15.35c0.27,0.65,0.68,0.64,1.22,0.64
			c7.01,0,14.03,0,21.04,0c0.28,0,0.56-0.03,0.97-0.05c-3.36-7.21-5.84-14.6-7.47-22.4V313.42z M54.27,315.17
			c0,0.09,0,0.29,0.05,0.47c1.63,6.69,3.88,13.15,6.84,19.37c0.31,0.64,0.64,0.89,1.38,0.89c7.11-0.03,14.23-0.02,21.34-0.02
			c0.31,0,0.61-0.03,1-0.06c-0.19-0.39-0.34-0.67-0.47-0.96c-1.91-4.33-3.85-8.65-5.7-13c-0.29-0.69-0.66-0.91-1.31-1.02
			c-3.41-0.61-6.85-1.08-10.2-1.92c-4.32-1.08-8.57-2.47-12.92-3.74L54.27,315.17z"/>
		<path d="M155.5,219.7c-0.02-3.73,2.94-6.72,6.64-6.72c3.73,0,6.71,2.94,6.74,6.65c0.03,3.67-2.98,6.72-6.67,6.75
			S155.51,223.41,155.5,219.7z"/>
	</g>
	<g style="clip-path:url(#SVGID_00000088828347543373700520000015820428299815222711_);">
		<path d="M44.43,167.96c-0.65-0.38-1.14-0.65-1.62-0.95c-12.15-7.57-19.72-18.35-22.6-32.39c-0.27-1.33,0.45-2.33,1.61-2.14
			c0.41,0.07,0.84,0.36,1.15,0.67c3.88,3.94,8.31,7.12,13.32,9.47c0.45,0.21,0.91,0.41,1.45,0.53c-0.13-0.17-0.25-0.35-0.38-0.52
			c-5.81-7.29-9.31-15.55-10.37-24.82c-0.53-4.69-0.41-9.36,0.42-14.01c0.15-0.87,0.57-1.36,1.27-1.48
			c0.78-0.13,1.29,0.14,1.75,0.96c6.04,10.75,14.9,18.05,26.68,21.72c6.68,2.08,13.5,2.44,20.41,1.38c0.48-0.07,0.71-0.26,0.86-0.77
			c3.5-11.86,11.28-19.22,23.38-21.82c6.45-1.38,12.7-0.33,18.65,2.39c15.01,6.88,24.31,18.39,27.83,34.53
			c0.81,3.72,0.99,7.51,0.83,11.32c-0.04,1.12-0.76,2.04-1.62,2.12c-0.66,0.06-1.11-0.26-1.52-0.74c-3.01-3.48-6.66-6.05-10.97-7.7
			c-0.14-0.05-0.28-0.09-0.46-0.14c-0.11,0.19-0.21,0.36-0.29,0.53c-3.07,6.24-7.73,10.88-13.95,13.97
			c-0.26,0.13-0.55,0.4-0.63,0.67c-1.67,5.4-3.84,10.59-6.71,15.45c-11.26,19.08-27.65,31.27-49.21,36.44
			c-4.42,1.06-8.92,1.59-13.47,1.79c-0.72,0.03-1.38-0.03-1.78-0.71c-0.4-0.69-0.18-1.32,0.21-1.97c4.28-7.05,6.51-14.68,6.63-22.94
			c0.01-0.94-0.25-1.34-1.1-1.73c-10.08-4.58-17.72-11.79-22.96-21.54c-0.18-0.34-0.35-0.73-0.36-1.11
			c-0.03-1.21,1.24-1.84,2.38-1.25c2.06,1.07,4.1,2.18,6.21,3.14c1.45,0.66,3,1.09,4.51,1.62
			C44.06,167.96,44.14,167.95,44.43,167.96L44.43,167.96z M29.89,108.56c-0.27,2.67-0.2,5.32,0.03,7.96
			c0.53,5.94,2.2,11.56,4.97,16.83c2.43,4.62,5.57,8.7,9.4,12.24c0.66,0.61,0.79,1.35,0.42,2.01c-0.36,0.64-1.07,0.91-1.88,0.68
			c-6.33-1.74-12.1-4.59-17.25-8.69c-0.36-0.29-0.74-0.57-1.24-0.95c0.09,0.33,0.14,0.5,0.19,0.66
			c4.05,12.13,11.77,21.1,23.17,26.89c3.25,1.65,6.7,2.8,10.25,3.61c1.05,0.24,1.56,1.17,1.18,2.09c-0.3,0.72-0.89,0.94-1.64,0.95
			c-7.05,0.1-13.8-1.29-20.25-4.12c-0.16-0.07-0.34-0.13-0.63-0.24c0.17,0.27,0.26,0.42,0.36,0.56
			c5.11,7.18,11.72,12.49,19.88,15.84c1.04,0.43,1.5,1.03,1.52,2.15c0.14,8.25-1.64,16.04-5.42,23.37
			c-0.12,0.23-0.22,0.46-0.37,0.76c0.19,0,0.29,0,0.4,0c5.33-0.42,10.54-1.41,15.64-3.02c14.4-4.55,26.27-12.77,35.64-24.59
			c5.7-7.18,9.85-15.19,12.48-23.98c1.99-6.64,3-13.43,3.07-20.36c0.04-3.95-0.24-7.87-0.84-11.78c-1.05-6.91-3.08-13.53-6.02-19.87
			c-0.27-0.57-0.6-0.81-1.2-0.9c-3.17-0.49-6.32-0.46-9.48,0.12c-10.4,1.88-19.08,10.3-21.21,20.63c-0.26,1.24-0.54,1.52-1.77,1.75
			c-6.32,1.2-12.64,1.17-18.94-0.16c-10.43-2.21-19.21-7.32-26.31-15.27C32.59,112.1,31.29,110.33,29.89,108.56L29.89,108.56z
			 M146.05,148.79c-0.31-9.92-3.51-18.89-9.77-26.72c-5.21-6.52-11.77-11.19-19.7-14.1c0.08,0.23,0.11,0.34,0.15,0.44
			c4.05,9.42,6.11,19.25,6.19,29.5c0,1.09,0.02,1.09,1.11,1.26c5.62,0.9,10.91,2.84,15.89,5.52
			C142.06,145.84,143.99,147.4,146.05,148.79L146.05,148.79z M122.86,142.2c-0.25,4.71-0.87,9.33-1.99,14.04
			c4.87-2.95,8.41-6.86,10.76-11.87C129.76,143.55,123.96,142.1,122.86,142.2L122.86,142.2z"/>
		<path d="M108.41,117.03c2.93,0,5.27,2.31,5.27,5.23c0,2.91-2.33,5.28-5.23,5.29c-2.88,0.02-5.27-2.36-5.29-5.25
			c-0.01-2.91,2.32-5.26,5.24-5.27L108.41,117.03z"/>
	</g>
	<path style="clip-path:url(#SVGID_00000088828347543373700520000015820428299815222711_);" d="M225.84,99.2
		c-0.02,11.65-9.36,20.81-20.68,20.94c-11.68,0.13-21.14-9.25-21.18-20.83c-0.04-11.67,9.32-20.87,20.66-21.01
		C216.32,78.16,225.82,87.53,225.84,99.2L225.84,99.2z M190.9,110.86c4.04-3.49,8.67-5.33,14.01-5.33c5.33,0,9.97,1.85,14.02,5.35
		c2.76-3.4,4.19-7.26,4.2-11.61c0.01-4.27-1.35-8.07-3.99-11.44c-7.33,6.96-20.05,7.78-28.44,0.04
		C185.62,93.76,184.98,103.92,190.9,110.86L190.9,110.86z M192.59,85.83c7.26,6.8,18.45,6.04,24.61-0.02
		C210.51,79.38,199.25,79.4,192.59,85.83z M192.83,112.85c7.1,6.44,17.97,5.82,24.14-0.01
		C210.49,106.86,199.74,106.57,192.83,112.85z"/>
</g>
</svg>
