<?xml version="1.0" encoding="utf-8"?>
<!-- Generator: Adobe Illustrator 26.1.0, SVG Export Plug-In . SVG Version: 6.00 Build 0)  -->
<svg version="1.1" id="a" xmlns="http://www.w3.org/2000/svg" xmlns:xlink="http://www.w3.org/1999/xlink" x="0px" y="0px"
	 viewBox="0 0 95 95" style="enable-background:new 0 0 95 95;" xml:space="preserve">
<style type="text/css">
	.st0{fill:#FFFFFF;}
	.st1{fill:#4EEBC0;}
	.st2{font-family:'EditorSans-Semibold';}
	.st3{font-size:32px;}
</style>
<polygon class="st0" points="45.92,54.84 23.29,41.77 23.29,67.91 23.29,94.04 45.92,80.98 68.56,94.04 68.56,67.91 68.56,41.77 "/>
<circle class="st1" cx="45.08" cy="41.77" r="33"/>
<text transform="matrix(1 0 0 1 28.6161 53.0944)" class="st2 st3">01</text>
<path class="st0" d="M55.3,16.13c0.01-0.84,0.45-1.38,1.39-1.7c1.92-0.64,3.84-1.29,5.76-1.92c2.19-0.72,3.64-2.16,4.37-4.35
	c0.65-1.98,1.32-3.96,1.99-5.94c0.37-1.08,1.42-1.55,2.4-1.08c0.47,0.23,0.73,0.63,0.88,1.1c0.6,1.81,1.25,3.61,1.8,5.43
	c0.8,2.64,2.52,4.27,5.16,5.03c1.88,0.55,3.73,1.21,5.59,1.84c0.66,0.22,1.09,0.86,1.09,1.56c0,0.72-0.42,1.36-1.13,1.6
	c-1.4,0.48-2.8,0.92-4.2,1.39c-0.98,0.33-1.97,0.63-2.91,1.05c-1.69,0.75-2.78,2.09-3.36,3.83c-0.66,1.97-1.3,3.94-1.95,5.92
	c-0.04,0.13-0.09,0.26-0.14,0.39c-0.34,0.78-0.88,1.15-1.66,1.12c-0.74-0.03-1.29-0.45-1.56-1.23c-0.39-1.16-0.76-2.32-1.15-3.48
	c-0.37-1.1-0.7-2.21-1.13-3.29c-0.7-1.74-1.99-2.91-3.75-3.53c-2.05-0.72-4.12-1.39-6.17-2.08C55.74,17.49,55.29,16.92,55.3,16.13z"
	/>
</svg>
