<?xml version="1.0" encoding="utf-8"?>
<!-- Generator: Adobe Illustrator 26.1.0, SVG Export Plug-In . SVG Version: 6.00 Build 0)  -->
<svg version="1.1" id="Layer_1" xmlns="http://www.w3.org/2000/svg" xmlns:xlink="http://www.w3.org/1999/xlink" x="0px" y="0px"
	 viewBox="0 0 66 92.36" style="enable-background:new 0 0 66 92.36;" xml:space="preserve">
<style type="text/css">
	.st0{fill:#C4C4C4;}
	.st1{fill:#D9D9D9;}
	.st2{fill:#FFFFFF;}
</style>
<polygon class="st0" points="33.84,46.07 11.21,33 11.21,59.14 11.21,85.27 33.84,72.21 56.48,85.27 56.48,59.14 56.48,33 "/>
<circle class="st1" cx="33" cy="33" r="33"/>
<g>
	<path class="st2" d="M33.02,15c9.85,0.01,17.89,7.92,17.98,17.83C51.09,42.87,43.06,50.93,33.19,51
		C23.11,51.07,15.01,43.02,15,33.04C14.99,23.06,23.03,15.02,33.02,15z M18.01,32.98C17.97,41.2,24.67,48.09,33.16,48
		c8.18-0.08,14.9-6.76,14.84-15.12c-0.06-8.25-6.77-14.86-14.93-14.87C24.74,17.99,18.02,24.66,18.01,32.98z"/>
	<path class="st2" d="M29.97,36.92c0.71-0.72,1.37-1.37,2.02-2.03c2.47-2.47,4.93-4.93,7.4-7.4c0.64-0.64,1.57-0.66,2.17-0.05
		c0.62,0.62,0.6,1.53-0.04,2.17c-3.44,3.45-6.89,6.89-10.33,10.34c-0.75,0.75-1.61,0.75-2.36,0.01c-1.7-1.7-3.4-3.4-5.1-5.1
		c-0.49-0.49-0.61-1.12-0.35-1.72c0.23-0.54,0.82-0.9,1.43-0.88c0.41,0.02,0.76,0.19,1.05,0.48c1.29,1.29,2.58,2.58,3.86,3.87
		C29.81,36.69,29.87,36.79,29.97,36.92z"/>
</g>
</svg>
