<svg width="39" height="39" viewBox="0 0 39 39" fill="none" xmlns="http://www.w3.org/2000/svg">
<path d="M38.9996 19.5266C38.8932 30.3392 30.1468 39.0266 19.4065 38.9734C8.61307 38.9468 -0.0801868 30.047 -0.000432153 19.2343C0.0793224 8.55448 9.03842 -0.185983 19.9116 -1.6002e-05C30.4127 0.185951 39.1325 9.00611 38.9996 19.5266ZM3.9873 11.5831C4.14681 11.7159 4.27973 11.8222 4.41266 11.9285C8.0282 14.532 13.6376 14.1069 16.8278 10.9721C19.3534 8.50135 23.1018 7.78404 26.2122 9.21865C29.3758 10.6533 31.3963 13.8678 31.2368 17.1355C31.0241 20.8549 28.791 23.8304 25.3881 24.9196C20.7889 26.4339 17.8912 31.4285 18.8482 36.1839C18.9546 36.7684 19.1938 36.9012 19.7521 36.8746C24.9628 36.6887 29.3493 34.6962 32.7787 30.7377C38.7337 23.8569 38.2286 13.2037 31.609 6.93391C24.6437 0.425052 14.1693 0.451619 7.28382 7.06674C5.92799 8.36851 4.81143 9.85625 3.9873 11.5831ZM16.748 36.6621C16.748 36.4761 16.748 36.423 16.748 36.3699C15.6846 30.1533 19.6192 24.5211 24.8564 22.874C27.3554 22.1035 29.0037 19.7657 29.11 17.1355C29.2163 14.5851 27.7276 12.141 25.4679 11.158C22.9955 10.0688 20.2572 10.6001 18.3431 12.3801C15.3125 15.2227 11.6969 16.1791 7.60284 15.4618C6.00775 15.1696 4.54558 14.4789 3.08341 13.549C1.3554 18.8092 1.75417 23.8038 4.62534 28.4795C7.39016 32.9959 11.4576 35.6526 16.748 36.6355V36.6621Z" fill="black"/>
</svg>
