<?xml version="1.0" encoding="utf-8"?>
<!-- Generator: Adobe Illustrator 26.1.0, SVG Export Plug-In . SVG Version: 6.00 Build 0)  -->
<svg version="1.1" id="a" xmlns="http://www.w3.org/2000/svg" xmlns:xlink="http://www.w3.org/1999/xlink" x="0px" y="0px"
	 viewBox="0 0 40 40" style="enable-background:new 0 0 40 40;" xml:space="preserve">
<path d="M20.09,0C31.04,0,39.99,8.97,40,19.97C40.01,30.94,30.96,40.01,20.02,40C8.62,39.99-0.09,30.53,0,19.69
	C0.09,8.9,9.09,0,20.09,0z M37.81,20.01c0.02-2.98-0.63-5.81-2.06-8.42c-3.8-6.91-11.21-10.53-18.95-9.11
	c-5.38,0.98-9.5,3.92-12.28,8.67c-0.44,0.76-0.42,0.77,0.35,1.27c3.88,2.47,9.16,1.92,12.51-1.31c4.3-4.16,11.49-2.75,13.92,2.73
	c2.05,4.62-0.27,10-5.09,11.67c-2.13,0.74-3.86,1.97-5.15,3.81c-1.62,2.33-2.2,4.91-1.72,7.72c0.09,0.54,0.37,0.79,0.91,0.75
	c0.59-0.05,1.19-0.07,1.78-0.14C31.06,36.6,37.74,29.12,37.81,20.01z M3.27,13.99c-3.88,10.12,2.85,21.84,13.84,23.48
	c0.01-0.04,0.04-0.08,0.04-0.12c0-0.08-0.01-0.17-0.02-0.25c-0.32-2.02-0.17-4.01,0.54-5.92c1.4-3.84,4.02-6.46,7.91-7.77
	c2.43-0.82,4.04-2.99,4.23-5.71c0.17-2.47-1.23-4.98-3.4-6.07c-2.62-1.32-5.44-0.84-7.83,1.33c-2.93,2.65-6.37,3.57-10.24,3.03
	C6.5,15.72,4.87,14.97,3.27,13.99z"/>
</svg>
