<?xml version="1.0" encoding="utf-8"?>
<!-- Generator: Adobe Illustrator 26.1.0, SVG Export Plug-In . SVG Version: 6.00 Build 0)  -->
<svg version="1.1" id="a" xmlns="http://www.w3.org/2000/svg" xmlns:xlink="http://www.w3.org/1999/xlink" x="0px" y="0px"
	 viewBox="0 0 40 40" style="enable-background:new 0 0 40 40;" xml:space="preserve">
<path d="M33.55,7.59c0.88,0.17,1.75,0.22,2.55,0.51c2.47,0.9,3.9,3.49,3.51,6.17c-0.38,2.6-2.52,4.57-5.04,4.67
	c-5.41,0.21-9.88,2.48-13.41,6.71c-2.2,2.63-3.57,5.71-4.13,9.19c-0.43,2.67-2.62,4.61-5.19,4.6c-2.64,0-4.9-1.91-5.38-4.62
	c-0.14-0.8-0.05-1.64-0.07-2.53c-0.22,0-0.53,0-0.84-0.01c-2.92-0.13-5.17-2.6-5.22-5.72c-0.05-2.84,2.19-5.33,4.96-5.46
	c5.17-0.23,9.55-2.24,13.08-6.17c2.48-2.76,4.01-6.05,4.63-9.82c0.47-2.84,3-4.84,5.74-4.53c2.82,0.32,4.95,2.8,4.91,5.75
	C33.66,6.78,33.58,7.22,33.55,7.59z M34.92,17.03c1.86-0.26,3.17-1.96,3.05-3.88c-0.12-1.94-1.57-3.48-3.43-3.64
	c-0.97-0.08-1.83,0.21-2.59,0.83c-0.47,0.38-0.94,0.38-1.27,0c-0.35-0.4-0.3-0.88,0.15-1.36c0.04-0.04,0.07-0.08,0.11-0.12
	c1.11-1.21,1.35-2.9,0.62-4.4c-0.7-1.43-2.23-2.29-3.74-2.09c-1.59,0.21-2.82,1.4-3.13,3.03c-0.12,0.65-0.24,1.3-0.41,1.94
	c-1.94,7.09-6.25,11.85-12.8,14.38c-1.97,0.76-4.03,1.07-6.13,1.17c-1.99,0.1-3.53,2.06-3.29,4.12c0.17,1.47,0.9,2.54,2.18,3.13
	c1.36,0.63,2.65,0.44,3.82-0.49c0.49-0.39,0.99-0.37,1.3,0.04c0.31,0.4,0.24,0.87-0.18,1.31c-0.97,1.02-1.38,2.26-1.02,3.69
	c0.46,1.86,2,3.03,3.83,2.96c1.63-0.06,3.08-1.39,3.36-3.17c0.53-3.3,1.75-6.27,3.65-8.92c3.08-4.28,7.14-6.96,12.16-8.03
	C32.41,17.28,33.67,17.2,34.92,17.03z"/>
</svg>
