<?xml version="1.0" encoding="utf-8"?>
<!-- Generator: Adobe Illustrator 26.1.0, SVG Export Plug-In . SVG Version: 6.00 Build 0)  -->
<svg version="1.1" id="a" xmlns="http://www.w3.org/2000/svg" xmlns:xlink="http://www.w3.org/1999/xlink" x="0px" y="0px"
	 viewBox="0 0 40 40" style="enable-background:new 0 0 40 40;" xml:space="preserve">
<path d="M23.96,18c-0.22,0.41-0.36,0.91-0.67,1.23c-6.32,6.35-12.66,12.69-19,19.02C3.54,39,2.43,39,1.73,38.29
	c-0.74-0.75-0.73-1.8,0.05-2.59c4.32-4.33,8.65-8.65,12.98-12.98c2.01-2.01,4.02-4.02,6.03-6.03c0.57-0.57,1.24-0.66,1.97-0.38
	C23.41,16.55,23.83,17.22,23.96,18z"/>
<path d="M38.25,11.22c-0.23-0.11-0.4-0.19-0.57-0.28c-1.14-0.6-2.28-1.2-3.41-1.82c-0.3-0.16-0.54-0.2-0.87-0.02
	c-1.17,0.66-2.36,1.29-3.57,1.88C29.6,11.1,29.27,11,28.98,11c0.02-0.29-0.06-0.63,0.06-0.87c0.6-1.2,1.24-2.39,1.88-3.57
	c0.15-0.28,0.14-0.49-0.01-0.77c-0.65-1.2-1.29-2.4-1.9-3.62c-0.11-0.22-0.02-0.54-0.02-0.82c0.27,0,0.59-0.09,0.81,0.02
	c1.22,0.6,2.43,1.24,3.62,1.89c0.3,0.17,0.53,0.16,0.82-0.01c1.16-0.64,2.34-1.25,3.51-1.87c0.3-0.16,0.67-0.37,0.89-0.01
	c0.13,0.2,0.08,0.61-0.04,0.85c-0.6,1.2-1.26,2.38-1.85,3.58c-0.1,0.21-0.1,0.55,0,0.76c0.61,1.22,1.28,2.41,1.89,3.62
	c0.1,0.2,0.12,0.5,0.06,0.72C38.67,11.06,38.4,11.13,38.25,11.22z"/>
<path d="M28.85,28.47c0.04-0.09,0.12-0.26,0.2-0.42c0.61-1.16,1.21-2.32,1.84-3.46c0.16-0.29,0.18-0.51,0.01-0.82
	c-0.66-1.19-1.3-2.4-1.9-3.62c-0.11-0.22-0.01-0.54-0.01-0.82c0.27,0,0.59-0.08,0.81,0.02c1.22,0.6,2.43,1.24,3.62,1.89
	c0.31,0.17,0.53,0.15,0.82-0.01c1.18-0.64,2.38-1.26,3.56-1.89c0.3-0.16,0.64-0.32,0.84,0.02c0.12,0.2,0.09,0.58-0.02,0.8
	c-0.61,1.22-1.27,2.41-1.88,3.63c-0.1,0.21-0.1,0.55,0.01,0.76c0.58,1.17,1.21,2.32,1.82,3.47c0.17,0.31,0.41,0.63,0.07,0.96
	c-0.33,0.33-0.66,0.09-0.97-0.08c-1.16-0.61-2.31-1.22-3.46-1.84c-0.27-0.14-0.47-0.17-0.76-0.01c-1.23,0.68-2.47,1.32-3.72,1.96
	C29.22,29.29,28.81,29.06,28.85,28.47z"/>
<path d="M10.87,10.52c0.05-0.11,0.13-0.29,0.22-0.47c0.61-1.16,1.21-2.32,1.84-3.46c0.17-0.3,0.14-0.52-0.02-0.82
	c-0.64-1.18-1.28-2.37-1.87-3.57c-0.11-0.23-0.01-0.57-0.01-0.86c0.27,0.01,0.59-0.06,0.82,0.06c1.21,0.59,2.4,1.22,3.57,1.87
	c0.32,0.18,0.56,0.16,0.87-0.01c1.18-0.65,2.36-1.28,3.57-1.88c0.22-0.11,0.54-0.02,0.81-0.02c0,0.27,0.09,0.59-0.02,0.81
	c-0.6,1.22-1.27,2.41-1.88,3.63c-0.11,0.22-0.1,0.59,0.01,0.81c0.57,1.16,1.19,2.29,1.79,3.42c0.16,0.31,0.42,0.63,0.1,0.97
	c-0.35,0.37-0.69,0.1-1.01-0.07c-1.14-0.6-2.28-1.2-3.41-1.82c-0.29-0.16-0.51-0.18-0.82-0.01c-1.23,0.67-2.47,1.32-3.72,1.95
	C11.24,11.31,10.85,11.09,10.87,10.52z"/>
</svg>
