<?xml version="1.0" encoding="utf-8"?>
<!-- Generator: Adobe Illustrator 26.1.0, SVG Export Plug-In . SVG Version: 6.00 Build 0)  -->
<svg version="1.1" id="a" xmlns="http://www.w3.org/2000/svg" xmlns:xlink="http://www.w3.org/1999/xlink" x="0px" y="0px"
	 viewBox="0 0 40 40" style="enable-background:new 0 0 40 40;" xml:space="preserve">
<path d="M0,40c0-0.18,0-0.31,0-0.44c0-5.82,0-11.64,0-17.47c0-2.83,1.1-5.01,3.41-6.52c0.11-0.07,0.2-0.24,0.25-0.38
	c0.77-2.12,2.17-3.5,4.29-4.01c0.42-0.1,0.61-0.28,0.78-0.69c1-2.35,2.73-3.63,5.19-3.79c0.09-0.01,0.18-0.01,0.3-0.02
	c0.22-2.39,1.27-4.26,3.18-5.57c1.32-0.9,2.79-1.24,4.35-1.08c1.91,0.2,3.49,1.11,4.69,2.68c1.2,1.56,1.65,3.37,1.44,5.39
	c1.75,0.06,3.25,0.7,4.48,1.97c1.23,1.27,1.87,2.83,1.95,4.63c0.38,0.11,0.73,0.19,1.07,0.31c2.75,0.97,4.6,3.64,4.61,6.76
	c0.02,5.97,0,11.95,0.01,17.92C40,40,39.86,40,39.64,40c-4.19,0-8.37,0-12.56,0c-8.87,0-17.74,0-26.61,0C0.33,40,0.18,40,0,40z
	 M1.94,37.94c12.05,0,24.06,0,36.1,0c0.01-0.09,0.02-0.16,0.02-0.23c0-5.32,0.02-10.65-0.01-15.97c-0.02-2.91-2.17-5.07-4.95-5.07
	c-8.77,0-17.53,0-26.3,0c-0.2,0-0.39,0-0.59,0.03c-2.56,0.41-4.26,2.49-4.27,5.22c0,5.21,0,10.43,0,15.64
	C1.94,37.69,1.94,37.8,1.94,37.94z M32.35,14.61c-0.02-0.21-0.03-0.37-0.06-0.53c-0.49-2.65-2.79-4.31-5.35-3.86
	c-0.95,0.17-1.49-0.49-1.19-1.46c0.66-2.13-0.06-4.43-1.82-5.76c-1.71-1.3-4.07-1.3-5.76,0.03c-1.46,1.15-2.13,2.69-2,4.61
	c0.05,0.83-0.46,1.31-1.23,1.19c-0.43-0.07-0.89-0.11-1.32-0.05c-1.75,0.26-2.93,1.44-3.35,3.28c-0.18,0.77-0.43,0.99-1.18,1.01
	c-1.11,0.03-2.04,0.49-2.79,1.35c-0.05,0.06-0.09,0.13-0.14,0.2C14.9,14.61,23.6,14.61,32.35,14.61z"/>
</svg>
