<?xml version="1.0" encoding="utf-8"?>
<!-- Generator: Adobe Illustrator 26.1.0, SVG Export Plug-In . SVG Version: 6.00 Build 0)  -->
<svg version="1.1" id="a" xmlns="http://www.w3.org/2000/svg" xmlns:xlink="http://www.w3.org/1999/xlink" x="0px" y="0px"
	 viewBox="0 0 40 40" style="enable-background:new 0 0 40 40;" xml:space="preserve">
<path d="M0.57,39.43c0-0.17,0-0.3,0-0.43c0-5.65,0-11.31,0-16.97c0-2.75,1.07-4.87,3.31-6.33c0.11-0.07,0.19-0.23,0.24-0.37
	c0.75-2.06,2.11-3.4,4.17-3.9c0.41-0.1,0.59-0.27,0.76-0.67c0.97-2.28,2.65-3.53,5.04-3.68c0.09-0.01,0.17-0.01,0.29-0.02
	c0.21-2.32,1.23-4.14,3.09-5.41c1.28-0.87,2.71-1.2,4.23-1.05c1.86,0.19,3.39,1.08,4.56,2.6c1.17,1.52,1.6,3.27,1.4,5.24
	c1.7,0.06,3.16,0.68,4.35,1.91s1.82,2.75,1.89,4.5c0.37,0.11,0.71,0.18,1.04,0.3c2.67,0.94,4.47,3.54,4.48,6.57
	c0.02,5.8,0,11.61,0.01,17.41c0,0.3-0.14,0.3-0.35,0.3c-4.07,0-8.13,0-12.2,0c-8.62,0-17.23,0-25.85,0
	C0.89,39.43,0.75,39.43,0.57,39.43z M2.46,37.43c11.71,0,23.37,0,35.07,0c0.01-0.09,0.02-0.16,0.02-0.22
	c0-5.17,0.02-10.35-0.01-15.51c-0.02-2.83-2.11-4.92-4.81-4.92c-8.52,0-17.03,0-25.55,0c-0.19,0-0.38,0-0.57,0.03
	c-2.49,0.4-4.14,2.42-4.15,5.07c0,5.06,0,10.13,0,15.19C2.46,37.18,2.46,37.29,2.46,37.43z M32,14.76c-0.02-0.2-0.03-0.36-0.06-0.51
	c-0.48-2.57-2.71-4.19-5.2-3.75c-0.92,0.17-1.45-0.48-1.16-1.42c0.64-2.07-0.06-4.3-1.77-5.6c-1.66-1.26-3.95-1.26-5.6,0.03
	c-1.42,1.12-2.07,2.61-1.94,4.48c0.05,0.81-0.45,1.27-1.19,1.16c-0.42-0.07-0.86-0.11-1.28-0.05c-1.7,0.25-2.85,1.4-3.25,3.19
	c-0.17,0.75-0.42,0.96-1.15,0.98c-1.08,0.03-1.98,0.48-2.71,1.31c-0.05,0.06-0.09,0.13-0.14,0.19C15.05,14.76,23.5,14.76,32,14.76z"
	/>
</svg>
