<svg width="41" height="32" viewBox="0 0 41 32" fill="none" xmlns="http://www.w3.org/2000/svg">
<path d="M28.5415 2.00231C26.8703 2.00231 25.289 2.39551 23.8874 3.09632C22.5781 3.74855 21.4255 4.66909 20.5012 5.78622C19.5929 4.69222 18.4703 3.78787 17.1933 3.13795C15.771 2.4117 14.1643 2.00463 12.4585 2.00463C6.68176 2.00231 2 6.69982 2 12.496C2 14.2052 2.40801 15.8196 3.12952 17.2467C3.41075 17.8041 3.74039 18.3314 4.11382 18.8241C4.69703 19.5966 6.60569 21.477 7.35487 22.1315C7.35487 22.1315 15.4621 30 20.5588 30C25.6555 30 35.5354 20.2974 35.5354 20.2974C35.8097 20.0499 36.0702 19.7885 36.3168 19.5133C36.9484 18.8102 37.4855 18.0192 37.9097 17.1634C38.6081 15.7571 39 14.1705 39 12.4936C39 6.69751 34.3182 2 28.5415 2V2.00231Z" stroke="#231F20" stroke-width="3" stroke-linecap="round" stroke-linejoin="round"/>
</svg>
