<?xml version="1.0" encoding="utf-8"?>
<!-- Generator: Adobe Illustrator 26.1.0, SVG Export Plug-In . SVG Version: 6.00 Build 0)  -->
<svg version="1.1" id="a" xmlns="http://www.w3.org/2000/svg" xmlns:xlink="http://www.w3.org/1999/xlink" x="0px" y="0px"
	 viewBox="0 0 40 40" style="enable-background:new 0 0 40 40;" xml:space="preserve">
<style type="text/css">
	.st0{stroke:#000000;stroke-width:0.5;stroke-miterlimit:10;}
</style>
<g>
	<path class="st0" d="M28.77,2.06c0,1.33,0,2.48,0,3.73c0.8,0,1.56,0,2.33,0c2.47,0,4.95,0,7.42,0c0.45,0,0.94-0.01,0.95,0.81
		c0,0.81-0.5,0.83-0.94,0.83c-2.91,0.01-5.83,0.01-8.74,0.01c-0.32,0-0.64,0-1.01,0c0,1.61,0,3.11,0,4.74c0.32,0,0.61,0,0.9,0
		c2.86,0,5.72,0,8.58,0c0.25,0,0.53-0.05,0.73,0.08c0.2,0.13,0.48,0.49,0.45,0.71c-0.03,0.3-0.27,0.64-0.49,0.81
		c-0.19,0.14-0.48,0.06-0.73,0.06c-2.83,0-5.66,0-8.49,0c-0.3,0-0.59,0-0.94,0c0,1.58,0,3.07,0,4.7c0.31,0.02,0.62,0.05,0.94,0.05
		c2.83,0,5.66,0,8.49,0c0.25,0,0.53-0.07,0.73,0.07c0.22,0.16,0.5,0.51,0.49,0.77c-0.01,0.26-0.3,0.63-0.53,0.73
		c-0.3,0.13-0.65,0.04-0.98,0.04c-3.02,0-6.04,0-9.13,0c0,1.61,0,3.16,0,4.82c0.84,0,1.66,0,2.48,0c2.34,0,4.67-0.01,7.01,0.01
		c0.49,0,1.18-0.23,1.17,0.81c-0.01,1.06-0.74,0.74-1.2,0.74c-2.83,0.03-5.66,0.01-8.49,0.01c-0.3,0-0.6,0-0.96,0
		c0,1.6,0,3.13,0,4.8c0.27,0,0.56,0,0.85,0c2.89,0,5.77,0,8.66,0c0.22,0,0.48-0.07,0.65,0.05c0.21,0.14,0.49,0.47,0.48,0.69
		c-0.02,0.29-0.25,0.67-0.47,0.82c-0.22,0.15-0.54,0.07-0.81,0.07c-3.1,0-6.21,0-9.37,0c0,1.42,0,2.77,0,4.27c0.29,0,0.58,0,0.88,0
		c2.94,0,5.88-0.01,8.82,0.02c0.31,0,0.74,0.17,0.91,0.45c0.31,0.53-0.03,1.05-0.7,1.05c-2.12,0.02-4.23,0.01-6.35,0.01
		c-1.26,0-2.53,0-3.79,0c-1.02,0-1.11-0.13-1.11-1.48c0-7.9,0-15.79,0-23.69c0-3.88,0-7.75,0-11.63c0-1.43,0.09-1.55,1.23-1.55
		c3.3,0,6.6,0,9.9,0c0.44,0,0.87,0.01,0.9,0.75c0.03,0.84-0.48,0.82-0.92,0.82c-2.53,0.01-5.06,0-7.59,0
		C30.25,2.06,29.54,2.06,28.77,2.06z"/>
	<path class="st0" d="M17.67,28.11c-1.79-3.43-3.55-6.82-5.37-10.31c-1.74,3.52-3.42,6.93-5.13,10.39c1.15,1.04,2.04,2.24,2.32,4
		c0.38,2.38-0.12,4.41-1.59,5.96c-1.45,1.53-3.12,1.78-4.79,0.75c-1.65-1.02-2.5-2.78-2.62-5.21c-0.16-3.21,2.09-6.31,4.87-6.1
		c0.28,0.02,0.7-0.24,0.85-0.54C7.9,23.72,9.53,20.34,11.22,17c0.31-0.61,0.15-1-0.11-1.5c-2.14-4.1-4.26-8.2-6.39-12.31
		C4.64,3.04,4.56,2.89,4.48,2.74c-0.26-0.51-0.59-1.08,0-1.54C5,0.8,5.28,1.36,5.53,1.84c1.78,3.43,3.56,6.86,5.34,10.29
		c0.41,0.79,0.82,1.58,1.31,2.51c0.57-1.1,1.11-2.1,1.62-3.12c1.67-3.27,3.33-6.54,5.01-9.8c0.13-0.26,0.26-0.59,0.46-0.72
		c0.2-0.14,0.56-0.2,0.72-0.05c0.16,0.15,0.27,0.63,0.2,0.88c-0.11,0.46-0.36,0.86-0.57,1.28c-2.08,4.06-4.15,8.12-6.25,12.16
		c-0.32,0.62-0.34,1.06-0.01,1.69c1.73,3.26,3.43,6.56,5.11,9.85c0.27,0.52,0.5,0.76,1.04,0.65c1.95-0.4,3.99,1.19,4.75,3.59
		c0.81,2.58,0.15,5.47-1.62,7.14c-1.58,1.48-3.9,1.39-5.44-0.22c-1.64-1.71-2.21-4.65-1.33-7.05c0.2-0.54,0.45-1.06,0.74-1.51
		C16.9,28.95,17.27,28.58,17.67,28.11z M23.31,33.34c0.02-2.37-1.39-4.27-3.21-4.32c-1.89-0.05-3.4,1.84-3.41,4.29
		c-0.01,2.35,1.5,4.34,3.31,4.35C21.82,37.68,23.29,35.76,23.31,33.34z M5.02,29.23c-1.76-0.03-3.27,1.89-3.33,4.22
		c-0.06,2.36,1.5,4.42,3.35,4.42c1.82,0,3.29-1.93,3.3-4.34C8.36,31.15,6.9,29.27,5.02,29.23z"/>
</g>
</svg>
