<svg width="40" height="40" viewBox="0 0 40 40" fill="none" xmlns="http://www.w3.org/2000/svg">
<path d="M39.9997 9.47091C39.9921 12.8521 38.7922 15.2435 36.7725 17.2635C30.2351 23.8024 23.7159 30.3599 17.1396 36.8593C12.5743 41.371 5.94372 40.9624 1.99478 36.0147C-1.00984 32.2496 -0.60294 26.6775 3.09868 22.9337C9.65357 16.3039 16.2463 9.71027 22.8889 3.16812C27.0238 -0.904291 32.6179 -1.05218 36.8575 2.73431C38.9786 4.62893 39.9657 7.09976 40.0003 9.47145L39.9997 9.47091ZM15.8575 13.9196C19.2301 17.3046 22.7897 20.8775 26.4096 24.5106C28.1365 22.7765 29.9428 20.9772 31.7317 19.1614C33.2502 17.6201 34.8591 16.1494 36.2323 14.486C38.5942 11.6246 38.2564 7.2345 35.628 4.53965C32.9837 1.82836 28.3114 1.27843 25.6199 3.79089C22.1524 7.02801 19.0124 10.6151 15.858 13.9191L15.8575 13.9196Z" fill="black"/>
</svg>
