<?xml version="1.0" encoding="utf-8"?>
<!-- Generator: Adobe Illustrator 26.1.0, SVG Export Plug-In . SVG Version: 6.00 Build 0)  -->
<svg version="1.1" id="a" xmlns="http://www.w3.org/2000/svg" xmlns:xlink="http://www.w3.org/1999/xlink" x="0px" y="0px"
	 viewBox="0 0 40 40" style="enable-background:new 0 0 40 40;" xml:space="preserve">
<style type="text/css">
	.st0{stroke:#000000;stroke-miterlimit:10;}
</style>
<g>
	<g>
		<path class="st0" d="M10.34,38.96c-6.1-0.01-10.47-5.31-9.01-10.87c0.95-3.61,2.92-6.74,5.03-9.8c0.96-1.38,2-2.71,3.03-4.05
			c0.62-0.81,1.27-0.8,1.91,0.01c2.61,3.3,5.08,6.67,6.84,10.45c1.06,2.27,1.84,4.6,1.34,7.14C18.64,36.04,14.87,38.97,10.34,38.96z
			 M10.36,14.84c-2.34,2.85-4.42,5.78-6.11,8.93c-1.02,1.92-1.9,3.92-2.06,6.13c-0.22,3.1,1.88,6.23,5.07,7.44
			c3.16,1.2,6.98,0.37,9.1-1.93c2.35-2.54,2.61-5.4,1.49-8.45C16.21,22.5,13.36,18.69,10.36,14.84z"/>
		<path class="st0" d="M38.96,23.72c-0.1,3.84-3.29,6.89-7.42,7.01c-3.73,0.11-7.03-2.76-7.37-6.4c-0.18-1.91,0.39-3.7,1.34-5.3
			c1.57-2.64,3.36-5.18,5.11-7.72c0.47-0.69,1.19-0.71,1.68-0.09c2.41,3.07,4.78,6.17,6.03,9.87
			C38.62,21.93,38.75,22.83,38.96,23.72z M31.5,11.98c-2,2.53-3.88,5.01-5.12,7.85c-0.55,1.26-1.05,2.65-1.09,3.99
			c-0.07,2.44,1.27,4.29,3.64,5.3c2.21,0.94,4.39,0.72,6.31-0.69c2.06-1.52,2.84-3.56,2.27-5.97C36.56,18.48,33.98,15.32,31.5,11.98
			z"/>
		<path class="st0" d="M20.09,14.41c-3.15-0.03-5.45-2.62-4.91-5.54c0.44-2.39,1.87-4.31,3.25-6.27c0.28-0.4,0.57-0.81,0.89-1.17
			c0.45-0.5,1.13-0.54,1.54-0.02c1.73,2.18,3.42,4.39,4.12,7.1C25.77,11.56,23.36,14.45,20.09,14.41z M20.1,2.22
			c-1.61,2.16-3.18,4.17-3.8,6.64c-0.36,1.48,0.28,3,1.6,3.86c1.24,0.82,3.03,0.84,4.32,0.01c1.36-0.88,1.98-2.12,1.67-3.67
			C23.39,6.47,21.73,4.44,20.1,2.22z"/>
	</g>
</g>
</svg>
