<svg width="49" height="40" viewBox="0 0 49 40" fill="none" xmlns="http://www.w3.org/2000/svg">
<path d="M39.7717 10.9221C41.7932 9.71884 42.7241 7.40795 42.2492 5.24877C42.1273 4.69598 41.9151 4.15359 41.6041 3.64445C40.7194 2.18767 39.2379 1.30446 37.6556 1.11327C36.5103 0.974039 35.3104 1.19848 34.245 1.83231C33.2742 2.41003 32.5555 3.24337 32.1227 4.19307C32.0176 4.42167 31.9314 4.6565 31.86 4.89548C30.0633 9.48817 26.7662 13.5468 22.1684 16.2816C17.5706 19.0164 12.3991 19.9911 7.45454 19.4092C7.20658 19.3593 6.95651 19.3261 6.70435 19.3095C5.65366 19.2429 4.57144 19.4799 3.60061 20.0576C2.53521 20.6914 1.7724 21.6349 1.35843 22.701C0.786857 24.1744 0.88142 25.8805 1.7682 27.3373C2.07921 27.8485 2.46376 28.287 2.90085 28.6528C4.60717 30.0804 7.10781 30.3527 9.12934 29.1494C7.10781 30.3527 6.1769 32.6636 6.65181 34.8228C6.77369 35.3755 6.98593 35.9179 7.29694 36.4292C8.18162 37.8859 9.66309 38.7691 11.2454 38.9603C12.3907 39.0996 13.5906 38.8751 14.656 38.2413C15.6268 37.6636 16.3455 36.8302 16.7784 35.8784C16.8813 35.6519 16.9696 35.4192 17.0389 35.1802C18.8356 30.5875 22.1327 26.5268 26.7305 23.792C31.3283 21.0572 36.5019 20.0804 41.4465 20.6644C41.6923 20.7143 41.9403 20.7475 42.1925 20.7641C43.2432 20.8306 44.3254 20.5937 45.2983 20.016C46.3637 19.3822 47.1265 18.4387 47.5405 17.3726C48.1121 15.8992 48.0175 14.1931 47.1307 12.7363C46.8197 12.2251 46.4352 11.7866 45.9981 11.4208C44.2917 9.99316 41.7911 9.72092 39.7696 10.9242L39.7717 10.9221Z" stroke="#231F20" stroke-width="2" stroke-linecap="round" stroke-linejoin="round"/>
</svg>
