<?xml version="1.0" encoding="utf-8"?>
<!-- Generator: Adobe Illustrator 26.1.0, SVG Export Plug-In . SVG Version: 6.00 Build 0)  -->
<svg version="1.1" id="Layer_1" xmlns="http://www.w3.org/2000/svg" xmlns:xlink="http://www.w3.org/1999/xlink" x="0px" y="0px"
	 viewBox="0 0 434.35 318.13" style="enable-background:new 0 0 434.35 318.13;" xml:space="preserve">
<style type="text/css">
	.st0{fill:#FFE066;}
</style>
<path class="st0" d="M373.31,73.76l-0.13,0.03c0.1,0.74,0.16,1.49,0.16,2.26c0,9.24-7.49,16.74-16.74,16.74
	c-7.16,0-13.26-4.49-15.65-10.81l-33.79,8.58l-22.45,5.7l0-0.01c0.53-2.03,0.81-4.16,0.81-6.36c0-3.64-0.78-7.11-2.17-10.23
	c-2.05-4.58-5.42-8.43-9.64-11.06c-3.54-2.22-7.67-3.57-12.11-3.78c-0.39-0.02-0.79-0.03-1.18-0.03c-1.46,0-2.9,0.13-4.29,0.37
	c1.87,1.42,3.54,3.09,4.94,4.97c1.22,1.62,2.25,3.4,3.05,5.3c1.27,3,1.97,6.29,1.97,9.75c0,5.8-1.97,11.13-5.27,15.38
	c0.37-1.72,0.57-3.5,0.57-5.32c0-4.2-1.04-8.16-2.87-11.64c-0.99-1.88-2.2-3.62-3.61-5.18c-1.31-1.45-2.79-2.74-4.4-3.85
	c-1.3-0.9-2.69-1.68-4.16-2.33v2.41v35.06v0.99v1.12v0.71c-4.6,7.62-10.11,14.66-16.38,20.91l-0.07,0.08
	c-12.78,12.74-28.69,22.44-46.51,27.59c-0.03,0.01-0.06,0.02-0.09,0.03c-0.27,0.08-0.55,0.16-0.82,0.23
	c-2.17,0.62-4.36,1.17-6.58,1.65c-2.06,0.45-4.14,0.83-6.25,1.16c-4.05,0.63-8.18,1.04-12.37,1.22c-1.52,0.06-3.04,0.1-4.58,0.1
	c-5.47,0-10.84-0.41-16.1-1.19c-11.3-1.68-22.03-5.09-31.92-9.96c-30.86-15.21-53.46-44.61-59.29-79.69c0,0,0.34,49.98,30.6,94.54
	v36.55c-1.93,8.12-2.96,16.59-2.96,25.3c0,14.32,2.78,27.98,7.81,40.5h43.81c0-0.01-0.01-0.01-0.01-0.02l33.63-0.05
	c0,0-6.54-24.77-9.41-39.63c0.71,0.06,1.42,0.12,2.14,0.17c1.05,0.07,2.1,0.14,3.16,0.19c2.98,0.15,5.99,0.23,9.01,0.23
	c6.26,0,12.44-0.33,18.53-0.97c6.66-0.7,13.21-1.77,19.63-3.19c4.22-0.94,8.38-2.03,12.48-3.26l2.19,23.48l11.86,24.98l2.51,1.19
	l47.71-3.08l-0.02-0.04c24.68-0.78,49.47-15.69,66.59-33.57c-2.3,0.41-4.64,0.69-7.01,0.86c-1.6,0.12-3.21,0.19-4.83,0.2
	c-0.1,0-0.19,0-0.29,0c-15.96,0-30.61-5.59-42.12-14.91c-9.01-7.31-15.74-17.05-19.99-28.06l-0.35-1.02
	c-2.62-7.17-4.05-14.92-4.05-22.99c0-8.08,1.43-15.82,4.05-22.99l4.44-9.51c0.78,0.43,1.57,0.83,2.37,1.23
	c0.23,0.11,0.46,0.23,0.69,0.34c5.95,2.89,12.39,4.93,19.16,5.95c1.89,0.28,3.8,0.5,5.73,0.62c0.38,0.02,0.77,0.04,1.15,0.06
	c1.05,0.05,2.11,0.08,3.17,0.08c6.32,0,12.44-0.88,18.23-2.51c2.4-0.68,4.75-1.49,7.04-2.42c5.53-2.25,10.68-5.23,15.36-8.8
	c7.29-5.57,13.39-12.61,17.88-20.66c5.37-9.63,8.44-20.73,8.44-32.54C373.69,78.46,373.56,76.09,373.31,73.76z"/>
<g>
	<path d="M262.9,94.37c1.39-3.11,1.87-6.33,1.59-9.65c-0.58-6.8-3.52-12.38-8.8-16.71c-0.66-0.54-1.3-1.07-1.04-2.05
		c0.28-1.07,1.23-1.13,2.08-1.25c11.38-1.59,22.51,4.31,27.62,14.64c2.38,4.81,3.14,9.91,2.53,15.22c-0.02,0.2-0.03,0.41-0.07,0.81
		c2.52-0.63,4.9-1.22,7.28-1.82c14.96-3.8,29.93-7.6,44.89-11.4c11.14-2.83,22.27-5.66,33.41-8.49c1.83-0.47,2.52-0.06,2.69,1.82
		c1.34,14.69-1.47,28.54-9.06,41.21c-11.17,18.63-27.6,29.84-49.07,33.23c-14.13,2.23-27.72-0.01-40.59-6.35
		c-0.27-0.13-0.55-0.26-0.83-0.38c-0.07-0.03-0.16-0.02-0.38-0.05c-1.99,4.33-4.3,8.55-5.4,13.29
		c-5.99,25.68,0.36,47.85,19.47,65.98c10.11,9.59,22.56,14.68,36.42,16.19c6,0.65,11.99,0.47,17.94-0.53
		c0.34-0.06,0.73-0.18,1.03-0.07c0.54,0.18,1.25,0.4,1.47,0.82c0.2,0.4,0.05,1.24-0.28,1.6c-1.64,1.79-3.32,3.56-5.11,5.21
		c-11.46,10.59-24.27,19.04-39.03,24.35c-9.59,3.45-19.46,4.9-29.67,4.72c-13.88-0.25-27.77-0.08-41.65-0.04
		c-1.11,0-1.82-0.31-2.51-1.19c-10.19-13.03-15.17-27.8-14.91-44.34c0-0.13,0-0.26-0.02-0.39c-0.01-0.08-0.07-0.16-0.15-0.34
		c-9.72,2.81-19.63,4.81-29.7,5.95c-10.09,1.14-20.21,1.39-30.6,0.82c1.02,13.84,4.66,26.86,10.81,39.46c-0.65,0-1.14,0-1.63,0
		c-11.88,0-23.76,0-35.64,0c-14.84,0-29.68-0.02-44.51,0.03c-1.51,0.01-2.28-0.52-2.81-1.88c-3.79-9.89-6.21-20.08-7.12-30.63
		c-1.01-11.62-0.19-23.11,2.38-34.48c0.13-0.59,0.18-1.21,0.18-1.81c0.01-11.23,0.02-22.46-0.02-33.68c0-0.65-0.21-1.38-0.56-1.92
		c-12.49-18.92-20.85-39.57-25.64-61.66c-1.72-7.96-2.72-16.09-3.92-24.15c-0.38-2.57-0.39-5.2-0.55-7.8
		c-0.09-1.36,0.42-2.21,1.39-2.28c1.24-0.08,1.6,0.73,1.78,1.79c2.1,12.19,6.06,23.76,12.29,34.45
		c16.77,28.76,41.52,46.56,74.23,52.94c16.03,3.13,32.05,2.36,47.8-2.05c27.15-7.6,48.16-23.53,63.29-47.26
		c0.34-0.54,0.5-1.29,0.5-1.95c0.03-12.53,0.02-25.07,0.02-37.6c0-2.81,0.9-3.39,3.42-2.05c8.48,4.5,13.4,11.49,14.6,21.05
		C262.78,93.91,262.85,94.14,262.9,94.37z M340.09,85.1c-0.53,0.13-1,0.23-1.46,0.34c-17.57,4.46-35.15,8.9-52.71,13.41
		c-2.13,0.55-3-0.47-2.54-2.53c2.86-12.78-5.02-25.29-17.75-28.19c-1.78-0.41-3.63-0.49-5.45-0.73c0.18,0.66,0.44,0.99,0.72,1.31
		c8.37,9.67,9.02,23.55,1.57,33.5c-0.6,0.8-1.28,1.44-2.28,1c-1.01-0.45-0.95-1.42-0.78-2.37c1.31-7.25-0.45-13.71-5.04-19.42
		c-1.75-2.17-3.85-3.96-6.53-5.36c0,0.7,0,1.21,0,1.71c0,11.75,0.01,23.5-0.03,35.25c0,0.77-0.25,1.64-0.65,2.31
		c-3.85,6.34-8.3,12.24-13.39,17.63c-17.59,18.62-38.98,30.12-64.32,34.13c-12.27,1.94-24.54,1.78-36.75-0.46
		c-19.87-3.64-37.47-12.09-52.71-25.35c-13.32-11.59-23.36-25.56-29.94-41.98c-0.4-0.99-0.81-1.97-1.22-2.96
		c0.56,4,1.24,7.94,2.11,11.83c4.86,21.75,13.05,42.12,25.41,60.74c0.49,0.74,0.8,1.76,0.8,2.64c0.05,11.53,0.04,23.06,0.03,34.59
		c0,0.69-0.07,1.39-0.17,2.08c-0.78,4.98-1.83,9.93-2.31,14.93c-1.57,16.15,0.71,31.83,6.3,47.04c0.37,1.01,0.84,1.38,1.95,1.37
		c12.49-0.04,24.98-0.03,37.47-0.03c0.46,0,0.92,0,1.57,0c-5.95-14.9-8.65-30.14-8-46.08c43.48,11.91,85.49,8.49,126.17-11.02
		c0.04,0.63,0.06,1.02,0.09,1.4c0.33,3.63,0.4,7.31,1.05,10.88c3.5,19.12,13.65,33.81,29.98,44.26c0.44,0.28,1.03,0.43,1.57,0.47
		c7.01,0.46,13.9-0.38,20.66-2.2c17.9-4.82,32.99-14.49,46.35-27.09c0.1-0.09,0.13-0.26,0.22-0.45c-0.37,0-0.63-0.02-0.88,0
		c-5.88,0.58-11.74,0.45-17.55-0.55c-17.46-2.99-31.93-11.18-42.71-25.3c-11.1-14.54-15.77-31.04-14.16-49.32
		c0.82-9.35,3.98-17.92,8.23-26.17c0.53-1.02,1.32-1.33,2.38-0.79c0.5,0.26,1,0.52,1.51,0.78c12.64,6.46,26.05,8.86,39.99,6.42
		c25.09-4.39,42.27-18.78,51.58-42.49c2.07-5.27,3.18-10.79,3.65-16.81c-4.33,5.73-9.81,8.59-16.71,8.06
		C348.42,95.02,343.42,91.33,340.09,85.1z M237.1,219.37c-0.54,0.24-0.88,0.41-1.24,0.54c-6.18,2.38-12.35,4.79-18.57,7.09
		c-1.01,0.37-1.29,0.81-1.31,1.82c-0.3,15.42,4.16,29.28,13.41,41.62c0.61,0.82,1.25,1.13,2.27,1.13
		c10.92-0.04,21.83-0.02,32.75-0.02c0.45,0,0.91-0.04,1.64-0.08C248.52,258.34,238.9,241.1,237.1,219.37z M116.83,229.54
		c0.32,4.26,0.53,8.29,0.93,12.3c0.97,9.86,3.5,19.33,7.17,28.52c0.37,0.92,0.83,1.21,1.81,1.2c10.09-0.04,20.19-0.02,30.28-0.03
		c0.4,0,0.81-0.05,1.25-0.09c-0.05-0.27-0.06-0.4-0.11-0.52c-4.84-11.23-7.8-22.93-8.74-35.13c-0.06-0.78-0.45-0.89-1.1-0.93
		c-7.63-0.57-15.17-1.68-22.64-3.31C122.84,230.95,120.03,230.28,116.83,229.54z"/>
	<path d="M298.63,120.79c-4.72,0.01-8.49-3.73-8.46-8.4c0.03-4.58,3.76-8.32,8.29-8.32c4.84,0,8.63,3.71,8.59,8.42
		C307.01,117.12,303.3,120.78,298.63,120.79z"/>
</g>
</svg>
