<svg width="316" height="201" viewBox="0 0 316 201" fill="none" xmlns="http://www.w3.org/2000/svg">
<path d="M313.732 10.4817L313.604 10.5109C313.697 11.2175 313.75 11.9359 313.75 12.6659C313.75 21.4788 306.626 28.6214 297.836 28.6214C291.033 28.6214 285.226 24.3347 282.948 18.3134L250.818 26.4897L229.47 31.9211C229.971 29.9763 230.245 27.9439 230.245 25.8531C230.245 22.3782 229.505 19.0785 228.177 16.1C226.232 11.7373 223.022 8.06383 219.009 5.55253C215.642 3.43838 211.711 2.14769 207.499 1.94912C207.126 1.9316 206.748 1.91992 206.375 1.91992C204.983 1.91992 203.62 2.04841 202.298 2.27617C204.08 3.62526 205.659 5.22548 206.998 7.01843C208.157 8.56608 209.136 10.2597 209.899 12.0702C211.105 14.9319 211.775 18.0681 211.775 21.3678C211.775 26.8927 209.905 31.9795 206.765 36.0268C207.115 34.3915 207.307 32.692 207.307 30.9516C207.307 26.9452 206.317 23.1666 204.581 19.8494C203.643 18.0564 202.49 16.3978 201.15 14.9144C199.904 13.5361 198.5 12.3038 196.962 11.2467C195.721 10.3882 194.399 9.64068 193.007 9.02746V47.4269C188.627 54.6921 183.39 61.3967 177.426 67.3595L177.356 67.4296C165.199 79.5772 150.072 88.8223 133.128 93.7339C133.099 93.7398 133.07 93.7514 133.041 93.7631C132.778 93.839 132.516 93.915 132.254 93.985C130.192 94.5749 128.107 95.1005 125.993 95.5619C124.035 95.9882 122.049 96.3562 120.051 96.6715C116.195 97.2789 112.275 97.6644 108.291 97.8337C106.846 97.8921 105.396 97.9272 103.94 97.9272C98.7383 97.9272 93.6299 97.5359 88.6322 96.7942C77.8854 95.194 67.6804 91.941 58.2849 87.298C28.9453 72.7968 7.45175 44.7637 1.91235 11.3168C1.91235 11.3168 2.23854 58.9671 31.0131 101.455V136.303C29.1725 144.042 28.1939 152.119 28.1939 160.423C28.1939 174.072 30.8384 187.101 35.6206 199.039H77.2738C71.8218 186.418 68.7987 172.495 68.7987 157.865C68.7987 157.1 68.8104 156.335 68.8278 155.57C79.5921 158.589 90.799 160.552 102.326 161.34C103.322 161.41 104.324 161.469 105.326 161.521C108.163 161.667 111.017 161.737 113.894 161.737C119.847 161.737 125.725 161.422 131.509 160.815C137.84 160.149 144.067 159.133 150.171 157.772C154.482 156.814 158.728 155.687 162.904 154.402C165.601 153.573 168.275 152.679 170.914 151.721C175.981 149.876 180.938 147.791 185.761 145.484C186.262 168.208 198.611 188.001 216.86 198.904C242.337 200.814 268.73 185.589 286.455 167.017C284.27 167.402 282.045 167.677 279.791 167.835C278.271 167.951 276.739 168.016 275.195 168.021C275.102 168.021 275.015 168.021 274.921 168.021C259.742 168.021 245.809 162.695 234.87 153.806C226.302 146.839 219.9 137.547 215.858 127.058L215.526 126.089C213.033 119.25 211.67 111.868 211.67 104.165C211.67 96.4613 213.033 89.0793 215.526 82.2404L219.749 73.1705C220.489 73.5793 221.24 73.9648 221.997 74.3444C222.219 74.4554 222.434 74.5663 222.655 74.6715C228.311 77.428 234.433 79.367 240.875 80.3423C242.669 80.611 244.487 80.8154 246.327 80.9322C246.689 80.9555 247.056 80.9672 247.423 80.9847C248.424 81.0315 249.426 81.0665 250.44 81.0665C256.451 81.0665 262.264 80.2313 267.774 78.672C270.058 78.0237 272.295 77.247 274.467 76.3593C279.721 74.2101 284.626 71.3717 289.07 67.9669C295.996 62.6581 301.803 55.9477 306.073 48.262C311.181 39.0754 314.093 28.4987 314.093 17.2388C314.093 14.9494 313.971 12.6893 313.738 10.4642L313.732 10.4817Z" stroke="#323232" stroke-width="3" stroke-linecap="round" stroke-linejoin="round"/>
</svg>
