<?xml version="1.0" encoding="utf-8"?>
<!-- Generator: Adobe Illustrator 26.1.0, SVG Export Plug-In . SVG Version: 6.00 Build 0)  -->
<svg version="1.1" id="Layer_1" xmlns="http://www.w3.org/2000/svg" xmlns:xlink="http://www.w3.org/1999/xlink" x="0px" y="0px"
	 viewBox="0 0 841.89 595.28" style="enable-background:new 0 0 841.89 595.28;" xml:space="preserve">
<style type="text/css">
	.st0{fill:#5CE0FF;}
</style>
<path class="st0" d="M492.48,293.13c-13.17-17.24-30.5-27.08-52.12-29.2c-8.26-0.81-16.45-0.12-24.49,1.97
	c-13.7,3.57-25.39,10.53-35.07,20.86c-1.68,1.79-3.23,3.7-4.89,5.62c-0.79-1.3-1.62-2.6-2.41-3.94c-4.55-7.94-7.47-16.45-8.59-25.54
	c-0.32-2.58-0.42-5.19-0.61-7.79c-0.04-0.58-0.24-1.04-0.75-1.34c-0.77-0.45-1.53-0.21-2.19,0.72
	c-10.9,15.47-15.23,32.63-13.07,51.4c0.94,8.22,3.36,16.04,7.06,23.45c1.74,3.49,3.76,6.83,6.04,10c0.53,0.74,1.17,0.99,1.88,0.75
	c0.67-0.23,1.02-0.77,1-1.64c-0.07-4.08,0.09-8.15,0.69-12.19c1.19-7.99,3.63-15.58,7.48-22.7c1.09-2,2.29-3.94,3.48-5.99
	c0.25,0.33,0.41,0.53,0.57,0.73c3.63,4.69,7.75,8.93,12.44,12.56c16.15,12.5,34.39,17.49,54.65,15.04
	c7.83-0.94,15.27-3.24,22.35-6.71c10.63-5.21,19.46-12.59,26.55-22.06C493.98,295.14,494,295.12,492.48,293.13z"/>
<g>
	<path d="M375.91,292.38c1.66-1.92,3.21-3.83,4.89-5.62c9.68-10.33,21.37-17.29,35.07-20.86c8.04-2.09,16.23-2.78,24.49-1.97
		c21.62,2.12,38.95,11.96,52.12,29.2c1.52,1.99,1.5,2.01,0,4c-7.09,9.47-15.92,16.85-26.55,22.06c-7.08,3.47-14.52,5.77-22.35,6.71
		c-20.26,2.45-38.5-2.54-54.65-15.04c-4.69-3.63-8.81-7.87-12.44-12.56c-0.16-0.2-0.32-0.4-0.57-0.73
		c-1.19,2.05-2.39,3.99-3.48,5.99c-3.85,7.12-6.29,14.71-7.48,22.7c-0.6,4.04-0.76,8.11-0.69,12.19c0.02,0.87-0.33,1.41-1,1.64
		c-0.71,0.24-1.35-0.01-1.88-0.75c-2.28-3.17-4.3-6.51-6.04-10c-3.7-7.41-6.12-15.23-7.06-23.45c-2.16-18.77,2.17-35.93,13.07-51.4
		c0.66-0.93,1.42-1.17,2.19-0.72c0.51,0.3,0.71,0.76,0.75,1.34c0.19,2.6,0.29,5.21,0.61,7.79c1.12,9.09,4.04,17.6,8.59,25.54
		C374.29,289.78,375.12,291.08,375.91,292.38z M460.22,271.79c-28.21-11.79-63.42-3.13-82.35,23.27
		c21.05,28.8,57.62,34.37,83.34,22.9c-7.55-5.75-11.83-13.26-12.04-22.84C448.97,285.55,452.9,277.85,460.22,271.79z M490.28,295.25
		c-0.23-0.32-0.35-0.53-0.5-0.7c-1.62-1.93-3.16-3.93-4.87-5.78c-5.92-6.39-12.85-11.45-20.68-15.26c-0.48-0.23-0.82-0.24-1.27,0.1
		c-8.21,6.25-11.84,14.49-10.44,24.72c1.05,7.68,5.13,13.56,11.58,17.83c0.4,0.27,0.69,0.24,1.1,0.04
		c7.28-3.65,13.74-8.4,19.32-14.32C486.53,299.75,488.37,297.47,490.28,295.25z M361.27,333.64c0.02-0.29,0.03-0.43,0.04-0.58
		c0.36-3.25,0.54-6.54,1.11-9.75c1.77-10.06,5.6-19.32,11.35-27.78c0.27-0.4,0.23-0.65-0.01-1.02c-0.84-1.28-1.68-2.56-2.45-3.88
		c-5.13-8.74-8.32-18.13-9.49-28.2c-0.1-0.85-0.2-1.71-0.31-2.66C347.23,281.82,347.25,311.7,361.27,333.64z"/>
	<path d="M476.22,291.07c-0.01,3.23-2.62,5.84-5.84,5.84c-3.24,0.01-5.86-2.64-5.84-5.9c0.01-3.23,2.62-5.83,5.84-5.84
		C473.62,285.17,476.24,287.81,476.22,291.07z"/>
</g>
</svg>
