<svg width="108" height="112" viewBox="0 0 108 112" fill="none" xmlns="http://www.w3.org/2000/svg">
<path d="M79.5916 40.4928C78.9787 38.2055 79.2996 35.7684 80.4836 33.7177C81.6676 31.6669 83.6177 30.1705 85.905 29.5576C88.1924 28.9447 90.6295 29.2656 92.6802 30.4496C94.731 31.6336 96.2274 33.5837 96.8403 35.8711L103.773 61.7441C106.224 70.8934 104.941 80.6418 100.205 88.8448C95.469 97.0478 87.6684 103.033 78.5191 105.485L67.02 108.566L68.2159 108.246C62.503 109.778 56.4992 109.866 50.7434 108.505C44.9877 107.143 39.6602 104.373 35.2395 100.443C34.7086 99.9704 34.1789 99.4961 33.6504 99.0204C31.1186 96.747 21.8819 87.4581 5.93287 71.1493C4.30702 69.4869 3.39388 67.2557 3.38766 64.9304C3.38144 62.6051 4.28263 60.3691 5.89957 58.698C7.62156 56.917 9.88927 55.7624 12.3425 55.4177C14.7957 55.073 17.2938 55.5579 19.4399 56.7953L30.1564 62.9825" stroke="white" stroke-width="5" stroke-linecap="round" stroke-linejoin="round"/>
<path d="M30.1564 62.9825L17.0614 14.1112C16.4485 11.8239 16.7694 9.3868 17.9534 7.33605C19.1374 5.2853 21.0876 3.78888 23.3749 3.176C25.6622 2.56311 28.0993 2.88396 30.1501 4.06797C32.2008 5.25197 33.6972 7.20213 34.3101 9.48945L45.8645 52.6112" stroke="white" stroke-width="5" stroke-linecap="round" stroke-linejoin="round"/>
<path d="M45.8645 52.6112L41.0887 34.7875C40.7852 33.655 40.7078 32.4737 40.8609 31.3112C41.0139 30.1487 41.3944 29.0278 41.9807 28.0123C42.5669 26.9969 43.3475 26.1069 44.2777 25.3931C45.2079 24.6793 46.2696 24.1558 47.4022 23.8523C48.5347 23.5488 49.716 23.4714 50.8785 23.6244C52.0409 23.7775 53.1619 24.158 54.1773 24.7443C55.1928 25.3305 56.0828 26.111 56.7966 27.0413C57.5103 27.9715 58.0339 29.0332 58.3374 30.1657L63.1132 47.9894" stroke="white" stroke-width="5" stroke-linecap="round" stroke-linejoin="round"/>
<path d="M59.878 35.9153C59.2651 33.628 59.5859 31.1909 60.7699 29.1401C61.9539 27.0894 63.9041 25.593 66.1914 24.9801C68.4787 24.3672 70.9158 24.688 72.9666 25.872C75.0173 27.056 76.5138 29.0062 77.1266 31.2935L80.3619 43.3676" stroke="white" stroke-width="5" stroke-linecap="round" stroke-linejoin="round"/>
</svg>
