<svg width="23" height="22" viewBox="0 0 23 22" fill="none" xmlns="http://www.w3.org/2000/svg">
<path fill-rule="evenodd" clip-rule="evenodd" d="M8.92759 3.04359C10.511 2.09355 12.4891 2.09354 14.0725 3.04358L20.7541 7.05252C21.0849 7.251 21.0759 7.73345 20.7379 7.91937L13.9099 11.6749C12.4094 12.5002 10.591 12.5002 9.0906 11.6749L2.26234 7.91936C1.92432 7.73345 1.91526 7.25099 2.24606 7.05251L8.92759 3.04359ZM15.1015 1.32859L21.7831 5.33753C23.4371 6.32991 23.3918 8.7422 21.7017 9.67179L14.8737 13.4273C12.7731 14.5827 10.2274 14.5827 8.12675 13.4274L1.2985 9.67179C-0.391601 8.74223 -0.436931 6.32992 1.21707 5.33753L7.8986 1.3286C10.1154 -0.0014568 12.8847 -0.00146317 15.1015 1.32859Z" fill="#323232"/>
<path d="M20.9999 7.50025C20.9999 6.94796 21.4476 6.50025 21.9999 6.50025C22.5522 6.50025 22.9999 6.94796 22.9999 7.50025V12.5002C22.9999 13.0525 22.5522 13.5002 21.9999 13.5002C21.4476 13.5002 20.9999 13.0525 20.9999 12.5002V7.50025Z" fill="#323232"/>
<path fill-rule="evenodd" clip-rule="evenodd" d="M5.49991 10.0002V15.0002C5.49991 17.7617 7.73849 20.0002 10.4999 20.0002H12.4999C15.2613 20.0002 17.4999 17.7617 17.4999 15.0002V10.0002H19.4999V15.0002C19.4999 18.8662 16.3659 22.0002 12.4999 22.0002H10.4999C6.63392 22.0002 3.49991 18.8662 3.49991 15.0002V10.0002H5.49991Z" fill="#323232"/>
</svg>
