<svg width="61" height="47" viewBox="0 0 61 47" fill="none" xmlns="http://www.w3.org/2000/svg">
<path d="M43.3531 0.775058C40.6199 0.775058 38.0418 1.41661 35.7511 2.54956C33.6157 3.60971 31.7311 5.10211 30.2208 6.91301C28.7378 5.13851 26.9035 3.66886 24.8182 2.61326C22.4956 1.43481 19.8673 0.770508 17.0839 0.770508C7.64759 0.775058 0 8.40086 0 17.8103C0 20.5858 0.666199 23.2066 1.84802 25.5225C2.30888 26.4234 2.84731 27.2834 3.45419 28.0842C4.4033 29.3354 7.52439 32.3885 8.74728 33.4532C8.74728 33.4532 21.9891 46.2296 30.3166 46.2296C38.6441 46.2296 54.7789 30.4775 54.7789 30.4775C55.226 30.0771 55.6504 29.6539 56.0519 29.208C57.0832 28.066 57.9593 26.7829 58.6529 25.3951C59.7936 23.111 60.4324 20.5403 60.4324 17.8148C60.4324 8.40542 52.7848 0.779608 43.3485 0.779608L43.3531 0.775058Z" fill="#FFDE5E"/>
</svg>
