<svg width="21" height="24" viewBox="0 0 21 24" fill="none" xmlns="http://www.w3.org/2000/svg">
<path fill-rule="evenodd" clip-rule="evenodd" d="M10.5 0C4.6717 0 0 4.21493 0 10C0 12.6684 0.909918 14.4412 2.06064 15.8253C2.59855 16.4723 3.18741 17.0319 3.71275 17.5311L3.76776 17.5834C4.32331 18.1116 4.79611 18.5669 5.17757 19.0551C5.22302 19.1132 5.23841 19.1333 5.25252 19.1534C5.26343 19.1689 5.27924 19.1927 5.31031 19.2462C5.31054 19.2466 5.31237 19.2498 5.31581 19.2562C5.31951 19.2631 5.3242 19.2721 5.32978 19.2832C5.34103 19.3054 5.35387 19.3319 5.3669 19.36C5.37992 19.3881 5.39187 19.415 5.40157 19.4379C5.40638 19.4493 5.41021 19.4587 5.41309 19.466C5.41609 19.4735 5.4173 19.4769 5.41719 19.4766C5.44554 19.5562 5.45739 19.6063 5.50721 19.8483L5.79433 21.2429C5.86156 21.5696 5.9226 21.8661 5.99311 22.1121C6.06936 22.3781 6.17407 22.6518 6.3615 22.9126C6.63761 23.2969 7.01765 23.5995 7.45966 23.7872C7.75971 23.9146 8.05656 23.9606 8.33999 23.9811C8.60214 24 8.91342 24 9.25633 24H11.7437C12.0866 24 12.3979 24 12.66 23.9811C12.9434 23.9606 13.2403 23.9146 13.5403 23.7872C13.9824 23.5995 14.3624 23.2969 14.6385 22.9126C14.8259 22.6518 14.9306 22.3781 15.0069 22.1121C15.0774 21.8661 15.1384 21.5696 15.2057 21.2429L15.4928 19.8483C15.5426 19.6063 15.5545 19.5562 15.5828 19.4766C15.5828 19.4766 15.5828 19.4766 15.5828 19.4766C15.5829 19.4763 15.5842 19.4728 15.5869 19.466L15.5918 19.4538L15.5984 19.4379C15.6081 19.415 15.6201 19.3881 15.6331 19.36C15.6461 19.3319 15.659 19.3054 15.6702 19.2832C15.6758 19.2721 15.6805 19.2631 15.6842 19.2562L15.6867 19.2517C15.6885 19.2482 15.6895 19.2465 15.6897 19.2462C15.7207 19.1927 15.7366 19.1689 15.7475 19.1534C15.7616 19.1333 15.777 19.1132 15.8224 19.0551C16.2039 18.5669 16.6767 18.1116 17.2322 17.5834L17.2872 17.5311C17.8126 17.0319 18.4014 16.4723 18.9394 15.8253C20.0901 14.4412 21 12.6684 21 10C21 4.21493 16.3283 0 10.5 0ZM2.05882 10C2.05882 5.38507 5.74006 2 10.5 2C15.2599 2 18.9412 5.38507 18.9412 10C18.9412 12.1478 18.2364 13.4878 17.3377 14.5686C16.8767 15.1231 16.3632 15.6113 15.8169 16.1306L15.7922 16.154C15.2533 16.6664 14.6704 17.2215 14.1826 17.8458C14.141 17.899 14.1036 17.9469 14.0654 18H11.5294V15.6142L13.2867 13.9071C13.6887 13.5166 13.6887 12.8834 13.2867 12.4929C12.8847 12.1024 12.2329 12.1024 11.8309 12.4929L10.5 13.7858L9.16908 12.4929C8.76707 12.1024 8.11528 12.1024 7.71327 12.4929C7.31126 12.8834 7.31126 13.5166 7.71327 13.9071L9.47059 15.6142V18H6.93457C6.89636 17.9469 6.85902 17.899 6.81742 17.8458C6.32958 17.2215 5.74671 16.6664 5.20775 16.154L5.18313 16.1306C4.63681 15.6113 4.12332 15.1231 3.66231 14.5686C2.76364 13.4878 2.05882 12.1478 2.05882 10ZM7.63803 20L7.80674 20.8194C7.88248 21.1873 7.92897 21.4099 7.97647 21.5756C8.01974 21.7265 8.04623 21.7631 8.04955 21.7677C8.10849 21.8497 8.18977 21.9145 8.28414 21.9546C8.2894 21.9568 8.33175 21.975 8.49259 21.9866C8.66918 21.9994 8.90294 22 9.28915 22H11.7109C12.0971 22 12.3308 21.9994 12.5074 21.9866C12.6683 21.975 12.7104 21.9569 12.7156 21.9547C12.81 21.9146 12.8914 21.8499 12.9503 21.7679C12.9536 21.7633 12.9803 21.7265 13.0235 21.5756C13.071 21.4099 13.1175 21.1873 13.1933 20.8194L13.362 20H7.63803Z" fill="#323232"/>
</svg>
