<svg width="375" height="100" viewBox="0 0 375 100" fill="none" xmlns="http://www.w3.org/2000/svg">
<path d="M153.907 14.65C153.877 14.6875 153.938 14.6122 153.907 14.65C149.996 5.94728 141.16 0 131 0C130.496 0 129.996 0.0148914 129.5 0.044258V0H12C5.37258 0 0 5.37258 0 12V100H375V12C375 5.37258 369.627 0 363 0H248.609V0.0072726C248.407 0.00243336 248.204 0 248 0C237.576 0 228.519 6.24258 224.766 15.3101C224.725 15.2644 224.807 15.3556 224.766 15.3101C218.255 28.1782 204.908 37 189.5 37C173.83 37 160.292 27.8756 153.907 14.65Z" fill="#FAFAFA"/>
</svg>
