<svg width="26" height="21" viewBox="0 0 26 21" fill="none" xmlns="http://www.w3.org/2000/svg">
<path fill-rule="evenodd" clip-rule="evenodd" d="M15.4128 0.973461C16.0645 0.319221 16.9815 -0.134838 17.9937 0.0355358C19.0114 0.206822 19.7215 0.940948 20.1054 1.7812C20.4903 2.62398 20.5991 3.65904 20.4073 4.69759C20.2154 5.73654 19.7433 6.66779 19.0871 7.32661C18.4354 7.98085 17.5183 8.43491 16.5061 8.26453C15.4885 8.09325 14.7784 7.35912 14.3945 6.51888C14.0096 5.67609 13.9008 4.64103 14.0926 3.60249C14.2845 2.56354 14.7565 1.63229 15.4128 0.973461ZM16.8298 2.38494C16.4901 2.72592 16.1866 3.27694 16.0593 3.96575C15.932 4.65495 16.021 5.26599 16.2137 5.68789C16.4076 6.11233 16.6551 6.26147 16.8381 6.29228C17.0266 6.324 17.3259 6.26071 17.6701 5.91513C18.0098 5.57415 18.3133 5.02313 18.4405 4.33432C18.5678 3.64512 18.4789 3.03408 18.2862 2.61218C18.0923 2.18774 17.8448 2.0386 17.6618 2.00779C17.4733 1.97607 17.174 2.03937 16.8298 2.38494Z" fill="white"/>
<path fill-rule="evenodd" clip-rule="evenodd" d="M9.80765 10.6269C10.5456 9.71846 11.5563 9 13 9C14.4462 9 15.4568 9.7248 16.1931 10.6335C16.8036 11.3869 17.2867 12.3466 17.715 13.1976C17.7748 13.3163 17.8334 13.4329 17.8913 13.5465C18.2401 14.232 18.5761 14.7664 18.8907 15.2666C19.0069 15.4514 19.1204 15.6319 19.2303 15.8132C19.6053 16.432 20.0002 17.1531 20 17.9966C19.9999 18.681 19.8325 19.2795 19.4862 19.7657C19.1423 20.2484 18.6811 20.5375 18.2351 20.7097C17.464 21.0075 16.5862 21.0029 16.1109 21.0004C16.071 21.0002 16.0339 21 16 21C15.4597 21 15.0291 20.9247 14.6482 20.8582L14.5185 20.8356C14.1112 20.7658 13.6722 20.7 13 20.7C12.3277 20.7 11.8888 20.7658 11.4814 20.8356L11.3518 20.8582C10.9709 20.9247 10.5403 21 10 21L9.99721 21L9.78476 20.9994L9.7796 20.9994C9.25821 20.9952 8.36077 20.9695 7.57664 20.6012C7.16353 20.4071 6.75335 20.1059 6.45158 19.6444C6.14829 19.1805 6 18.6242 6 17.9964C6 17.1848 6.40164 16.4608 6.7671 15.8506C6.8716 15.6761 6.97983 15.5011 7.09116 15.3211C7.40939 14.8065 7.75295 14.251 8.10737 13.5492C8.1608 13.4434 8.21494 13.3352 8.26996 13.2253C8.70268 12.3605 9.18923 11.3882 9.80765 10.6269ZM10.0543 14.1295C10.0015 14.2347 9.94766 14.3418 9.89263 14.4508C9.49527 15.2376 9.08643 15.8984 8.76089 16.4245C8.65915 16.589 8.56547 16.7403 8.4829 16.8782C8.09835 17.5203 8 17.8044 8 17.9964C8 18.3037 8.06949 18.4642 8.12553 18.5499C8.1831 18.6379 8.27381 18.719 8.42692 18.7909C8.77468 18.9543 9.26998 18.9951 9.79299 18.9994L9.79551 18.9994L10 19H10.0013C10.3602 18.9999 10.6267 18.9538 11.0159 18.8864L11.1435 18.8644C11.6112 18.7842 12.1722 18.7 13 18.7C13.8277 18.7 14.3887 18.7842 14.8564 18.8644L14.9841 18.8864C15.3738 18.9538 15.6404 19 16 19L16.0395 19C16.5871 19.0001 17.1102 19.0002 17.5146 18.844C17.6935 18.7749 17.7948 18.6929 17.8572 18.6053C17.9172 18.5211 17.9999 18.35 18 17.9962C18 17.7632 17.8949 17.4687 17.5198 16.8497C17.4358 16.711 17.3395 16.5579 17.2343 16.3907C16.9107 15.8763 16.5028 15.2278 16.1088 14.4535C16.0463 14.3308 15.9854 14.2104 15.9258 14.0923C15.4813 13.2129 15.1038 12.4659 14.6392 11.8926C14.153 11.2926 13.6636 11 13 11C12.3339 11 11.8446 11.2915 11.36 11.888C10.8894 12.4672 10.507 13.2284 10.0543 14.1295Z" fill="white"/>
<path fill-rule="evenodd" clip-rule="evenodd" d="M11.9073 3.60249C11.7154 2.56354 11.2433 1.63229 10.5871 0.973462C9.93535 0.319221 9.01835 -0.134838 8.00614 0.0355358C6.98851 0.206822 6.27836 0.940948 5.89454 1.7812C5.50957 2.62398 5.40079 3.65904 5.59261 4.69759C5.78451 5.73654 6.25655 6.66779 6.91283 7.32661C7.56454 7.98085 8.48154 8.43491 9.49375 8.26454C10.5114 8.09325 11.2215 7.35912 11.6053 6.51888C11.9903 5.67609 12.0991 4.64103 11.9073 3.60249ZM8.33811 2.00779C8.52655 1.97607 8.82588 2.03937 9.17012 2.38494C9.50979 2.72592 9.81332 3.27695 9.94055 3.96575C10.0678 4.65496 9.97887 5.26599 9.78616 5.68789C9.59228 6.11233 9.3448 6.26147 9.16178 6.29228C8.97334 6.324 8.67401 6.26071 8.32977 5.91514C7.99011 5.57415 7.68657 5.02313 7.55935 4.33432C7.43205 3.64512 7.52102 3.03408 7.71374 2.61218C7.90761 2.18774 8.15509 2.0386 8.33811 2.00779Z" fill="white"/>
<path fill-rule="evenodd" clip-rule="evenodd" d="M4.63493 7.4409C5.39043 7.86923 6.05146 8.57905 6.48785 9.45135C6.92363 10.3224 7.09143 11.2688 6.9522 12.1179C6.81254 12.9696 6.33799 13.8036 5.43808 14.1948C4.55489 14.5787 3.61197 14.3827 2.86497 13.9592C2.10947 13.5309 1.44843 12.8211 1.01204 11.9488C0.576265 11.0777 0.408467 10.1313 0.547696 9.28222C0.687356 8.43051 1.16191 7.59649 2.06181 7.20535C2.945 6.82147 3.88793 7.01739 4.63493 7.4409ZM3.64853 9.18074C3.26158 8.96135 2.99405 8.98091 2.85905 9.03958C2.74078 9.09099 2.58221 9.23463 2.52134 9.60585C2.46003 9.9797 2.52429 10.5015 2.8007 11.054C3.07648 11.6052 3.4729 12.0048 3.85136 12.2194C4.23831 12.4388 4.50585 12.4192 4.64084 12.3605C4.75911 12.3091 4.91768 12.1655 4.97856 11.7943C5.03986 11.4204 4.9756 10.8987 4.6992 10.3462C4.42341 9.7949 4.02699 9.3953 3.64853 9.18074Z" fill="white"/>
<path fill-rule="evenodd" clip-rule="evenodd" d="M23.9744 7.23539C23.0561 6.7919 22.0771 7.02541 21.3253 7.49905C20.567 7.97671 19.9184 8.75775 19.4946 9.69899C19.0705 10.641 18.9137 11.6493 19.0453 12.5415C19.1749 13.4197 19.6173 14.3257 20.5256 14.7644C21.444 15.2079 22.4229 14.9744 23.1748 14.5007C23.9331 14.0231 24.5817 13.242 25.0055 12.3008C25.4296 11.3588 25.5864 10.3505 25.4548 9.45829C25.3251 8.58005 24.8828 7.67405 23.9744 7.23539ZM21.3183 10.5201C21.6067 9.87959 22.0156 9.42794 22.3913 9.19128C22.7733 8.95059 23.0048 8.98814 23.1047 9.03637C23.2145 9.08942 23.4053 9.26973 23.4762 9.75029C23.5451 10.2169 23.4698 10.8399 23.1818 11.4797C22.8934 12.1202 22.4845 12.5718 22.1088 12.8085C21.7267 13.0492 21.4953 13.0116 21.3954 12.9634C21.2855 12.9103 21.0948 12.73 21.0239 12.2495C20.955 11.7828 21.0303 11.1598 21.3183 10.5201Z" fill="white"/>
</svg>
