<?xml version="1.0" encoding="UTF-8"?><svg id="a" xmlns="http://www.w3.org/2000/svg" viewBox="0 0 90.08 75.44"><defs><style>.b{fill:#323232;}</style></defs><ellipse class="b" cx="11.3" cy="38.49" rx="10.66" ry="13.38" transform="translate(-16.55 9.62) rotate(-27.61)"/><ellipse class="b" cx="30.38" cy="14.74" rx="11.78" ry="14.78" transform="translate(-1.6 3.89) rotate(-7.14)"/><ellipse class="b" cx="78.77" cy="38.49" rx="13.38" ry="10.66" transform="translate(8.15 90.45) rotate(-62.39)"/><ellipse class="b" cx="59.7" cy="14.74" rx="14.78" ry="11.78" transform="translate(37.65 72.15) rotate(-82.86)"/><path class="b" d="M69.09,62.41c.05,.46,.09,.92,.09,1.39,0-.47-.04-.93-.09-1.39Z"/><path class="b" d="M68.36,59.51c.15,.38,.28,.77,.39,1.16-.11-.4-.24-.79-.39-1.16Z"/><path class="b" d="M68.32,59.42c-.18-.44-.39-.87-.62-1.28h0c.23,.41,.44,.84,.62,1.28Z"/><path class="b" d="M68.84,61.02c.08,.33,.15,.67,.2,1.02-.05-.34-.12-.68-.2-1.02Z"/><path class="b" d="M64.06,73.45c-.62,.42-1.28,.78-1.98,1.07,.7-.29,1.36-.65,1.98-1.07Z"/><path class="b" d="M20.96,62.04c.05-.34,.12-.68,.2-1.01-.08,.33-.15,.67-.2,1.01Z"/><path class="b" d="M21.25,60.68c.11-.4,.24-.79,.39-1.16-.15,.38-.28,.77-.39,1.16Z"/><path class="b" d="M21.68,59.42c.18-.44,.39-.87,.62-1.28-.23,.41-.44,.84-.62,1.28Z"/><path class="b" d="M20.81,63.8c0-.47,.04-.93,.09-1.39-.05,.46-.09,.92-.09,1.39Z"/><path class="b" d="M43.84,32.27c.32-.03,.65-.05,.98-.05-.33,0-.65,.02-.98,.05Z"/><path class="b" d="M45.04,32.21h-.04c.06,0,.13,0,.19,0-.05,0-.1,0-.15,0Z"/><path class="b" d="M46.16,32.27c.21,.02,.42,.04,.62,.06-.21-.03-.41-.05-.62-.06Z"/><path class="b" d="M21.16,61.02c.03-.12,.06-.23,.09-.34-.03,.11-.06,.23-.09,.34Z"/><path class="b" d="M21.34,67.26c-.23-.73-.38-1.49-.46-2.27,.08,.78,.24,1.54,.46,2.27Z"/><path class="b" d="M20.9,62.41c.02-.13,.04-.25,.06-.38-.02,.13-.04,.25-.06,.38Z"/><path class="b" d="M21.64,59.51s.02-.06,.03-.09c-.01,.03-.02,.06-.03,.09Z"/><path class="b" d="M42.91,32.38c.1-.01,.2-.03,.3-.05-.1,.01-.2,.03-.3,.05Z"/><path class="b" d="M46.79,32.33c.1,.01,.2,.03,.3,.05-.1-.02-.2-.03-.3-.05Z"/><path class="b" d="M43.21,32.33c.21-.03,.41-.05,.62-.06-.21,.02-.42,.04-.62,.06Z"/><path class="b" d="M68.75,60.68c.03,.11,.06,.23,.09,.34-.03-.12-.06-.23-.09-.34Z"/><path class="b" d="M45.19,32.22c.33,0,.65,.02,.98,.05-.32-.03-.65-.04-.98-.05Z"/><path class="b" d="M68.32,59.42s.02,.06,.03,.09c-.01-.03-.02-.06-.03-.09Z"/><path class="b" d="M44.96,32.21c-.05,0-.1,0-.15,0,.06,0,.13,0,.19,0h-.04Z"/><path class="b" d="M69.04,62.04c.02,.13,.04,.25,.06,.38-.02-.13-.04-.25-.06-.38Z"/><path class="b" d="M69.09,62.41c-.02-.13-.04-.25-.06-.38-.05-.34-.12-.68-.2-1.02-.03-.11-.06-.23-.09-.34-.11-.4-.24-.79-.39-1.16-.01-.03-.02-.06-.03-.09-.18-.44-.39-.87-.62-1.28h.02l-9.8-17.52c-1.92-4.35-5.97-7.53-10.84-8.24-.1-.01-.2-.03-.3-.05-.21-.03-.41-.05-.62-.06-.32-.03-.65-.05-.98-.05-.06,0-.13,0-.19,0-.06,0-.13,0-.19,0-.33,0-.65,.02-.98,.05-.21,.02-.42,.04-.62,.06-.1,.01-.2,.03-.3,.05-4.86,.71-8.92,3.89-10.84,8.24l-9.8,17.51h.02c-.23,.42-.44,.85-.62,1.29-.01,.03-.02,.06-.03,.09-.15,.38-.28,.77-.39,1.16-.03,.11-.06,.23-.09,.34-.08,.33-.15,.67-.2,1.01-.02,.13-.04,.25-.06,.38-.05,.46-.09,.92-.09,1.39,0,.4,.02,.8,.06,1.19,.08,.78,.24,1.54,.46,2.27,.11,.36,.24,.72,.39,1.07,.59,1.39,1.44,2.64,2.49,3.7,.79,.79,1.69,1.47,2.68,2,.66,.36,1.36,.65,2.09,.88,.73,.23,1.49,.38,2.27,.46,.39,.04,.79,.06,1.19,.06,.83,0,1.64-.09,2.42-.26,1.3-.28,2.52-.78,3.62-1.45,.15-.1,.31-.19,.47-.29,1.76-1.08,3.83-1.71,6.04-1.71s4.25,.62,6.01,1.69c.18,.11,.36,.21,.53,.33,1.09,.66,2.3,1.16,3.59,1.43,.78,.17,1.59,.26,2.42,.26s1.59-.08,2.34-.24c.76-.15,1.49-.38,2.18-.68,.7-.29,1.36-.65,1.98-1.07,3.09-2.09,5.13-5.63,5.13-9.64,0-.47-.04-.93-.09-1.39Z"/></svg>