<?xml version="1.0" encoding="utf-8"?>
<!-- Generator: Adobe Illustrator 26.1.0, SVG Export Plug-In . SVG Version: 6.00 Build 0)  -->
<svg version="1.1" id="Layer_1" xmlns="http://www.w3.org/2000/svg" xmlns:xlink="http://www.w3.org/1999/xlink" x="0px" y="0px"
	 viewBox="0 0 28 28" style="enable-background:new 0 0 28 28;" xml:space="preserve">
<style type="text/css">
	.st0{fill:none;stroke:#000000;stroke-width:2.3;stroke-linecap:round;stroke-linejoin:round;}
</style>
<path class="st0" d="M20.46,15.35c-1.47,4.31-5.79,7.47-10.95,7.65c0.72-1.05,1.14-2.3,1.14-3.63c0-0.08,0-0.16,0-0.24
	c-1.69-0.61-3.09-1.77-3.92-3.24c1.01,0.56,2.17,0.92,3.42,0.99c0.17,0.01,0.34,0.02,0.51,0.02c0.05,0,0.09,0,0.14,0
	c-0.24-0.05-0.48-0.11-0.72-0.18c-1.72-0.51-3.17-1.57-4.1-2.96c-0.2-0.3-0.37-0.61-0.52-0.93C5.25,12.39,5.1,11.91,5,11.42
	c0.28,0.27,0.59,0.52,0.92,0.75c0.76,0.52,1.63,0.91,2.57,1.14c-0.97-0.81-1.7-1.85-2.1-3.02c-0.17-0.49-0.27-1-0.32-1.53
	C6.06,8.59,6.05,8.42,6.05,8.25C6.05,7.82,6.09,7.4,6.17,7c0.21,0.35,0.45,0.69,0.72,1.01c0.17,0.2,0.35,0.39,0.54,0.56
	c1.04,0.97,2.39,1.65,3.9,1.92c0.47,0.08,0.96,0.13,1.45,0.13c0.51,0,1-0.05,1.48-0.13c0.36-1.68,1.84-2.99,3.69-3.28
	c0.25-0.04,0.51-0.06,0.77-0.06c0.35,0,0.7,0.04,1.03,0.11c0.79,1.46,1.24,3.1,1.24,4.84c0,0.09,0,0.17,0,0.26
	C21,12.35,21,14.05,20.46,15.35z"/>
</svg>
