<?xml version="1.0" encoding="utf-8"?>
<!-- Generator: Adobe Illustrator 26.1.0, SVG Export Plug-In . SVG Version: 6.00 Build 0)  -->
<svg version="1.1" id="Layer_1" xmlns="http://www.w3.org/2000/svg" xmlns:xlink="http://www.w3.org/1999/xlink" x="0px" y="0px"
	 viewBox="0 0 28 28" style="enable-background:new 0 0 28 28;" xml:space="preserve">
<style type="text/css">
	.st0{fill:none;stroke:#000000;stroke-width:2.3;stroke-linecap:round;stroke-linejoin:round;}
</style>
<path class="st0" d="M21.93,13.63c0.02,0.02,0.04,0.04,0.06,0.06h0C22,13.81,22,13.93,22,14.06c0,1.01-0.18,1.97-0.52,2.87
	c-0.07,0.19-0.15,0.38-0.23,0.56c-0.3,0.65-0.69,1.26-1.15,1.81c-1.05,1.25-2.47,2.17-4.09,2.6C11,23,7.02,18.33,6.31,16.28
	C6.11,15.57,6,14.83,6,14.06c0-2.26,0.91-4.3,2.39-5.76c0.02-0.02,0.05-0.05,0.07-0.07C8.47,8.21,8.49,8.19,8.5,8.18
	C8.8,7.9,9.12,7.51,9.44,7.26C10.99,6.04,10.9,6,12.11,5.47c0.06-0.02,0.23,0.02,0.29,0c0.05-0.01,0.18,0.08,0.23,0.07l-0.01,0.01
	c-0.01,0.01-0.01,0.02-0.02,0.03c-0.13,0.22-0.09,0.86-0.18,1.1c-0.05,0.14,0.05,0.33,0.01,0.48c-0.11,0.38-0.18,0.78-0.19,1.19
	h0.01c0.44-0.45,0.94-0.84,1.48-1.17c1.07-0.66,2.3-1.07,3.62-1.16c0.04,0,0.08-0.01,0.12-0.01c0.01,0,0.02,0,0.03,0l0,0l-0.04,0.08
	c-0.21,0.46-0.39,0.95-0.51,1.46c-0.04,0.16-0.07,0.32-0.1,0.48c-0.02,0.18-0.03,0.36-0.03,0.54c0,0.44,0.06,0.86,0.16,1.26
	c0.06,0.22,0.12,0.43,0.21,0.63c0.15,0.38,0.35,0.74,0.59,1.07c0.32,0.44,0.7,0.83,1.14,1.15c0.2,0.14,0.4,0.27,0.62,0.38
	c0.16,0.08,0.33,0.16,0.5,0.22c0.09,0.04,0.18,0.07,0.28,0.1c0.48,0.15,0.99,0.24,1.52,0.24C21.85,13.63,21.89,13.63,21.93,13.63z"
	/>
</svg>
