<?xml version="1.0" encoding="utf-8"?>
<!-- Generator: Adobe Illustrator 26.1.0, SVG Export Plug-In . SVG Version: 6.00 Build 0)  -->
<svg version="1.1" id="Layer_1" xmlns="http://www.w3.org/2000/svg" xmlns:xlink="http://www.w3.org/1999/xlink" x="0px" y="0px"
	 viewBox="0 0 28 28" style="enable-background:new 0 0 28 28;" xml:space="preserve">
<style type="text/css">
	.st0{stroke:#000000;stroke-width:2.3;stroke-linecap:round;stroke-linejoin:round;}
	.st1{fill:none;stroke:#000000;stroke-width:0.3933;stroke-linecap:round;stroke-linejoin:round;}
	.st2{fill:none;stroke:#000000;stroke-width:2.3;stroke-linecap:round;stroke-linejoin:round;}
</style>
<path class="st0" d="M21.71,11.75c1.57,0,2.84-1.27,2.84-2.84c0-0.13-0.01-0.26-0.03-0.38l-5.47,1.39
	C19.46,10.99,20.49,11.75,21.71,11.75L21.71,11.75z"/>
<path class="st1" d="M13.17,21.09c0.03,0,0.05,0,0.08,0c1.07,0,2.11-0.15,3.09-0.43c0.41-0.12,0.81-0.25,1.19-0.41
	c0.94-0.38,1.81-0.89,2.61-1.49c0.79-0.61,1.5-1.32,2.11-2.11C20.13,19.33,16.85,21.06,13.17,21.09L13.17,21.09z"/>
<path class="st2" d="M24.52,8.53l0.02-0.01c0.04,0.4,0.06,0.8,0.06,1.21c0,2-0.52,3.89-1.43,5.52c-0.27,0.49-0.58,0.96-0.92,1.4
	c-2.13,2.68-5.4,4.41-9.09,4.44c-0.03,0-0.06,0-0.09,0c-2.54,0-4.89-0.81-6.81-2.19c-0.78-0.76-2.04-3-0.81-5.83
	c0.56-0.72,0.89-1.63,0.89-2.61c0-0.59-0.12-1.15-0.33-1.66C5.88,8.48,5.7,8.18,5.5,7.91C5.26,7.59,4.97,7.3,4.66,7.06
	C4.89,7.02,5.14,7,5.39,7c0.07,0,0.13,0,0.2,0.01c0.75,0.04,1.45,0.27,2.05,0.64c0.72,0.45,1.29,1.1,1.64,1.88
	c0.24,0.53,0.37,1.12,0.37,1.74c0,0.37-0.05,0.73-0.14,1.08l0,0l3.81-0.97l5.73-1.46c0.41,1.07,1.44,1.83,2.66,1.83
	c1.57,0,2.84-1.27,2.84-2.84C24.55,8.78,24.54,8.65,24.52,8.53z"/>
</svg>
