<?xml version="1.0" encoding="utf-8"?>
<!-- Generator: Adobe Illustrator 26.1.0, SVG Export Plug-In . SVG Version: 6.00 Build 0)  -->
<svg version="1.1" id="Layer_1" xmlns="http://www.w3.org/2000/svg" xmlns:xlink="http://www.w3.org/1999/xlink" x="0px" y="0px"
	 viewBox="0 0 28 28" style="enable-background:new 0 0 28 28;" xml:space="preserve">
<style type="text/css">
	.st0{fill:none;stroke:#000000;stroke-width:2.3;stroke-linecap:round;stroke-linejoin:round;}
</style>
<path class="st0" d="M7.94,13.74c-0.16-0.22-0.31-0.44-0.45-0.68c-0.82-1.34-1.34-2.88-1.46-4.52C6.01,8.36,6,8.18,6,8
	c-1.26,1.69-2,3.76-2,6c0,1.59,0.37,3.1,1.04,4.45c0.02,0.04,0.04,0.08,0.06,0.12c0.26,0.5,0.55,0.98,0.89,1.42
	c0-0.11-0.01-0.22-0.01-0.33c0-0.06,0-0.11,0-0.17c0.03-1.62,0.44-3.14,1.15-4.49C7.37,14.57,7.64,14.14,7.94,13.74z M7.94,13.74
	c1.9,2.61,5.03,4.31,8.56,4.31c1.61,0,3.13-0.35,4.5-0.98c1.6-0.74,2.98-1.86,4.01-3.24c0-0.05,0-0.1,0-0.15
	c-1.06-1.43-2.5-2.58-4.17-3.32c-1.32-0.59-2.79-0.91-4.34-0.91C12.96,9.44,9.84,11.14,7.94,13.74z"/>
</svg>
