<?xml version="1.0" encoding="utf-8"?>
<!-- Generator: Adobe Illustrator 26.1.0, SVG Export Plug-In . SVG Version: 6.00 Build 0)  -->
<svg version="1.1" id="Layer_1" xmlns="http://www.w3.org/2000/svg" xmlns:xlink="http://www.w3.org/1999/xlink" x="0px" y="0px"
	 viewBox="0 0 28 28" style="enable-background:new 0 0 28 28;" xml:space="preserve">
<style type="text/css">
	.st0{fill:none;stroke:#000000;stroke-width:2.3;stroke-linecap:round;stroke-linejoin:round;}
</style>
<path class="st0" d="M23.71,20.77l-6.06-5.83l-1.27-1.22v-1.04l0.43-8.91L16.85,3c-0.59,0.1-1.16,0.3-1.7,0.58
	c-0.28,0.14-0.54,0.31-0.8,0.5c-0.12,0.09-0.23,0.18-0.34,0.27c-1.49,1.27-2.18,3.11-2.04,4.91l-0.29-0.27L9.45,6.88L7.83,5.36
	C7.39,6.09,7.11,6.92,7.03,7.81C7.01,7.99,7,8.18,7,8.36C7,9,7.1,9.62,7.3,10.2c0.35,1.05,0.99,1.96,1.82,2.66
	c0.54,0.45,1.16,0.81,1.84,1.05c-0.73,1.72-1.9,3.2-3.37,4.33C9.24,21.65,12.76,24,16.84,24c0.88,0,1.72-0.11,2.54-0.31
	c0.45-0.13,0.89-0.28,1.31-0.46c0.69-0.29,1.34-0.65,1.95-1.07c0.48-0.33,0.94-0.7,1.36-1.11L23.71,20.77L23.71,20.77z"/>
</svg>
