<?xml version="1.0" encoding="utf-8"?>
<!-- Generator: Adobe Illustrator 26.1.0, SVG Export Plug-In . SVG Version: 6.00 Build 0)  -->
<svg version="1.1" id="a" xmlns="http://www.w3.org/2000/svg" xmlns:xlink="http://www.w3.org/1999/xlink" x="0px" y="0px"
	 viewBox="0 0 95 95" style="enable-background:new 0 0 95 95;" xml:space="preserve">
<style type="text/css">
	.st0{fill:#C4C4C4;}
	.st1{fill:#D9D9D9;}
	.st2{fill:#FFFFFF;}
</style>
<polygon class="st0" points="45.92,54.84 23.29,41.77 23.29,67.91 23.29,94.04 45.92,80.98 68.56,94.04 68.56,67.91 68.56,41.77 "/>
<circle class="st1" cx="45.08" cy="41.77" r="33"/>
<path class="st2" d="M45.07,62.74c-1.15,0-2.31,0.03-3.46-0.01c-1.59-0.05-3.29-1.16-3.72-3.34c-0.2-1.02-0.44-2.03-0.62-3.06
	c-0.12-0.68-0.38-1.27-0.86-1.76c-1-1.01-1.99-2.01-2.99-3.01c-1.37-1.35-2.59-2.82-3.45-4.56c-1.03-2.11-1.46-4.36-1.38-6.69
	c0.2-5.9,2.84-10.37,7.94-13.35c2.01-1.18,4.21-1.83,6.52-2.07c3.61-0.39,7.07,0.16,10.27,1.91c4.53,2.47,7.26,6.28,8.06,11.4
	c0.4,2.52,0.21,5-0.63,7.42c-0.64,1.84-1.67,3.44-2.99,4.85c-1.11,1.18-2.29,2.3-3.43,3.45c-0.32,0.32-0.61,0.68-0.91,1.03
	c-0.34,0.4-0.44,0.89-0.54,1.38c-0.2,1.01-0.4,2.02-0.63,3.02c-0.5,2.2-1.96,3.38-4.22,3.41c-0.99,0.02-1.98,0-2.97,0
	C45.07,62.76,45.07,62.75,45.07,62.74z M46.69,53.27c1.31,0,2.58,0,3.85-0.01c0.09,0,0.2-0.09,0.26-0.17
	c0.28-0.32,0.53-0.67,0.83-0.97c1.15-1.16,2.32-2.3,3.46-3.47c0.98-1,1.8-2.13,2.36-3.42c0.89-2.07,1.07-4.23,0.75-6.43
	c-0.65-4.41-3.03-7.58-7.02-9.51c-2.9-1.4-5.97-1.66-9.1-1.03c-2.93,0.59-5.41,1.98-7.36,4.27c-1.75,2.06-2.68,4.46-2.86,7.14
	c-0.14,1.98,0.09,3.91,0.92,5.73c0.75,1.64,1.93,2.95,3.2,4.19c1.15,1.12,2.36,2.2,3.35,3.48c0.11,0.15,0.23,0.21,0.41,0.2
	c1.16-0.01,2.31,0,3.47,0c0.08,0,0.16-0.01,0.26-0.02c0-1.22,0-2.43-0.01-3.64c0-0.09-0.09-0.21-0.16-0.28
	c-0.84-0.83-1.69-1.66-2.54-2.49c-0.66-0.64-0.7-1.61-0.1-2.24c0.64-0.66,1.66-0.69,2.33-0.05c0.48,0.46,0.96,0.92,1.43,1.4
	c0.22,0.22,0.4,0.47,0.61,0.71c0.78-0.76,1.47-1.44,2.16-2.11c0.66-0.64,1.68-0.61,2.32,0.05c0.61,0.63,0.57,1.59-0.09,2.24
	c-0.85,0.83-1.7,1.66-2.54,2.49c-0.08,0.07-0.16,0.18-0.16,0.28C46.69,50.82,46.69,52.03,46.69,53.27z M40.57,56.46
	c0.19,0.85,0.35,1.66,0.54,2.47c0.11,0.48,0.34,0.65,0.85,0.66c0.85,0.01,1.71,0.02,2.56,0.02c1.23,0,2.46-0.01,3.68-0.02
	c0.35,0,0.67-0.13,0.76-0.48c0.23-0.87,0.4-1.75,0.61-2.65C46.56,56.46,43.6,56.46,40.57,56.46z"/>
</svg>
