<?xml version="1.0" encoding="utf-8"?>
<!-- Generator: Adobe Illustrator 26.1.0, SVG Export Plug-In . SVG Version: 6.00 Build 0)  -->
<svg version="1.1" id="a" xmlns="http://www.w3.org/2000/svg" xmlns:xlink="http://www.w3.org/1999/xlink" x="0px" y="0px"
	 viewBox="0 0 95 95" style="enable-background:new 0 0 95 95;" xml:space="preserve">
<style type="text/css">
	.st0{fill:#C4C4C4;}
	.st1{fill:#D9D9D9;}
	.st2{fill:#FFFFFF;}
</style>
<polygon class="st0" points="45.92,54.84 23.29,41.77 23.29,67.91 23.29,94.04 45.92,80.98 68.56,94.04 68.56,67.91 68.56,41.77 "/>
<circle class="st1" cx="45.08" cy="41.77" r="33"/>
<g>
	<path class="st2" d="M53.3,24.77c1.57,0.01,2.7,0.55,3.65,1.46c1.3,1.26,2.58,2.54,3.83,3.85c0.92,0.98,1.37,2.18,1.29,3.53
		c-0.07,1.24-0.61,2.29-1.46,3.16c-1.27,1.29-2.52,2.61-3.86,3.82c-1.96,1.75-4.46,1.78-6.43,0.02c-1.5-1.34-2.94-2.77-4.26-4.3
		c-1.59-1.85-1.54-4.3,0.11-6.12c1.35-1.51,2.83-2.9,4.31-4.29C51.3,25.12,52.37,24.78,53.3,24.77z M47.93,33.29
		c0,0.58,0.25,1.02,0.61,1.4c0.63,0.66,1.28,1.31,1.93,1.96c0.63,0.62,1.25,1.26,1.92,1.83c0.67,0.58,1.47,0.56,2.18,0.04
		c0.14-0.1,0.28-0.21,0.41-0.34c1.15-1.15,2.31-2.28,3.43-3.45c0.9-0.95,0.91-1.82,0.01-2.78c-1.16-1.22-2.36-2.41-3.58-3.57
		c-0.91-0.86-1.78-0.84-2.71,0.02c-0.7,0.65-1.37,1.34-2.05,2.01c-0.57,0.58-1.14,1.16-1.69,1.75
		C48.09,32.48,47.94,32.88,47.93,33.29z"/>
	<path class="st2" d="M28.1,33.32c0-1.01-0.05-2.02,0.01-3.03c0.13-1.99,1.44-3.63,3.32-4.17c0.62-0.18,1.29-0.26,1.94-0.27
		c1.65-0.02,3.31-0.03,4.97,0.04c2.66,0.12,4.54,1.99,4.64,4.66c0.07,1.84,0.07,3.68,0,5.52c-0.1,2.69-2,4.58-4.69,4.68
		c-1.84,0.07-3.69,0.07-5.53,0c-2.63-0.1-4.48-1.92-4.66-4.54C28.04,35.25,28.09,34.28,28.1,33.32C28.1,33.32,28.1,33.32,28.1,33.32
		z M40,33.33c0.01,0,0.02,0,0.03,0c0-0.45,0-0.89,0-1.34c-0.01-0.45-0.01-0.89-0.03-1.34c-0.06-1.03-0.69-1.72-1.71-1.75
		c-1.84-0.04-3.68-0.04-5.52,0c-0.93,0.02-1.61,0.65-1.63,1.57c-0.06,1.89-0.02,3.78-0.02,5.68c0,0.05,0.01,0.1,0.02,0.15
		c0.15,0.74,0.57,1.26,1.33,1.4c0.5,0.09,1.01,0.1,1.52,0.1c1.41,0,2.81,0.03,4.22-0.04c1.17-0.05,1.78-0.72,1.81-1.88
		C40.02,35.04,40,34.18,40,33.33z"/>
	<path class="st2" d="M61.04,51.28c-0.05,1.11-0.04,2.23-0.16,3.33c-0.25,2.22-2.03,3.96-4.27,4.06c-2.07,0.1-4.14,0.1-6.21,0
		c-2.33-0.11-4.14-1.9-4.29-4.3c-0.13-2.11-0.11-4.25,0.02-6.36c0.14-2.18,1.93-3.91,4.11-4.11c1.19-0.11,2.39-0.09,3.59-0.09
		c0.96,0,1.92-0.01,2.87,0.09c2.39,0.24,4.12,2.09,4.24,4.48c0.05,0.96,0.01,1.93,0.01,2.9C60.97,51.28,61.01,51.28,61.04,51.28z
		 M53.53,46.83c-0.91,0-1.81-0.03-2.72,0.01c-1.02,0.04-1.71,0.67-1.74,1.68c-0.05,1.86-0.04,3.72,0,5.58
		c0.02,0.89,0.65,1.52,1.54,1.6c0.71,0.07,1.43,0.07,2.15,0.07c1.2,0,2.4,0.01,3.59-0.07c0.93-0.06,1.55-0.7,1.57-1.64
		c0.04-1.84,0.05-3.68,0-5.52c-0.03-1.03-0.72-1.67-1.75-1.71C55.3,46.8,54.41,46.83,53.53,46.83z"/>
	<path class="st2" d="M28.09,51.25c0-0.92-0.04-1.83,0.01-2.75c0.15-2.72,2.05-4.59,4.77-4.67c1.78-0.05,3.56-0.04,5.34,0
		c1.49,0.04,2.78,0.59,3.73,1.78c0.69,0.86,1.03,1.86,1.05,2.95c0.03,1.81,0.05,3.62,0,5.43c-0.07,2.37-1.53,4.12-3.76,4.6
		c-0.58,0.12-1.18,0.15-1.77,0.17c-1.28,0.02-2.56,0.02-3.84,0c-0.99-0.01-1.98-0.09-2.89-0.55c-1.59-0.81-2.46-2.13-2.61-3.88
		c-0.09-1.02-0.02-2.06-0.02-3.09C28.1,51.25,28.09,51.25,28.09,51.25z M35.53,46.82c-0.87,0-1.75-0.03-2.62,0.01
		c-1.1,0.04-1.74,0.65-1.82,1.75c-0.05,0.71-0.04,1.43-0.03,2.15c0.01,1.13-0.01,2.27,0.06,3.4c0.05,0.89,0.66,1.51,1.54,1.57
		c1.1,0.07,2.2,0.06,3.31,0.07c0.76,0.01,1.52,0.03,2.28-0.04C39.4,55.62,39.98,55,40,53.85c0.03-1.73,0.03-3.45,0-5.18
		c-0.02-1.12-0.7-1.79-1.83-1.84C37.28,46.8,36.41,46.82,35.53,46.82z"/>
</g>
</svg>
