<?xml version="1.0" encoding="utf-8"?>
<!-- Generator: Adobe Illustrator 26.1.0, SVG Export Plug-In . SVG Version: 6.00 Build 0)  -->
<svg version="1.1" id="a" xmlns="http://www.w3.org/2000/svg" xmlns:xlink="http://www.w3.org/1999/xlink" x="0px" y="0px"
	 viewBox="0 0 95 95" style="enable-background:new 0 0 95 95;" xml:space="preserve">
<style type="text/css">
	.st0{fill:#C4C4C4;}
	.st1{fill:#D9D9D9;}
	.st2{fill:#FFFFFF;}
</style>
<polygon class="st0" points="45.92,54.84 23.29,41.77 23.29,67.91 23.29,94.04 45.92,80.98 68.56,94.04 68.56,67.91 68.56,41.77 "/>
<circle class="st1" cx="45.08" cy="41.77" r="33"/>
<g>
	<path class="st2" d="M45.1,23.77c9.85,0.01,17.89,7.92,17.98,17.83c0.09,10.04-7.94,18.1-17.81,18.17
		c-10.08,0.07-18.18-7.98-18.19-17.96S35.11,23.79,45.1,23.77z M30.09,41.75c-0.04,8.22,6.66,15.11,15.15,15.02
		c8.18-0.08,14.9-6.76,14.84-15.12c-0.06-8.25-6.77-14.86-14.93-14.87C36.82,26.76,30.1,33.43,30.09,41.75z"/>
	<path class="st2" d="M42.05,45.69c0.71-0.72,1.37-1.37,2.02-2.03c2.47-2.47,4.93-4.93,7.4-7.4c0.64-0.64,1.57-0.66,2.17-0.05
		c0.62,0.62,0.6,1.53-0.04,2.17c-3.44,3.45-6.89,6.89-10.33,10.34c-0.75,0.75-1.61,0.75-2.36,0.01c-1.7-1.7-3.4-3.4-5.1-5.1
		c-0.49-0.49-0.61-1.12-0.35-1.72c0.23-0.54,0.82-0.9,1.43-0.88c0.41,0.02,0.76,0.19,1.05,0.48c1.29,1.29,2.58,2.58,3.86,3.87
		C41.89,45.46,41.95,45.56,42.05,45.69z"/>
</g>
</svg>
