<?xml version="1.0" encoding="utf-8"?>
<!-- Generator: Adobe Illustrator 26.1.0, SVG Export Plug-In . SVG Version: 6.00 Build 0)  -->
<svg version="1.1" id="a" xmlns="http://www.w3.org/2000/svg" xmlns:xlink="http://www.w3.org/1999/xlink" x="0px" y="0px"
	 viewBox="0 0 40 40" style="enable-background:new 0 0 40 40;" xml:space="preserve">
<style type="text/css">
	.st0{fill:none;stroke:#000000;stroke-width:1.5;stroke-miterlimit:10;}
</style>
<g>
	<path class="st0" d="M23.59,16.26c0.71,0.64,0.71,1.77,0.11,2.52c-0.03,0.03-0.05,0.06-0.08,0.09c-6.32,6.35-12.66,12.69-19,19.02
		c-0.75,0.75-1.86,0.75-2.56,0.04c-0.74-0.75-0.73-1.8,0.05-2.59c4.32-4.33,8.65-8.65,12.98-12.98c2.01-2.01,4.02-4.02,6.03-6.03
		c0.57-0.57,1.24-0.66,1.97-0.38C23.28,16.02,23.45,16.13,23.59,16.26z"/>
	<path class="st0" d="M38.25,1.73c0.21,0.21,0.26,0.46,0.12,0.75c-0.31,0.63-0.6,1.27-0.94,1.88c-0.53,0.95-0.56,1.89-0.03,2.85
		c0.35,0.63,0.65,1.28,0.97,1.92c0.16,0.33,0.13,0.62-0.08,0.83c-0.22,0.21-0.5,0.24-0.83,0.08c-0.7-0.35-1.4-0.7-2.09-1.06
		c-0.81-0.42-1.62-0.41-2.43,0.01c-0.68,0.35-1.37,0.69-2.05,1.03c-0.36,0.18-0.62,0.16-0.85-0.06s-0.26-0.49-0.07-0.87
		c0.36-0.72,0.72-1.44,1.08-2.16c0.38-0.76,0.36-1.52-0.02-2.28C30.69,3.97,30.34,3.28,30,2.59c-0.12-0.24-0.18-0.49-0.02-0.73
		c0.2-0.31,0.52-0.39,0.89-0.21c0.7,0.34,1.4,0.69,2.1,1.05c0.8,0.41,1.59,0.41,2.39,0c0.7-0.36,1.41-0.71,2.12-1.05
		C37.79,1.48,38.03,1.52,38.25,1.73z"/>
	<path class="st0" d="M38.25,19.69c0.21,0.21,0.26,0.46,0.12,0.75c-0.31,0.63-0.6,1.27-0.94,1.88c-0.53,0.95-0.56,1.89-0.03,2.85
		c0.35,0.63,0.65,1.28,0.97,1.92c0.16,0.33,0.13,0.62-0.08,0.83c-0.22,0.21-0.5,0.24-0.83,0.08c-0.7-0.35-1.4-0.7-2.09-1.06
		c-0.81-0.42-1.62-0.41-2.43,0.01c-0.68,0.35-1.37,0.69-2.05,1.03c-0.36,0.18-0.62,0.16-0.85-0.06s-0.26-0.49-0.07-0.87
		c0.36-0.72,0.72-1.44,1.08-2.16c0.38-0.76,0.36-1.52-0.02-2.28c-0.34-0.69-0.69-1.38-1.04-2.08c-0.12-0.24-0.18-0.49-0.02-0.73
		c0.2-0.31,0.52-0.39,0.89-0.21c0.7,0.34,1.4,0.69,2.1,1.05c0.8,0.41,1.59,0.41,2.39,0c0.7-0.36,1.41-0.71,2.12-1.05
		C37.79,19.43,38.03,19.47,38.25,19.69z"/>
	<path class="st0" d="M20.31,1.75c0.21,0.21,0.26,0.46,0.12,0.75c-0.31,0.63-0.6,1.27-0.94,1.88c-0.53,0.95-0.56,1.89-0.03,2.85
		c0.35,0.63,0.65,1.28,0.97,1.92c0.16,0.33,0.13,0.62-0.08,0.83c-0.22,0.21-0.5,0.24-0.83,0.08c-0.7-0.35-1.4-0.7-2.09-1.06
		C16.62,8.58,15.81,8.58,15,9c-0.68,0.35-1.37,0.69-2.05,1.03c-0.36,0.18-0.62,0.16-0.85-0.06c-0.23-0.22-0.26-0.49-0.07-0.87
		c0.36-0.72,0.72-1.44,1.08-2.16c0.38-0.76,0.36-1.52-0.02-2.28c-0.34-0.69-0.69-1.38-1.04-2.08c-0.12-0.24-0.18-0.49-0.02-0.73
		c0.2-0.31,0.52-0.39,0.89-0.21c0.7,0.34,1.4,0.69,2.1,1.05c0.8,0.41,1.59,0.41,2.39,0c0.7-0.36,1.41-0.71,2.12-1.05
		C19.85,1.49,20.09,1.53,20.31,1.75z"/>
</g>
</svg>
