<svg width="17" height="17" viewBox="0 0 17 17" fill="none" xmlns="http://www.w3.org/2000/svg">
<path d="M8.5 5.25C8.5 4.83579 8.16421 4.5 7.75 4.5C7.33579 4.5 7 4.83579 7 5.25V9.25C7 9.54411 7.1719 9.81107 7.43965 9.93278L10.1896 11.1828C10.5667 11.3542 11.0114 11.1874 11.1828 10.8104C11.3542 10.4333 11.1874 9.98863 10.8104 9.81722L8.5 8.76707V5.25Z" fill="#989898"/>
<path fill-rule="evenodd" clip-rule="evenodd" d="M16.5 8.5C16.5 12.9183 12.9183 16.5 8.5 16.5C4.08172 16.5 0.5 12.9183 0.5 8.5C0.5 4.08172 4.08172 0.5 8.5 0.5C12.9183 0.5 16.5 4.08172 16.5 8.5ZM15 8.5C15 12.0899 12.0899 15 8.5 15C4.91015 15 2 12.0899 2 8.5C2 4.91015 4.91015 2 8.5 2C12.0899 2 15 4.91015 15 8.5Z" fill="#989898"/>
</svg>
