<?xml version="1.0" encoding="utf-8"?>
<!-- Generator: Adobe Illustrator 26.1.0, SVG Export Plug-In . SVG Version: 6.00 Build 0)  -->
<svg version="1.1" id="a" xmlns="http://www.w3.org/2000/svg" xmlns:xlink="http://www.w3.org/1999/xlink" x="0px" y="0px"
	 viewBox="0 0 40 40" style="enable-background:new 0 0 40 40;" xml:space="preserve">
<style type="text/css">
	.st0{stroke:#000000;stroke-miterlimit:10;}
</style>
<path class="st0" d="M26,27.8c-2.1-3.4-4.1-6.7-6.2-10.2c-2,3.5-4,6.8-6,10.3c1.3,1,2.4,2.2,2.7,4c0.4,2.4-0.1,4.4-1.8,5.9
	c-1.7,1.5-3.6,1.8-5.6,0.7c-1.9-1-2.9-2.7-3.1-5.1c-0.2-3.2,2.4-6.2,5.7-6c0.3,0,0.8-0.2,1-0.5c2-3.3,3.9-6.6,5.8-9.9
	c0.4-0.6,0.2-1-0.1-1.5c-2.5-4.1-5-8.1-7.4-12.2c-0.1-0.1-0.2-0.3-0.3-0.4c-0.3-0.5-0.7-1.1,0-1.5c0.6-0.4,0.9,0.1,1.2,0.6
	C14,5.3,16,8.6,18.1,12c0.5,0.8,1,1.6,1.5,2.5c0.7-1.1,1.3-2.1,1.9-3.1c1.9-3.2,3.9-6.5,5.8-9.7c0.2-0.3,0.3-0.6,0.5-0.7
	c0.2-0.1,0.7-0.2,0.8,0c0.2,0.1,0.3,0.6,0.2,0.9c-0.1,0.5-0.4,0.9-0.7,1.3c-2.4,4-4.8,8-7.3,12c-0.4,0.6-0.4,1.1,0,1.7
	c2,3.2,4,6.5,5.9,9.7c0.3,0.5,0.6,0.8,1.2,0.6c2.3-0.4,4.6,1.2,5.5,3.5c0.9,2.5,0.2,5.4-1.9,7.1c-1.8,1.5-4.5,1.4-6.3-0.2
	c-1.9-1.7-2.6-4.6-1.5-7c0.2-0.5,0.5-1,0.9-1.5C25.1,28.7,25.5,28.3,26,27.8z M32.6,33c0-2.3-1.6-4.2-3.7-4.3c-2.2,0-3.9,1.8-4,4.2
	c0,2.3,1.7,4.3,3.8,4.3C30.8,37.3,32.5,35.4,32.6,33z M11.3,28.9c-2,0-3.8,1.9-3.9,4.2c-0.1,2.3,1.7,4.4,3.9,4.4
	c2.1,0,3.8-1.9,3.8-4.3C15.2,30.8,13.5,29,11.3,28.9z"/>
</svg>
