<svg width="26" height="22" viewBox="0 0 26 22" fill="none" xmlns="http://www.w3.org/2000/svg">
<path fill-rule="evenodd" clip-rule="evenodd" d="M15.4129 1.47346C16.0647 0.819221 16.9817 0.365162 17.9939 0.535536C19.0115 0.706822 19.7217 1.44095 20.1055 2.2812C20.4904 3.12398 20.5992 4.15904 20.4074 5.19759C20.2155 6.23654 19.7435 7.16779 19.0872 7.82661C18.4355 8.48085 17.5185 8.93491 16.5063 8.76453C15.4886 8.59325 14.7785 7.85912 14.3947 7.01888C14.0097 6.17609 13.9009 5.14103 14.0927 4.10249C14.2846 3.06354 14.7567 2.13229 15.4129 1.47346ZM16.8299 2.88494C16.4902 3.22592 16.1867 3.77694 16.0595 4.46575C15.9322 5.15495 16.0211 5.76599 16.2139 6.18789C16.4077 6.61233 16.6552 6.76147 16.8382 6.79228C17.0267 6.824 17.326 6.76071 17.6702 6.41513C18.0099 6.07415 18.3134 5.52313 18.4407 4.83432C18.568 4.14512 18.479 3.53408 18.2863 3.11218C18.0924 2.68774 17.8449 2.5386 17.6619 2.50779C17.4735 2.47607 17.1741 2.53937 16.8299 2.88494Z" fill="#323232"/>
<path fill-rule="evenodd" clip-rule="evenodd" d="M9.80777 11.1269C10.5458 10.2185 11.5564 9.5 13.0001 9.5C14.4464 9.5 15.4569 10.2248 16.1932 11.1335C16.8038 11.8869 17.2868 12.8466 17.7151 13.6976C17.7749 13.8163 17.8336 13.9329 17.8914 14.0465C18.2402 14.732 18.5763 15.2664 18.8908 15.7666C19.007 15.9514 19.1205 16.1319 19.2304 16.3132C19.6054 16.932 20.0003 17.6531 20.0001 18.4966C20 19.181 19.8327 19.7795 19.4863 20.2657C19.1424 20.7484 18.6812 21.0375 18.2352 21.2097C17.4641 21.5075 16.5863 21.5029 16.111 21.5004C16.0711 21.5002 16.034 21.5 16.0001 21.5C15.4598 21.5 15.0292 21.4247 14.6483 21.3582L14.5186 21.3356C14.1113 21.2658 13.6723 21.2 13.0001 21.2C12.3278 21.2 11.8889 21.2658 11.4816 21.3356L11.3519 21.3582C10.971 21.4247 10.5404 21.5 10.0001 21.5L9.99733 21.5L9.78489 21.4994L9.77973 21.4994C9.25834 21.4952 8.36089 21.4695 7.57676 21.1012C7.16365 20.9071 6.75347 20.6059 6.45171 20.1444C6.14841 19.6805 6.00012 19.1242 6.00012 18.4964C6.00012 17.6848 6.40177 16.9608 6.76722 16.3506C6.87173 16.1761 6.97995 16.0011 7.09129 15.8211C7.40951 15.3065 7.75307 14.751 8.10749 14.0492C8.16092 13.9434 8.21507 13.8352 8.27008 13.7253C8.7028 12.8605 9.18935 11.8882 9.80777 11.1269ZM10.0545 14.6295C10.0016 14.7347 9.94778 14.8418 9.89275 14.9508C9.49539 15.7376 9.08655 16.3984 8.76101 16.9245C8.65927 17.089 8.5656 17.2403 8.48303 17.3782C8.09848 18.0203 8.00012 18.3044 8.00012 18.4964C8.00012 18.8037 8.06962 18.9642 8.12565 19.0499C8.18322 19.1379 8.27393 19.219 8.42705 19.2909C8.7748 19.4543 9.2701 19.4951 9.79311 19.4994L9.79563 19.4994L10.0001 19.5H10.0015C10.3603 19.4999 10.6268 19.4538 11.016 19.3864L11.1437 19.3644C11.6113 19.2842 12.1723 19.2 13.0001 19.2C13.8278 19.2 14.3889 19.2842 14.8565 19.3644L14.9842 19.3864C15.3739 19.4538 15.6406 19.5 16.0001 19.5L16.0396 19.5C16.5872 19.5001 17.1104 19.5002 17.5147 19.344C17.6936 19.2749 17.7949 19.1929 17.8574 19.1053C17.9173 19.0211 18.0001 18.85 18.0001 18.4962C18.0002 18.2632 17.8951 17.9687 17.52 17.3497C17.4359 17.211 17.3396 17.0579 17.2344 16.8907C16.9108 16.3763 16.5029 15.7278 16.1089 14.9535C16.0464 14.8308 15.9856 14.7104 15.9259 14.5923C15.4814 13.7129 15.1039 12.9659 14.6394 12.3926C14.1531 11.7926 13.6637 11.5 13.0001 11.5C12.334 11.5 11.8447 11.7915 11.3601 12.388C10.8896 12.9672 10.5071 13.7284 10.0545 14.6295Z" fill="#323232"/>
<path fill-rule="evenodd" clip-rule="evenodd" d="M11.9074 4.10249C11.7155 3.06354 11.2435 2.13229 10.5872 1.47346C9.93547 0.819221 9.01847 0.365162 8.00626 0.535536C6.98863 0.706822 6.27848 1.44095 5.89467 2.2812C5.50969 3.12398 5.40091 4.15904 5.59274 5.19759C5.78463 6.23654 6.25667 7.16779 6.91295 7.82661C7.56466 8.48085 8.48167 8.93491 9.49387 8.76454C10.5115 8.59325 11.2217 7.85912 11.6055 7.01888C11.9904 6.17609 12.0992 5.14103 11.9074 4.10249ZM8.33823 2.50779C8.52667 2.47607 8.826 2.53937 9.17024 2.88494C9.50991 3.22592 9.81344 3.77695 9.94067 4.46575C10.068 5.15496 9.979 5.76599 9.78628 6.18789C9.5924 6.61233 9.34492 6.76147 9.1619 6.79228C8.97346 6.824 8.67413 6.76071 8.3299 6.41514C7.99023 6.07415 7.68669 5.52313 7.55947 4.83432C7.43217 4.14512 7.52114 3.53408 7.71386 3.11218C7.90774 2.68774 8.15522 2.5386 8.33823 2.50779Z" fill="#323232"/>
<path fill-rule="evenodd" clip-rule="evenodd" d="M4.63505 7.9409C5.39055 8.36923 6.05159 9.07905 6.48798 9.95135C6.92375 10.8224 7.09155 11.7688 6.95232 12.6179C6.81266 13.4696 6.33811 14.3036 5.4382 14.6948C4.55501 15.0787 3.61209 14.8827 2.86509 14.4592C2.10959 14.0309 1.44855 13.3211 1.01216 12.4488C0.576387 11.5777 0.408589 10.6313 0.547818 9.78222C0.687478 8.93051 1.16203 8.09649 2.06194 7.70535C2.94513 7.32147 3.88805 7.51739 4.63505 7.9409ZM3.64866 9.68074C3.2617 9.46135 2.99417 9.48091 2.85918 9.53958C2.7409 9.59099 2.58233 9.73463 2.52146 10.1058C2.46016 10.4797 2.52442 11.0015 2.80082 11.554C3.07661 12.1052 3.47302 12.5048 3.85148 12.7194C4.23844 12.9388 4.50597 12.9192 4.64096 12.8605C4.75924 12.8091 4.91781 12.6655 4.97868 12.2943C5.03998 11.9204 4.97572 11.3987 4.69932 10.8462C4.42353 10.2949 4.02712 9.8953 3.64866 9.68074Z" fill="#323232"/>
<path fill-rule="evenodd" clip-rule="evenodd" d="M23.9746 7.73539C23.0562 7.2919 22.0773 7.52541 21.3254 7.99905C20.5671 8.47671 19.9185 9.25775 19.4947 10.199C19.0706 11.141 18.9138 12.1493 19.0454 13.0415C19.1751 13.9197 19.6174 14.8257 20.5258 15.2644C21.4441 15.7079 22.4231 15.4744 23.1749 15.0007C23.9332 14.5231 24.5818 13.742 25.0056 12.8008C25.4297 11.8588 25.5865 10.8505 25.4549 9.95829C25.3253 9.08005 24.8829 8.17405 23.9746 7.73539ZM21.3184 11.0201C21.6068 10.3796 22.0157 9.92794 22.3914 9.69128C22.7735 9.45059 23.0049 9.48814 23.1048 9.53637C23.2147 9.58942 23.4054 9.76973 23.4763 10.2503C23.5452 10.7169 23.4699 11.3399 23.1819 11.9797C22.8935 12.6202 22.4846 13.0718 22.1089 13.3085C21.7269 13.5492 21.4954 13.5116 21.3955 13.4634C21.2857 13.4103 21.0949 13.23 21.024 12.7495C20.9551 12.2828 21.0304 11.6598 21.3184 11.0201Z" fill="#323232"/>
</svg>
