<svg width="22" height="24" viewBox="0 0 22 24" fill="none" xmlns="http://www.w3.org/2000/svg">
<path fill-rule="evenodd" clip-rule="evenodd" d="M10 2C5.58172 2 2 5.58172 2 10C2 12.2996 2.76419 13.7071 3.71029 14.8591C4.10053 15.3343 4.51155 15.7548 4.94368 16.197C5.06267 16.3188 5.1833 16.4422 5.30551 16.5689C5.72562 17.0042 6.16002 17.4736 6.53754 18H9V15.5L7.4 14.3C6.95817 13.9686 6.86863 13.3418 7.2 12.9C7.53137 12.4582 8.15817 12.3686 8.6 12.7L10 13.75L11.4 12.7C11.8418 12.3686 12.4686 12.4582 12.8 12.9C13.1314 13.3418 13.0418 13.9686 12.6 14.3L11 15.5V18H13.4628C13.9365 17.3404 14.5094 16.7555 15.0381 16.2156C15.116 16.136 15.1937 16.0567 15.2692 15.979C16.0115 15.2155 16.6893 14.4727 17.1898 13.5308C17.4489 13.0431 18.0544 12.8578 18.5421 13.1169C19.0298 13.3761 19.2151 13.9815 18.956 14.4692C18.3121 15.6809 17.4587 16.5961 16.7033 17.3731C16.6274 17.4511 16.553 17.5273 16.4802 17.602C15.8396 18.2583 15.316 18.7948 14.9323 19.3939L14.4246 21.4246L14.3931 21.5517C14.2648 22.0701 14.1365 22.5892 13.83 22.9984C13.5635 23.3543 13.207 23.6327 12.7972 23.8048C12.3258 24.0029 11.7911 24.0016 11.257 24.0002L11.1261 24H8.87386L8.74295 24.0002C8.20889 24.0016 7.67419 24.0029 7.20281 23.8048C6.79297 23.6327 6.43645 23.3543 6.17 22.9984C5.86354 22.5892 5.73516 22.0701 5.60692 21.5517L5.57538 21.4246L5.06773 19.394C4.76283 18.9186 4.35807 18.4672 3.86636 17.9577C3.76299 17.8506 3.65503 17.7402 3.5439 17.6266C3.10448 17.1773 2.61549 16.6773 2.16471 16.1284C0.98581 14.6929 0 12.8504 0 10C0 4.47715 4.47715 0 10 0C11.5947 0 13.1049 0.374009 14.445 1.04001C14.9396 1.28579 15.1413 1.88597 14.8955 2.38055C14.6497 2.87513 14.0495 3.07682 13.555 2.83103C12.4852 2.2994 11.279 2 10 2ZM7.51566 20.9396L7.28078 20H12.7192L12.4843 20.9396C12.2993 21.6796 12.26 21.7584 12.2291 21.7997C12.1758 21.8709 12.1045 21.9265 12.0225 21.961C11.975 21.9809 11.889 22 11.1261 22H8.87386C8.111 22 8.025 21.9809 7.97749 21.961C7.89553 21.9265 7.82422 21.8709 7.77093 21.7997C7.74004 21.7584 7.70068 21.6796 7.51566 20.9396ZM16.9563 2.36634C17.1308 1.84289 17.8712 1.84289 18.0457 2.36634L18.6337 4.13058C18.8242 4.70206 19.2727 5.1505 19.8441 5.34099L21.6084 5.92907C22.1318 6.10355 22.1318 6.84396 21.6084 7.01844L19.8441 7.60652C19.2727 7.79701 18.8242 8.24545 18.6337 8.81693L18.0457 10.5812C17.8712 11.1046 17.1308 11.1046 16.9563 10.5812L16.3682 8.81693C16.1777 8.24545 15.7293 7.79701 15.1578 7.60652L13.3936 7.01844C12.8701 6.84396 12.8701 6.10355 13.3936 5.92907L15.1578 5.34099C15.7293 5.1505 16.1777 4.70206 16.3682 4.13058L16.9563 2.36634Z" fill="#323232"/>
</svg>
