<?xml version="1.0" encoding="utf-8"?>
<!-- Generator: Adobe Illustrator 26.1.0, SVG Export Plug-In . SVG Version: 6.00 Build 0)  -->
<svg version="1.1" id="a" xmlns="http://www.w3.org/2000/svg" xmlns:xlink="http://www.w3.org/1999/xlink" x="0px" y="0px"
	 viewBox="0 0 375.2 340.1" style="enable-background:new 0 0 375.2 340.1;" xml:space="preserve">
<style type="text/css">
	.st0{clip-path:url(#SVGID_00000111871705031776355590000018328107065881858715_);}
</style>
<g>
	<defs>
		<rect id="SVGID_1_" x="0.2" y="-216.2" width="375" height="812"/>
	</defs>
	<clipPath id="SVGID_00000003089425839270761920000000815541036789357736_">
		<use xlink:href="#SVGID_1_"  style="overflow:visible;"/>
	</clipPath>
	<g style="clip-path:url(#SVGID_00000003089425839270761920000000815541036789357736_);">
		<path d="M473.4,158.6c1.4-3.1,1.9-6.3,1.6-9.6c-0.6-6.8-3.5-12.4-8.8-16.7c-0.7-0.5-1.3-1.1-1-2.1c0.3-1.1,1.2-1.1,2.1-1.2
			c11.4-1.6,22.5,4.3,27.6,14.6c2.4,4.8,3.1,9.9,2.5,15.2c0,0.2,0,0.4-0.1,0.8c2.5-0.6,4.9-1.2,7.3-1.8c15-3.8,29.9-7.6,44.9-11.4
			c11.1-2.8,22.3-5.7,33.4-8.5c1.8-0.5,2.5-0.1,2.7,1.8c1.3,14.7-1.5,28.5-9.1,41.2c-11.2,18.6-27.6,29.8-49.1,33.2
			c-14.1,2.2-27.7,0-40.6-6.4c-0.3-0.1-0.6-0.3-0.8-0.4c-0.1,0-0.2,0-0.4-0.1c-2,4.3-4.3,8.6-5.4,13.3c-6,25.7,0.4,47.8,19.5,66
			c10.1,9.6,22.6,14.7,36.4,16.2c6,0.6,12,0.5,17.9-0.5c0.3-0.1,0.7-0.2,1-0.1c0.5,0.2,1.2,0.4,1.5,0.8c0.2,0.4,0.1,1.2-0.3,1.6
			c-1.6,1.8-3.3,3.6-5.1,5.2c-11.5,10.6-24.3,19-39,24.4c-9.6,3.5-19.5,4.9-29.7,4.7c-13.9-0.2-27.8-0.1-41.7,0
			c-1.1,0-1.8-0.3-2.5-1.2c-10.2-13-15.2-27.8-14.9-44.3c0-0.1,0-0.3,0-0.4c0-0.1-0.1-0.2-0.2-0.3c-9.7,2.8-19.6,4.8-29.7,6
			c-10.1,1.1-20.2,1.4-30.6,0.8c1,13.8,4.7,26.9,10.8,39.5c-0.7,0-1.1,0-1.6,0c-11.9,0-23.8,0-35.6,0c-14.8,0-29.7,0-44.5,0
			c-1.5,0-2.3-0.5-2.8-1.9c-3.8-9.9-6.2-20.1-7.1-30.6c-1-11.6-0.2-23.1,2.4-34.5c0.1-0.6,0.2-1.2,0.2-1.8c0-11.2,0-22.5,0-33.7
			c0-0.6-0.2-1.4-0.6-1.9c-12.5-18.9-20.8-39.6-25.6-61.7c-1.7-8-2.7-16.1-3.9-24.1c-0.4-2.6-0.4-5.2-0.5-7.8
			c-0.1-1.4,0.4-2.2,1.4-2.3c1.2-0.1,1.6,0.7,1.8,1.8c2.1,12.2,6.1,23.8,12.3,34.4c16.8,28.8,41.5,46.6,74.2,52.9
			c16,3.1,32.1,2.4,47.8-2.1c27.2-7.6,48.2-23.5,63.3-47.3c0.3-0.5,0.5-1.3,0.5-1.9c0-12.5,0-25.1,0-37.6c0-2.8,0.9-3.4,3.4-2.1
			c8.5,4.5,13.4,11.5,14.6,21.1C473.3,158.2,473.4,158.4,473.4,158.6L473.4,158.6z M550.6,149.4c-0.5,0.1-1,0.2-1.5,0.3
			c-17.6,4.5-35.2,8.9-52.7,13.4c-2.1,0.6-3-0.5-2.5-2.5c2.9-12.8-5-25.3-17.8-28.2c-1.8-0.4-3.6-0.5-5.4-0.7c0.2,0.7,0.4,1,0.7,1.3
			c8.4,9.7,9,23.6,1.6,33.5c-0.6,0.8-1.3,1.4-2.3,1c-1-0.4-0.9-1.4-0.8-2.4c1.3-7.2-0.4-13.7-5-19.4c-1.8-2.2-3.8-4-6.5-5.4v1.7
			c0,11.8,0,23.5,0,35.2c0,0.8-0.2,1.6-0.7,2.3c-3.8,6.3-8.3,12.2-13.4,17.6c-17.6,18.6-39,30.1-64.3,34.1
			c-12.3,1.9-24.5,1.8-36.8-0.5c-19.9-3.6-37.5-12.1-52.7-25.4c-13.3-11.6-23.4-25.6-29.9-42c-0.4-1-0.8-2-1.2-3
			c0.6,4,1.2,7.9,2.1,11.8c4.9,21.8,13,42.1,25.4,60.7c0.5,0.7,0.8,1.8,0.8,2.6c0,11.5,0,23.1,0,34.6c0,0.7-0.1,1.4-0.2,2.1
			c-0.8,5-1.8,9.9-2.3,14.9c-1.6,16.1,0.7,31.8,6.3,47c0.4,1,0.8,1.4,2,1.4c12.5,0,25,0,37.5,0h1.6c-5.9-14.9-8.7-30.1-8-46.1
			c43.5,11.9,85.5,8.5,126.2-11c0,0.6,0.1,1,0.1,1.4c0.3,3.6,0.4,7.3,1.1,10.9c3.5,19.1,13.7,33.8,30,44.3c0.4,0.3,1,0.4,1.6,0.5
			c7,0.5,13.9-0.4,20.7-2.2c17.9-4.8,33-14.5,46.3-27.1c0.1-0.1,0.1-0.3,0.2-0.5c-0.4,0-0.6,0-0.9,0c-5.9,0.6-11.7,0.5-17.6-0.5
			c-17.5-3-31.9-11.2-42.7-25.3c-11.1-14.5-15.8-31-14.2-49.3c0.8-9.4,4-17.9,8.2-26.2c0.5-1,1.3-1.3,2.4-0.8c0.5,0.3,1,0.5,1.5,0.8
			c12.6,6.5,26.1,8.9,40,6.4c25.1-4.4,42.3-18.8,51.6-42.5c2.1-5.3,3.2-10.8,3.7-16.8c-4.3,5.7-9.8,8.6-16.7,8.1
			C559,159.3,554,155.6,550.6,149.4L550.6,149.4z M447.6,283.6c-0.5,0.2-0.9,0.4-1.2,0.5c-6.2,2.4-12.3,4.8-18.6,7.1
			c-1,0.4-1.3,0.8-1.3,1.8c-0.3,15.4,4.2,29.3,13.4,41.6c0.6,0.8,1.2,1.1,2.3,1.1c10.9,0,21.8,0,32.8,0c0.4,0,0.9,0,1.6-0.1
			C459.1,322.6,449.4,305.4,447.6,283.6L447.6,283.6z M327.4,293.8c0.3,4.3,0.5,8.3,0.9,12.3c1,9.9,3.5,19.3,7.2,28.5
			c0.4,0.9,0.8,1.2,1.8,1.2c10.1,0,20.2,0,30.3,0c0.4,0,0.8,0,1.2-0.1c-0.1-0.3-0.1-0.4-0.1-0.5c-4.8-11.2-7.8-22.9-8.7-35.1
			c-0.1-0.8-0.4-0.9-1.1-0.9c-7.6-0.6-15.2-1.7-22.6-3.3C333.4,295.2,330.6,294.5,327.4,293.8L327.4,293.8z"/>
		<path d="M509.2,185.1c-4.7,0-8.5-3.7-8.5-8.4c0-4.6,3.8-8.3,8.3-8.3c4.8,0,8.6,3.7,8.6,8.4C517.5,181.4,513.8,185.1,509.2,185.1
			L509.2,185.1z"/>
	</g>
	<g style="clip-path:url(#SVGID_00000003089425839270761920000000815541036789357736_);">
		<path d="M324,127.2c1.7-1.9,3.2-3.8,4.9-5.6c9.7-10.3,21.4-17.3,35.1-20.9c8-2.1,16.2-2.8,24.5-2c21.6,2.1,38.9,12,52.1,29.2
			c1.5,2,1.5,2,0,4c-7.1,9.5-15.9,16.9-26.6,22.1c-7.1,3.5-14.5,5.8-22.3,6.7c-20.3,2.4-38.5-2.5-54.7-15
			c-4.7-3.6-8.8-7.9-12.4-12.6c-0.2-0.2-0.3-0.4-0.6-0.7c-1.2,2.1-2.4,4-3.5,6c-3.8,7.1-6.3,14.7-7.5,22.7c-0.6,4-0.8,8.1-0.7,12.2
			c0,0.9-0.3,1.4-1,1.6c-0.7,0.2-1.3,0-1.9-0.8c-2.3-3.2-4.3-6.5-6-10c-3.7-7.4-6.1-15.2-7.1-23.4c-2.2-18.8,2.2-35.9,13.1-51.4
			c0.7-0.9,1.4-1.2,2.2-0.7c0.5,0.3,0.7,0.8,0.8,1.3c0.2,2.6,0.3,5.2,0.6,7.8c1.1,9.1,4,17.6,8.6,25.5
			C322.4,124.6,323.2,125.9,324,127.2L324,127.2z M408.3,106.6c-28.2-11.8-63.4-3.1-82.3,23.3c21.1,28.8,57.6,34.4,83.3,22.9
			c-7.6-5.8-11.8-13.3-12-22.8C397.1,120.4,401,112.7,408.3,106.6L408.3,106.6z M438.4,130.1c-0.2-0.3-0.3-0.5-0.5-0.7
			c-1.6-1.9-3.2-3.9-4.9-5.8c-5.9-6.4-12.8-11.4-20.7-15.3c-0.5-0.2-0.8-0.2-1.3,0.1c-8.2,6.2-11.8,14.5-10.4,24.7
			c1.1,7.7,5.1,13.6,11.6,17.8c0.4,0.3,0.7,0.2,1.1,0c7.3-3.6,13.7-8.4,19.3-14.3C434.7,134.6,436.5,132.3,438.4,130.1L438.4,130.1z
			 M309.4,168.5c0-0.3,0-0.4,0-0.6c0.4-3.2,0.5-6.5,1.1-9.8c1.8-10.1,5.6-19.3,11.3-27.8c0.3-0.4,0.2-0.6,0-1
			c-0.8-1.3-1.7-2.6-2.4-3.9c-5.1-8.7-8.3-18.1-9.5-28.2c-0.1-0.8-0.2-1.7-0.3-2.7C295.4,116.6,295.4,146.5,309.4,168.5L309.4,168.5
			z"/>
		<path d="M424.3,125.9c0,3.2-2.6,5.8-5.8,5.8c-3.2,0-5.9-2.6-5.8-5.9c0-3.2,2.6-5.8,5.8-5.8C421.7,120,424.4,122.6,424.3,125.9
			L424.3,125.9z"/>
	</g>
	<g style="clip-path:url(#SVGID_00000003089425839270761920000000815541036789357736_);">
		<path d="M-50.4,176.2c1.7-1.9,3.2-3.8,4.9-5.6c9.7-10.3,21.4-17.3,35.1-20.9c8-2.1,16.2-2.8,24.5-2c21.6,2.1,39,12,52.1,29.2
			c1.5,2,1.5,2,0,4c-7.1,9.5-15.9,16.9-26.5,22.1c-7.1,3.5-14.5,5.8-22.3,6.7c-20.3,2.4-38.5-2.5-54.7-15
			c-4.7-3.6-8.8-7.9-12.4-12.6c-0.2-0.2-0.3-0.4-0.6-0.7c-1.2,2.1-2.4,4-3.5,6c-3.8,7.1-6.3,14.7-7.5,22.7c-0.6,4-0.8,8.1-0.7,12.2
			c0,0.9-0.3,1.4-1,1.6c-0.7,0.2-1.3,0-1.9-0.8c-2.3-3.2-4.3-6.5-6-10c-3.7-7.4-6.1-15.2-7.1-23.4c-2.2-18.8,2.2-35.9,13.1-51.4
			c0.7-0.9,1.4-1.2,2.2-0.7c0.5,0.3,0.7,0.8,0.8,1.3c0.2,2.6,0.3,5.2,0.6,7.8c1.1,9.1,4,17.6,8.6,25.5
			C-52,173.6-51.2,174.9-50.4,176.2L-50.4,176.2z M33.9,155.6c-28.2-11.8-63.4-3.1-82.3,23.3c21,28.8,57.6,34.4,83.3,22.9
			c-7.5-5.8-11.8-13.3-12-22.8C22.7,169.4,26.6,161.7,33.9,155.6L33.9,155.6z M64,179.1c-0.2-0.3-0.3-0.5-0.5-0.7
			c-1.6-1.9-3.2-3.9-4.9-5.8c-5.9-6.4-12.8-11.4-20.7-15.3c-0.5-0.2-0.8-0.2-1.3,0.1c-8.2,6.2-11.8,14.5-10.4,24.7
			c1,7.7,5.1,13.6,11.6,17.8c0.4,0.3,0.7,0.2,1.1,0c7.3-3.6,13.7-8.4,19.3-14.3C60.2,183.6,62.1,181.3,64,179.1L64,179.1z
			 M-65,217.5c0-0.3,0-0.4,0-0.6c0.4-3.2,0.5-6.5,1.1-9.8c1.8-10.1,5.6-19.3,11.3-27.8c0.3-0.4,0.2-0.6,0-1
			c-0.8-1.3-1.7-2.6-2.5-3.9c-5.1-8.7-8.3-18.1-9.5-28.2c-0.1-0.9-0.2-1.7-0.3-2.7C-79.1,165.7-79,195.5-65,217.5L-65,217.5z"/>
		<path d="M49.9,174.9c0,3.2-2.6,5.8-5.8,5.8c-3.2,0-5.9-2.6-5.8-5.9c0-3.2,2.6-5.8,5.8-5.8C47.3,169,49.9,171.6,49.9,174.9
			L49.9,174.9z"/>
	</g>
	<g style="clip-path:url(#SVGID_00000003089425839270761920000000815541036789357736_);">
		<path d="M251.1,38.8c1.7-1.9,3.2-3.8,4.9-5.6c9.7-10.3,21.4-17.3,35.1-20.9c8-2.1,16.2-2.8,24.5-2c21.6,2.1,38.9,12,52.1,29.2
			c1.5,2,1.5,2,0,4c-7.1,9.5-15.9,16.8-26.6,22.1c-7.1,3.5-14.5,5.8-22.3,6.7c-20.3,2.4-38.5-2.5-54.7-15
			c-4.7-3.6-8.8-7.9-12.4-12.6c-0.2-0.2-0.3-0.4-0.6-0.7c-1.2,2-2.4,4-3.5,6c-3.8,7.1-6.3,14.7-7.5,22.7c-0.6,4-0.8,8.1-0.7,12.2
			c0,0.9-0.3,1.4-1,1.6c-0.7,0.2-1.3,0-1.9-0.8c-2.3-3.2-4.3-6.5-6-10c-3.7-7.4-6.1-15.2-7.1-23.5c-2.2-18.8,2.2-35.9,13.1-51.4
			c0.7-0.9,1.4-1.2,2.2-0.7c0.5,0.3,0.7,0.8,0.8,1.3c0.2,2.6,0.3,5.2,0.6,7.8c1.1,9.1,4,17.6,8.6,25.5
			C249.5,36.2,250.3,37.5,251.1,38.8L251.1,38.8z M335.4,18.2c-28.2-11.8-63.4-3.1-82.3,23.3c21,28.8,57.6,34.4,83.3,22.9
			c-7.6-5.8-11.8-13.3-12-22.8C324.2,32,328.1,24.3,335.4,18.2L335.4,18.2z M365.5,41.7c-0.2-0.3-0.3-0.5-0.5-0.7
			c-1.6-1.9-3.2-3.9-4.9-5.8c-5.9-6.4-12.8-11.5-20.7-15.3c-0.5-0.2-0.8-0.2-1.3,0.1c-8.2,6.2-11.8,14.5-10.4,24.7
			c1.1,7.7,5.1,13.6,11.6,17.8c0.4,0.3,0.7,0.2,1.1,0c7.3-3.7,13.7-8.4,19.3-14.3C361.7,46.2,363.6,43.9,365.5,41.7L365.5,41.7z
			 M236.5,80.1c0-0.3,0-0.4,0-0.6c0.4-3.2,0.5-6.5,1.1-9.8c1.8-10.1,5.6-19.3,11.3-27.8c0.3-0.4,0.2-0.7,0-1
			c-0.8-1.3-1.7-2.6-2.5-3.9c-5.1-8.7-8.3-18.1-9.5-28.2c-0.1-0.9-0.2-1.7-0.3-2.7C222.4,28.3,222.4,58.1,236.5,80.1L236.5,80.1z"/>
		<path d="M351.4,37.5c0,3.2-2.6,5.8-5.8,5.8c-3.2,0-5.9-2.6-5.8-5.9c0-3.2,2.6-5.8,5.8-5.8C348.8,31.6,351.4,34.2,351.4,37.5
			L351.4,37.5z"/>
	</g>
	<g style="clip-path:url(#SVGID_00000003089425839270761920000000815541036789357736_);">
		<path d="M103.1,193.6c-0.7-1.6-1.4-3.1-2-4.6c-0.2-0.5-0.2-1.3,0.1-1.8c0.2-0.4,1-0.7,1.5-0.6c2.3,0.5,4.6,1,6.9,1.8
			c18,6.2,28.1,24.7,23.8,43.3c-0.2,0.6-0.1,1.1,0.3,1.6c1,1.2,1.9,2.6,3,3.8c10.4,12.1,23.6,18.7,39.5,19.7
			c7.7,0.5,15.2-0.6,22.4-3.4c16.9-6.6,28.2-18.5,33.8-35.8c2.5-7.6,3-15.3,2-23.2c-0.3-2.8,1-5.4,3.6-6.4c2.5-1,5.5-0.2,7.1,2.1
			c0.4,0.5,0.7,1.1,1,1.7c6.3,12,8.2,24.7,5.8,38c-2.6,14.1-9.5,25.7-20.5,34.9c-0.5,0.4-0.6,0.8-0.4,1.4
			c3.1,10.5,2.3,20.7-2.4,30.5c-0.2,0.4-0.3,0.9-0.2,1.3c0.5,3.1,0.3,6.2,0,9.3c-1,10.6-3.7,20.8-7.9,30.6c-0.5,1-1.1,1.5-2.2,1.5
			c-17.4,0-34.8,0-52.3,0c-1.9,0-2.5-1.1-1.6-2.8c2.5-4.4,4.6-8.9,6.4-13.6c0.1-0.4,0.3-0.8,0.4-1.2c-8.7,0.7-17.2,0.4-25.6-0.9
			c-0.1,0.3-0.1,0.4-0.2,0.6c-1.4,5.6-3.2,11-5.4,16.2c-0.5,1.3-1.3,1.8-2.7,1.8c-12.2,0-24.4,0-36.6,0c-5.1,0-10.3,0-15.4,0
			c-1.8,0-2.5-1.2-1.6-2.7c3.9-6.7,6.9-13.8,9-21.3c1-3.4,1.5-6.9,2.5-10.3c1.5-5.4,2.4-10.9,2.3-16.5c-0.1-10.1-2.9-19.4-8.1-28
			c-0.7-1.1-1.5-1.8-2.8-2.2c-15.6-4.9-26.2-20-25.5-36c0.1-1.7,0.8-2.4,2.4-2.4c7-0.1,12.6-3,16.6-8.6c3.3-4.6,4.6-9.9,3.3-15.5
			c-0.5-2.3-1.5-4.4-2.3-6.6c-0.5-1.4,0.2-2.4,1.7-2.4c7.3,0.5,13.8,2.8,19.7,7.1c0.2,0.2,0.5,0.4,0.9,0.6
			C103.2,193.9,103.2,193.7,103.1,193.6L103.1,193.6z M195.9,335.9c7,0,13.9,0,20.9,0c0.7,0,1.1-0.2,1.4-0.9
			c4-9.6,6.5-19.5,7.2-29.9c0.2-2.5-0.1-5.1-0.2-7.7c0-0.7,0.1-1.4,0.4-2c4.8-9.7,5.5-19.7,2.1-30c-0.5-1.4-0.4-1.7,0.7-2.6
			c10.9-8.7,17.8-19.8,20.4-33.4c2.5-13.2,0.4-25.8-6.1-37.6c-0.7-1.2-2-1.7-3.2-1.3c-1.3,0.4-2.1,1.4-2.1,2.8c0.1,2,0.3,4,0.4,6
			c0.8,28.5-18.8,53.4-46.7,59.2c-23.2,4.9-47.2-4.9-60.5-24.5c-0.5-0.8-0.6-1.5-0.4-2.4c3-12.5,0-23.5-9-32.7
			c-4.2-4.2-9.2-7-15-8.5c-0.3-0.1-0.5-0.1-0.9-0.2c0.4,1.7,0.9,3.2,1.2,4.9c0.2,0.9,0.2,1.8,0.3,2.7c0.1,0.7-0.1,1.4-0.8,1.7
			c-0.8,0.3-1.4,0.1-2-0.4c-2.2-1.7-4.3-3.6-6.7-5c-3.8-2.4-8-3.7-12.7-4.3c3.2,7.7,2.8,15-1.6,22c-4.4,6.9-10.9,10.4-19.1,11
			c-0.1,2.7,0.2,5.3,0.8,7.8c3.4,13,11.6,21.4,24.7,25.1c0.8,0.2,1.3,0.6,1.5,1.4c0.1,0.3,0.2,0.6,0.4,0.9c7,11,9.9,23,8.7,36
			c-0.3,2.9-0.8,5.8-1.5,8.6c-1.1,4.8-2.2,9.5-3.5,14.2c-1.8,6.3-4.3,12.2-7.3,18c-0.2,0.3-0.3,0.6-0.5,1c0.4,0,0.6,0,0.9,0
			c7.2,0,14.3,0,21.5,0c0.7,0,1.1-0.2,1.4-0.9c3.6-7.5,6.1-15.3,7.7-23.5c0.3-1.8,1.2-2.2,2.9-1.5c13,5.8,26.6,8.7,40.8,8.6
			c12.8-0.1,25.1-2.6,36.9-7.5c0.2-0.1,0.4-0.2,0.6-0.3c0.7-0.3,1.4-0.4,1.8,0.2c0.3,0.4,0.5,1.1,0.5,1.6c-1.5,7.6-3.9,15-7.1,22
			c-0.1,0.2-0.2,0.5-0.3,0.7c0,0,0,0.1,0,0.3C195.3,335.9,195.6,335.9,195.9,335.9L195.9,335.9z M114.2,335.8c0.4,0,0.7,0,1,0
			c7,0,14,0,21,0c0.5,0,1,0,1.2-0.6c2.1-5,3.7-10,5-15.4c-7.1-1.5-14-3.5-20.8-6.5C120,321.2,117.6,328.6,114.2,335.8L114.2,335.8z
			 M185.7,318.9c-3.3,0.8-6.8,1.3-10.2,1.9c-0.7,0.1-1,0.3-1.3,1c-1.8,4.4-3.8,8.7-5.7,13c-0.1,0.3-0.3,0.6-0.5,1
			c0.4,0,0.7,0.1,1,0.1c7.1,0,14.2,0,21.3,0c0.7,0,1.1-0.2,1.4-0.9c3-6.2,5.2-12.7,6.8-19.4c0-0.2,0-0.4,0-0.5
			C194.3,316.4,190,317.8,185.7,318.9L185.7,318.9z"/>
		<path d="M97.4,219.7c0-3.7-2.9-6.7-6.6-6.7c-3.7,0-6.7,2.9-6.7,6.6c0,3.7,3,6.7,6.7,6.8S97.4,223.4,97.4,219.7z"/>
	</g>
	<g style="clip-path:url(#SVGID_00000003089425839270761920000000815541036789357736_);">
		<path d="M129.3,154.2c-0.7-0.4-1.1-0.6-1.6-0.9c-12.2-7.6-19.7-18.4-22.6-32.4c-0.3-1.3,0.5-2.3,1.6-2.1c0.4,0.1,0.8,0.4,1.2,0.7
			c3.9,3.9,8.3,7.1,13.3,9.5c0.5,0.2,0.9,0.4,1.5,0.5c-0.1-0.2-0.2-0.4-0.4-0.5c-5.8-7.3-9.3-15.6-10.4-24.8
			c-0.5-4.7-0.4-9.4,0.4-14c0.2-0.9,0.6-1.4,1.3-1.5c0.8-0.1,1.3,0.1,1.8,1c6,10.8,14.9,18.1,26.7,21.7c6.7,2.1,13.5,2.4,20.4,1.4
			c0.5-0.1,0.7-0.3,0.9-0.8c3.5-11.9,11.3-19.2,23.4-21.8c6.5-1.4,12.7-0.3,18.7,2.4c15,6.9,24.3,18.4,27.8,34.5
			c0.8,3.7,1,7.5,0.8,11.3c0,1.1-0.8,2-1.6,2.1c-0.7,0.1-1.1-0.3-1.5-0.7c-3-3.5-6.7-6.1-11-7.7c-0.1-0.1-0.3-0.1-0.5-0.1
			c-0.1,0.2-0.2,0.4-0.3,0.5c-3.1,6.2-7.7,10.9-14,14c-0.3,0.1-0.5,0.4-0.6,0.7c-1.7,5.4-3.8,10.6-6.7,15.4
			c-11.3,19.1-27.7,31.3-49.2,36.4c-4.4,1.1-8.9,1.6-13.5,1.8c-0.7,0-1.4,0-1.8-0.7c-0.4-0.7-0.2-1.3,0.2-2
			c4.3-7.1,6.5-14.7,6.6-22.9c0-0.9-0.2-1.3-1.1-1.7c-10.1-4.6-17.7-11.8-23-21.5c-0.2-0.3-0.3-0.7-0.4-1.1c0-1.2,1.2-1.8,2.4-1.2
			c2.1,1.1,4.1,2.2,6.2,3.1c1.5,0.7,3,1.1,4.5,1.6C128.9,154.2,129,154.2,129.3,154.2L129.3,154.2z M114.7,94.8
			c-0.3,2.7-0.2,5.3,0,8c0.5,5.9,2.2,11.6,5,16.8c2.4,4.6,5.6,8.7,9.4,12.2c0.7,0.6,0.8,1.4,0.4,2c-0.4,0.6-1.1,0.9-1.9,0.7
			c-6.3-1.7-12.1-4.6-17.2-8.7c-0.4-0.3-0.7-0.6-1.2-0.9c0.1,0.3,0.1,0.5,0.2,0.7c4,12.1,11.8,21.1,23.2,26.9
			c3.2,1.6,6.7,2.8,10.2,3.6c1,0.2,1.6,1.2,1.2,2.1c-0.3,0.7-0.9,0.9-1.6,0.9c-7,0.1-13.8-1.3-20.2-4.1c-0.2-0.1-0.3-0.1-0.6-0.2
			c0.2,0.3,0.3,0.4,0.4,0.6c5.1,7.2,11.7,12.5,19.9,15.8c1,0.4,1.5,1,1.5,2.1c0.1,8.2-1.6,16-5.4,23.4c-0.1,0.2-0.2,0.5-0.4,0.8
			c0.2,0,0.3,0,0.4,0c5.3-0.4,10.5-1.4,15.6-3c14.4-4.6,26.3-12.8,35.6-24.6c5.7-7.2,9.8-15.2,12.5-24c2-6.6,3-13.4,3.1-20.4
			c0-3.9-0.2-7.9-0.8-11.8c-1-6.9-3.1-13.5-6-19.9c-0.3-0.6-0.6-0.8-1.2-0.9c-3.2-0.5-6.3-0.5-9.5,0.1
			c-10.4,1.9-19.1,10.3-21.2,20.6c-0.3,1.2-0.5,1.5-1.8,1.8c-6.3,1.2-12.6,1.2-18.9-0.2c-10.4-2.2-19.2-7.3-26.3-15.3
			C117.4,98.4,116.1,96.6,114.7,94.8L114.7,94.8z M230.9,135.1c-0.3-9.9-3.5-18.9-9.8-26.7c-5.2-6.5-11.8-11.2-19.7-14.1
			c0.1,0.2,0.1,0.3,0.2,0.4c4,9.4,6.1,19.2,6.2,29.5c0,1.1,0,1.1,1.1,1.3c5.6,0.9,10.9,2.8,15.9,5.5
			C226.9,132.1,228.8,133.7,230.9,135.1L230.9,135.1z M207.7,128.5c-0.2,4.7-0.9,9.3-2,14c4.9-2.9,8.4-6.9,10.8-11.9
			C214.6,129.8,208.8,128.4,207.7,128.5L207.7,128.5z"/>
		<path d="M193.2,103.3c2.9,0,5.3,2.3,5.3,5.2c0,2.9-2.3,5.3-5.2,5.3c-2.9,0-5.3-2.4-5.3-5.2C188,105.7,190.3,103.3,193.2,103.3
			L193.2,103.3z"/>
	</g>
	<g style="clip-path:url(#SVGID_00000003089425839270761920000000815541036789357736_);">
		<path d="M-37.6,278.3c0.5-2.5,1.4-4.8,3-6.8c4.2-5.4,9.6-7.6,16.4-6.8c0.5,0.1,0.6-0.1,0.7-0.5c2.4-6,6.5-10.6,12.2-13.8
			c9.6-5.5,22.3-4.2,30.8,3c5.2,4.4,8.4,10.1,9.4,16.8c0.3,1.7,0.3,3.5,0.4,5.2c4.9-1.4,9.3-0.4,12.7,3.5c3.4,3.9,3.7,8.4,1.6,13.2
			c0.3,0.3,0.7,0.6,1,0.9c8.1,6.8,13.1,15.4,14.9,25.7c1.1,6.1,0.8,12.1-0.7,18.1c-0.3,1-0.7,1.4-1.8,1.4c-42.2,0-84.4,0-126.5,0
			c-1.1,0-1.6-0.4-1.8-1.4c-4.1-15.8,1.1-32.5,13.4-43.1c0.5-0.4,0.6-0.7,0.5-1.3c-1.8-8,4.9-15.3,13.1-14.2
			C-38.1,278.2-37.9,278.2-37.6,278.3L-37.6,278.3z M-62.8,335.3h0.8c41.2,0,82.3,0,123.5,0c0.6,0,0.8-0.2,0.9-0.7
			c1-4.6,1.2-9.3,0.5-14c-1.5-10.7-6.7-19.4-15.2-26.1c-0.4-0.3-0.8-0.5-1.4-0.5c-9.4,0.1-18.7,0.2-28.1,0.4
			c-7.3,0.1-14.6,0.2-21.9,0.2c-7.3,0.1-14.7,0.2-22.1,0.2c-7.7,0.1-15.3,0.2-22.9,0.3c-0.3,0-0.6,0.1-0.8,0.3
			c-4,3.3-7.3,7.3-9.7,11.9c-3.8,7.1-5.2,14.7-4.5,22.7C-63.5,331.8-63.1,333.5-62.8,335.3L-62.8,335.3z M-0.9,291.6v-0.1
			c3,0,5.9,0,8.9,0c8.2-0.1,16.3-0.2,24.4-0.2c4.6,0,9.2-0.1,13.8-0.1c0.4,0,0.6-0.1,0.8-0.5c1.5-3.2,1.3-6.3-0.8-9.2
			c-2.1-2.9-5-4-8.5-3.6c-1.3,0.2-2.4,0.7-3.5,1.3c-1.1,0.6-2.3,0-2.2-1.3c0-0.4,0.1-0.8,0.1-1.2c0.6-7.3-1.5-13.7-6.5-19.1
			c-7.8-8.4-20.8-10.1-30.6-4c-5,3.1-8.5,7.5-10.3,13.1c-0.4,1.2-1,1.5-2.2,1.2c-2.2-0.6-4.5-0.6-6.8,0c-5.5,1.4-9.9,6-10.6,12.2
			c-0.2,1.4-1,1.8-2.2,1.4c-3.2-1-6.1-0.5-8.7,1.8c-2.5,2.2-3.4,5.1-2.9,8.4c0.1,0.5,0.2,0.6,0.7,0.6c4-0.1,8-0.1,12-0.2
			C-24.3,291.9-12.6,291.8-0.9,291.6L-0.9,291.6z"/>
		<path d="M25.5,315.6c1.6,0.5,3.1,1.2,4.2,2.4c2.6,2.9,2.6,7.2-0.1,10.1c-2.6,2.8-7,3-10,0.6c-4.6-3.7-9.8-5.9-15.7-6.7
			c-8.3-1-15.9,0.9-22.8,5.7c-0.4,0.2-0.7,0.5-1,0.8c-2.4,1.9-5,2.4-7.8,1.1c-2.8-1.3-4.2-3.6-4.4-6.6c-0.1-3.3,2.3-6.4,5.6-7.2
			c0.2,0,0.4-0.1,0.8-0.2c-0.4-0.1-0.5-0.1-0.7-0.2c-2.9-0.8-5.2-3.2-5.5-6c-0.4-3.2,1-6,3.7-7.6c2.6-1.5,5.9-1.2,8.3,0.8
			c4.2,3.4,9,5.6,14.4,6.5c8.6,1.4,16.5-0.4,23.7-5.3c0.5-0.3,0.9-0.7,1.3-1c2.4-2,5.6-2.4,8.4-0.9c2.8,1.5,4.2,4.4,3.8,7.6
			c-0.3,2.8-2.7,5.3-5.6,6C25.7,315.6,25.6,315.6,25.5,315.6L25.5,315.6z"/>
	</g>
	<path style="clip-path:url(#SVGID_00000003089425839270761920000000815541036789357736_);" d="M85.1,108.1
		c0,11.7-9.4,20.8-20.7,20.9c-11.7,0.1-21.1-9.2-21.2-20.8c0-11.7,9.3-20.9,20.7-21C75.6,87.1,85.1,96.5,85.1,108.1z M50.2,119.8
		c4-3.5,8.7-5.3,14-5.3c5.3,0,10,1.8,14,5.3c2.8-3.4,4.2-7.3,4.2-11.6c0-4.3-1.3-8.1-4-11.4c-7.3,7-20,7.8-28.4,0
		C44.9,102.7,44.3,112.9,50.2,119.8L50.2,119.8z M51.9,94.8c7.3,6.8,18.5,6,24.6,0C69.8,88.3,58.6,88.3,51.9,94.8z M52.1,121.8
		c7.1,6.4,18,5.8,24.1,0C69.8,115.8,59,115.5,52.1,121.8z"/>
</g>
</svg>
