<?xml version="1.0" encoding="utf-8"?>
<!-- Generator: Adobe Illustrator 26.1.0, SVG Export Plug-In . SVG Version: 6.00 Build 0)  -->
<svg version="1.1" id="a" xmlns="http://www.w3.org/2000/svg" xmlns:xlink="http://www.w3.org/1999/xlink" x="0px" y="0px"
	 viewBox="0 0 40 40" style="enable-background:new 0 0 40 40;" xml:space="preserve">
<path d="M30.2,0c3.84,0.23,7.03,2.13,8.78,6.01c1.75,3.88,1.24,7.6-1.46,10.95c-0.46,0.57-0.98,1.1-1.5,1.62
	c-6,6.02-12.01,12.04-18.03,18.04c-4.1,4.08-10.08,4.52-14.2,1.06C-0.95,33.7-1.32,26.83,3.12,22.3
	C9.41,15.88,15.81,9.55,22.18,3.21C24.28,1.11,26.84,0.02,30.2,0z M26.36,24.63c3.13-3.04,6.32-6.1,9.45-9.21
	c1.1-1.1,1.6-2.54,1.8-4.06c0.47-3.54-1.26-6.63-4.6-8.33c-2.79-1.42-6.48-0.8-8.94,1.56c-1.64,1.58-3.23,3.22-4.84,4.83
	c-1.36,1.36-2.72,2.72-4.03,4.02C19,17.26,22.74,21.01,26.36,24.63z M13.48,15.23c-0.12,0.1-0.29,0.23-0.43,0.38
	c-2.97,2.99-6.03,5.89-8.87,8.99c-2.76,3.01-2.48,7.79,0.38,10.71c2.94,3,7.72,3.27,10.85,0.5c1.73-1.53,3.32-3.22,4.96-4.85
	c1.49-1.48,2.98-2.96,4.41-4.4C20.98,22.75,17.24,19,13.48,15.23z"/>
</svg>
