<svg width="12" height="13" viewBox="0 0 12 13" fill="none" xmlns="http://www.w3.org/2000/svg">
<path d="M6.00042 0.785706C6.31601 0.785706 6.57185 1.04154 6.57185 1.35713V5.92856H11.1433C11.4589 5.92856 11.7147 6.1844 11.7147 6.49999C11.7147 6.81558 11.4589 7.07142 11.1433 7.07142H6.57185V11.6428C6.57185 11.9584 6.31601 12.2143 6.00042 12.2143C5.68483 12.2143 5.42899 11.9584 5.42899 11.6428V7.07142H0.857561C0.54197 7.07142 0.286133 6.81558 0.286133 6.49999C0.286133 6.1844 0.54197 5.92856 0.857561 5.92856H5.42899V1.35713C5.42899 1.04154 5.68483 0.785706 6.00042 0.785706Z" fill="#323232"/>
</svg>
