<svg width="18" height="20" viewBox="0 0 18 20" fill="none" xmlns="http://www.w3.org/2000/svg">
<path fill-rule="evenodd" clip-rule="evenodd" d="M8.10537 0.0712892H9.89467C11.063 0.0712823 11.9922 0.0712767 12.7418 0.132525C13.5095 0.195246 14.164 0.326441 14.7634 0.631827C15.7311 1.12489 16.5178 1.91165 17.0109 2.87934C17.3163 3.47869 17.4475 4.13327 17.5102 4.90093C17.5715 5.65057 17.5715 6.57973 17.5714 7.74805V15.1582C17.5715 16.0212 17.5715 16.7282 17.5217 17.2756C17.4723 17.8176 17.3642 18.3743 17.0163 18.8139C16.5333 19.4241 15.8 19.7827 15.0219 19.7893C14.4613 19.7941 13.9555 19.5376 13.4974 19.2438C13.0347 18.9471 12.4766 18.513 11.7954 17.9831L10.1577 16.7094C9.49289 16.1923 9.34969 16.1015 9.22403 16.0675C9.07733 16.0278 8.92271 16.0278 8.77601 16.0675C8.65035 16.1015 8.50715 16.1923 7.8423 16.7094L6.20462 17.9832C5.52338 18.513 4.96532 18.9471 4.50266 19.2438C4.04459 19.5376 3.53871 19.7941 2.97814 19.7893C2.2 19.7827 1.46672 19.4241 0.983762 18.8139C0.635838 18.3743 0.527703 17.8176 0.478381 17.2756C0.428563 16.7282 0.428576 16.0212 0.428589 15.1581V7.74807C0.428582 6.57974 0.428576 5.65058 0.489825 4.90093C0.552545 4.13327 0.683741 3.47869 0.989128 2.87934C1.48219 1.91165 2.26895 1.12489 3.23664 0.631827C3.83599 0.326441 4.49057 0.195246 5.25823 0.132525C6.00788 0.0712767 6.93705 0.0712823 8.10537 0.0712892ZM5.39783 1.84112C4.73618 1.89518 4.33232 1.99754 4.01491 2.15927C3.36978 2.48798 2.84528 3.01248 2.51657 3.65761C2.35484 3.97502 2.25248 4.37888 2.19842 5.04052C2.14354 5.71218 2.14287 6.57132 2.14287 7.78558V15.1149C2.14287 16.0318 2.14373 16.66 2.18561 17.1202C2.22882 17.595 2.30574 17.7219 2.32793 17.75C2.48892 17.9533 2.73335 18.0729 2.99273 18.0751C3.02848 18.0754 3.1759 18.0582 3.57717 17.8008C3.96614 17.5513 4.46255 17.1663 5.18631 16.6034L6.78983 15.3562C6.82545 15.3285 6.86071 15.301 6.89567 15.2737C7.39047 14.8876 7.8242 14.5492 8.32799 14.4128C8.76809 14.2936 9.23195 14.2936 9.67205 14.4128C10.1758 14.5492 10.6096 14.8876 11.1044 15.2737C11.1393 15.301 11.1746 15.3285 11.2102 15.3562L12.8137 16.6034C13.5375 17.1663 14.0339 17.5513 14.4229 17.8008C14.8241 18.0582 14.9716 18.0754 15.0073 18.0751C15.2667 18.0729 15.5111 17.9533 15.6721 17.75C15.6943 17.7219 15.7712 17.595 15.8144 17.1202C15.8563 16.66 15.8572 16.0318 15.8572 15.1149V7.78558C15.8572 6.57132 15.8565 5.71218 15.8016 5.04052C15.7476 4.37888 15.6452 3.97502 15.4835 3.65761C15.1548 3.01248 14.6303 2.48798 13.9851 2.15927C13.6677 1.99754 13.2639 1.89518 12.6022 1.84112C11.9306 1.78624 11.0714 1.78558 9.85716 1.78558H8.14288C6.92862 1.78558 6.06948 1.78624 5.39783 1.84112Z" fill="#323232"/>
</svg>
