<svg width="28" height="28" viewBox="0 0 28 28" fill="none" xmlns="http://www.w3.org/2000/svg">
<path fill-rule="evenodd" clip-rule="evenodd" d="M15.0438 3H12.9562C11.5932 2.99999 10.5092 2.99999 9.63458 3.07144C8.73898 3.14462 7.97531 3.29768 7.27606 3.65396C6.14709 4.2292 5.2292 5.14709 4.65396 6.27606C4.29768 6.9753 4.14462 7.73898 4.07144 8.63458C3.99999 9.50915 3.99999 10.5932 4 11.9562V11.9562V20.6013V20.6014C3.99998 21.6083 3.99997 22.4331 4.05809 23.0717C4.11563 23.704 4.24179 24.3536 4.6477 24.8664C5.21115 25.5782 6.06665 25.9966 6.97448 26.0044C7.62848 26.0099 8.21866 25.7107 8.75308 25.368C9.29285 25.0218 9.94392 24.5154 10.7387 23.8972L12.6493 22.4111C13.425 21.8078 13.5921 21.7019 13.7387 21.6622C13.9098 21.6159 14.0902 21.6159 14.2614 21.6622C14.408 21.7019 14.575 21.8078 15.3507 22.4111L17.2612 23.8971C18.056 24.5153 18.7071 25.0218 19.2469 25.368C19.7813 25.7107 20.3715 26.0099 21.0255 26.0044C21.9334 25.9966 22.7889 25.5782 23.3523 24.8664C23.7582 24.3536 23.8844 23.704 23.9419 23.0717C24 22.4331 24 21.6083 24 20.6014V11.9562V11.9561C24 10.5931 24 9.50914 23.9286 8.63458C23.8554 7.73898 23.7023 6.9753 23.346 6.27606C22.7708 5.14709 21.8529 4.2292 20.7239 3.65396C20.0247 3.29768 19.261 3.14462 18.3654 3.07144C17.4908 2.99999 16.4068 2.99999 15.0438 3H15.0438Z" fill="#323232"/>
</svg>
