<?xml version="1.0" encoding="utf-8"?>
<!-- Generator: Adobe Illustrator 26.1.0, SVG Export Plug-In . SVG Version: 6.00 Build 0)  -->
<svg version="1.1" id="Layer_1" xmlns="http://www.w3.org/2000/svg" xmlns:xlink="http://www.w3.org/1999/xlink" x="0px" y="0px"
	 viewBox="0 0 841.89 595.28" style="enable-background:new 0 0 841.89 595.28;" xml:space="preserve">
<style type="text/css">
	.st0{fill:#4EEBC0;}
</style>
<path class="st0" d="M565.39,328.69c-3.52-16.14-12.82-27.65-27.83-34.53c-5.95-2.72-12.2-3.77-18.65-2.39
	c-12.1,2.6-19.88,9.96-23.38,21.82c-0.15,0.51-0.38,0.7-0.86,0.77c-6.91,1.06-13.73,0.7-20.41-1.38
	c-11.78-3.67-20.64-10.97-26.68-21.72c-0.46-0.82-0.97-1.09-1.75-0.96c-0.7,0.12-1.12,0.61-1.27,1.48
	c-0.83,4.65-0.95,9.32-0.42,14.01c1.06,9.27,4.56,17.53,10.37,24.82c0.13,0.17,0.25,0.35,0.38,0.52c-0.54-0.12-1-0.32-1.45-0.53
	c-5.01-2.35-9.44-5.53-13.32-9.47c-0.31-0.31-0.74-0.6-1.15-0.67c-1.16-0.19-1.88,0.81-1.61,2.14c2.88,14.04,10.45,24.82,22.6,32.39
	c0.48,0.3,0.97,0.57,1.62,0.95c-0.27-0.03-0.36-0.02-0.45-0.03c-1.51-0.53-3.06-0.96-4.51-1.62c-2.11-0.96-4.15-2.07-6.21-3.14
	c-1.14-0.59-2.41,0.04-2.38,1.25c0.01,0.38,0.18,0.77,0.36,1.11c5.24,9.75,12.88,16.96,22.96,21.54c0.85,0.39,1.11,0.79,1.1,1.73
	c-0.12,8.26-2.35,15.89-6.63,22.94c-0.39,0.65-0.61,1.28-0.21,1.97c0.4,0.68,1.06,0.74,1.78,0.71c4.55-0.2,9.05-0.73,13.47-1.79
	c21.56-5.17,37.95-17.36,49.21-36.44c2.87-4.86,5.04-10.05,6.71-15.45c0.08-0.27,0.37-0.54,0.63-0.67
	c6.22-3.09,10.88-7.73,13.95-13.97c0.08-0.17,0.18-0.34,0.29-0.53c0.18,0.05,0.32,0.09,0.46,0.14c4.31,1.65,7.96,4.22,10.97,7.7
	c0.41,0.48,0.86,0.8,1.52,0.74c0.86-0.08,1.58-1,1.62-2.12C566.38,336.2,566.2,332.41,565.39,328.69z"/>
<g>
	<path d="M461.58,355.94c-0.65-0.38-1.14-0.65-1.62-0.95c-12.15-7.57-19.72-18.35-22.6-32.39c-0.27-1.33,0.45-2.33,1.61-2.14
		c0.41,0.07,0.84,0.36,1.15,0.67c3.88,3.94,8.31,7.12,13.32,9.47c0.45,0.21,0.91,0.41,1.45,0.53c-0.13-0.17-0.25-0.35-0.38-0.52
		c-5.81-7.29-9.31-15.55-10.37-24.82c-0.53-4.69-0.41-9.36,0.42-14.01c0.15-0.87,0.57-1.36,1.27-1.48c0.78-0.13,1.29,0.14,1.75,0.96
		c6.04,10.75,14.9,18.05,26.68,21.72c6.68,2.08,13.5,2.44,20.41,1.38c0.48-0.07,0.71-0.26,0.86-0.77
		c3.5-11.86,11.28-19.22,23.38-21.82c6.45-1.38,12.7-0.33,18.65,2.39c15.01,6.88,24.31,18.39,27.83,34.53
		c0.81,3.72,0.99,7.51,0.83,11.32c-0.04,1.12-0.76,2.04-1.62,2.12c-0.66,0.06-1.11-0.26-1.52-0.74c-3.01-3.48-6.66-6.05-10.97-7.7
		c-0.14-0.05-0.28-0.09-0.46-0.14c-0.11,0.19-0.21,0.36-0.29,0.53c-3.07,6.24-7.73,10.88-13.95,13.97c-0.26,0.13-0.55,0.4-0.63,0.67
		c-1.67,5.4-3.84,10.59-6.71,15.45c-11.26,19.08-27.65,31.27-49.21,36.44c-4.42,1.06-8.92,1.59-13.47,1.79
		c-0.72,0.03-1.38-0.03-1.78-0.71c-0.4-0.69-0.18-1.32,0.21-1.97c4.28-7.05,6.51-14.68,6.63-22.94c0.01-0.94-0.25-1.34-1.1-1.73
		c-10.08-4.58-17.72-11.79-22.96-21.54c-0.18-0.34-0.35-0.73-0.36-1.11c-0.03-1.21,1.24-1.84,2.38-1.25
		c2.06,1.07,4.1,2.18,6.21,3.14c1.45,0.66,3,1.09,4.51,1.62C461.22,355.92,461.31,355.91,461.58,355.94z M447.04,296.53
		c-0.27,2.67-0.2,5.32,0.03,7.96c0.53,5.94,2.2,11.56,4.97,16.83c2.43,4.62,5.57,8.7,9.4,12.24c0.66,0.61,0.79,1.35,0.42,2.01
		c-0.36,0.64-1.07,0.91-1.88,0.68c-6.33-1.74-12.1-4.59-17.25-8.69c-0.36-0.29-0.74-0.57-1.24-0.95c0.09,0.33,0.14,0.5,0.19,0.66
		c4.05,12.13,11.77,21.1,23.17,26.89c3.25,1.65,6.7,2.8,10.25,3.61c1.05,0.24,1.56,1.17,1.18,2.09c-0.3,0.72-0.89,0.94-1.64,0.95
		c-7.05,0.1-13.8-1.29-20.25-4.12c-0.16-0.07-0.34-0.13-0.63-0.24c0.17,0.27,0.26,0.42,0.36,0.56c5.11,7.18,11.72,12.49,19.88,15.84
		c1.04,0.43,1.5,1.03,1.52,2.15c0.14,8.25-1.64,16.04-5.42,23.37c-0.12,0.23-0.22,0.46-0.37,0.76c0.19,0,0.29,0.01,0.4,0
		c5.33-0.42,10.54-1.41,15.64-3.02c14.4-4.55,26.27-12.77,35.64-24.59c5.7-7.18,9.85-15.19,12.48-23.98
		c1.99-6.64,3-13.43,3.07-20.36c0.04-3.95-0.24-7.87-0.84-11.78c-1.05-6.91-3.08-13.53-6.02-19.87c-0.27-0.57-0.6-0.81-1.2-0.9
		c-3.17-0.49-6.32-0.46-9.48,0.12c-10.4,1.88-19.08,10.3-21.21,20.63c-0.26,1.24-0.54,1.52-1.77,1.75
		c-6.32,1.2-12.64,1.17-18.94-0.16c-10.43-2.21-19.21-7.32-26.31-15.27C449.75,300.07,448.46,298.3,447.04,296.53z M563.21,336.76
		c-0.31-9.92-3.51-18.89-9.77-26.72c-5.21-6.52-11.77-11.19-19.7-14.1c0.08,0.23,0.11,0.34,0.15,0.44
		c4.05,9.42,6.11,19.25,6.19,29.5c0.01,1.09,0.02,1.09,1.11,1.26c5.62,0.9,10.91,2.84,15.89,5.52
		C559.23,333.81,561.15,335.37,563.21,336.76z M540.01,330.18c-0.25,4.71-0.87,9.33-1.99,14.04c4.87-2.95,8.41-6.86,10.76-11.87
		C546.92,331.54,541.11,330.09,540.01,330.18z"/>
	<path d="M525.57,305c2.93-0.01,5.27,2.31,5.27,5.23c0.01,2.91-2.33,5.28-5.23,5.29c-2.88,0.02-5.27-2.36-5.29-5.25
		C520.31,307.36,522.65,305.01,525.57,305z"/>
</g>
</svg>
