<?xml version="1.0" encoding="utf-8"?>
<!-- Generator: Adobe Illustrator 26.1.0, SVG Export Plug-In . SVG Version: 6.00 Build 0)  -->
<svg version="1.1" id="Layer_1" xmlns="http://www.w3.org/2000/svg" xmlns:xlink="http://www.w3.org/1999/xlink" x="0px" y="0px"
	 viewBox="0 0 595.3 841.9" style="enable-background:new 0 0 595.3 841.9;" xml:space="preserve">
<g>
	<path d="M259.1,205c-0.7-0.4-1.1-0.6-1.6-1c-12.2-7.6-19.7-18.4-22.6-32.4c-0.3-1.3,0.5-2.3,1.6-2.1c0.4,0.1,0.8,0.4,1.2,0.7
		c3.9,3.9,8.3,7.1,13.3,9.5c0.5,0.2,0.9,0.4,1.5,0.5c-0.1-0.2-0.2-0.4-0.4-0.5c-5.8-7.3-9.3-15.5-10.4-24.8c-0.5-4.7-0.4-9.4,0.4-14
		c0.2-0.9,0.6-1.4,1.3-1.5c0.8-0.1,1.3,0.1,1.8,1c6,10.8,14.9,18.1,26.7,21.7c6.7,2.1,13.5,2.4,20.4,1.4c0.5-0.1,0.7-0.3,0.9-0.8
		c3.5-11.9,11.3-19.2,23.4-21.8c6.5-1.4,12.7-0.3,18.7,2.4c15,6.9,24.3,18.4,27.8,34.5c0.8,3.7,1,7.5,0.8,11.3c0,1.1-0.8,2-1.6,2.1
		c-0.7,0.1-1.1-0.3-1.5-0.7c-3-3.5-6.7-6-11-7.7c-0.1-0.1-0.3-0.1-0.5-0.1c-0.1,0.2-0.2,0.4-0.3,0.5c-3.1,6.2-7.7,10.9-14,14
		c-0.3,0.1-0.5,0.4-0.6,0.7c-1.7,5.4-3.8,10.6-6.7,15.4c-11.3,19.1-27.7,31.3-49.2,36.4c-4.4,1.1-8.9,1.6-13.5,1.8
		c-0.7,0-1.4,0-1.8-0.7c-0.4-0.7-0.2-1.3,0.2-2c4.3-7,6.5-14.7,6.6-22.9c0-0.9-0.2-1.3-1.1-1.7c-10.1-4.6-17.7-11.8-23-21.5
		c-0.2-0.3-0.3-0.7-0.4-1.1c0-1.2,1.2-1.8,2.4-1.2c2.1,1.1,4.1,2.2,6.2,3.1c1.5,0.7,3,1.1,4.5,1.6
		C258.8,204.9,258.8,204.9,259.1,205z M244.6,145.5c-0.3,2.7-0.2,5.3,0,8c0.5,5.9,2.2,11.6,5,16.8c2.4,4.6,5.6,8.7,9.4,12.2
		c0.7,0.6,0.8,1.4,0.4,2c-0.4,0.6-1.1,0.9-1.9,0.7c-6.3-1.7-12.1-4.6-17.2-8.7c-0.4-0.3-0.7-0.6-1.2-1c0.1,0.3,0.1,0.5,0.2,0.7
		c4,12.1,11.8,21.1,23.2,26.9c3.2,1.6,6.7,2.8,10.2,3.6c1,0.2,1.6,1.2,1.2,2.1c-0.3,0.7-0.9,0.9-1.6,1c-7,0.1-13.8-1.3-20.2-4.1
		c-0.2-0.1-0.3-0.1-0.6-0.2c0.2,0.3,0.3,0.4,0.4,0.6c5.1,7.2,11.7,12.5,19.9,15.8c1,0.4,1.5,1,1.5,2.1c0.1,8.2-1.6,16-5.4,23.4
		c-0.1,0.2-0.2,0.5-0.4,0.8c0.2,0,0.3,0,0.4,0c5.3-0.4,10.5-1.4,15.6-3c14.4-4.5,26.3-12.8,35.6-24.6c5.7-7.2,9.8-15.2,12.5-24
		c2-6.6,3-13.4,3.1-20.4c0-3.9-0.2-7.9-0.8-11.8c-1-6.9-3.1-13.5-6-19.9c-0.3-0.6-0.6-0.8-1.2-0.9c-3.2-0.5-6.3-0.5-9.5,0.1
		c-10.4,1.9-19.1,10.3-21.2,20.6c-0.3,1.2-0.5,1.5-1.8,1.8c-6.3,1.2-12.6,1.2-18.9-0.2c-10.4-2.2-19.2-7.3-26.3-15.3
		C247.3,149.1,246,147.3,244.6,145.5z M360.7,185.8c-0.3-9.9-3.5-18.9-9.8-26.7c-5.2-6.5-11.8-11.2-19.7-14.1
		c0.1,0.2,0.1,0.3,0.2,0.4c4,9.4,6.1,19.2,6.2,29.5c0,1.1,0,1.1,1.1,1.3c5.6,0.9,10.9,2.8,15.9,5.5
		C356.8,182.8,358.7,184.4,360.7,185.8z M337.5,179.2c-0.2,4.7-0.9,9.3-2,14c4.9-3,8.4-6.9,10.8-11.9
		C344.5,180.6,338.6,179.1,337.5,179.2z"/>
	<path d="M323.1,154c2.9,0,5.3,2.3,5.3,5.2c0,2.9-2.3,5.3-5.2,5.3c-2.9,0-5.3-2.4-5.3-5.2C317.8,156.4,320.2,154,323.1,154z"/>
</g>
</svg>
