<svg width="98" height="106" viewBox="0 0 98 106" fill="none" xmlns="http://www.w3.org/2000/svg">
<path d="M92.7922 55.2776C84.0484 83.2729 58.4166 103.809 27.8311 104.951C32.1014 98.1105 34.5708 90.0258 34.5708 81.3666C34.5708 80.8549 34.5583 80.3474 34.5415 79.8398C24.4854 75.8636 16.2217 68.3326 11.2953 58.7946C17.2677 62.4605 24.1709 64.7548 31.5668 65.2476C32.5604 65.3147 33.5604 65.3504 34.5708 65.3504C34.8538 65.3504 35.1326 65.3441 35.4136 65.3399C33.9608 65.0253 32.5353 64.6395 31.1391 64.1865C20.9258 60.8708 12.3267 53.9711 6.83221 44.9658C5.66246 43.0469 4.63316 41.0336 3.75899 38.9406C2.54312 36.0318 1.62703 32.9657 1.05054 29.7822C2.73179 31.5375 4.5556 33.1566 6.50099 34.6204C10.9997 38.001 16.1609 40.5491 21.7518 42.0402C16.0099 36.7784 11.6496 30.0317 9.28072 22.4085C8.29335 19.2334 7.65397 15.9051 7.40032 12.4699C7.32065 11.3752 7.27663 10.2679 7.27663 9.1522C7.27663 6.38601 7.53029 3.67855 8.01244 1.05078C9.25137 3.35558 10.6853 5.53875 12.2952 7.57721C13.3057 8.85649 14.3853 10.0792 15.5278 11.2389C21.6973 17.5074 29.7052 21.9576 38.6775 23.7171C41.4657 24.2645 44.3481 24.5539 47.2976 24.5539C50.3122 24.5539 53.2554 24.2498 56.1043 23.6794C58.2698 12.774 67.001 4.23221 78.0026 2.35313C79.4909 2.09937 81.0213 1.96515 82.5809 1.96515C84.6752 1.96515 86.7107 2.20423 88.6687 2.65513C93.3665 12.1344 96.01 22.8132 96.01 34.1108C96.01 34.6791 96.0016 35.2432 95.9891 35.8074" stroke="#323232" stroke-width="3" stroke-linecap="round" stroke-linejoin="round"/>
</svg>
