<svg width="209" height="166" viewBox="0 0 209 166" fill="none" xmlns="http://www.w3.org/2000/svg">
<path d="M207.389 37.5397C207.288 37.4528 207.185 37.366 207.084 37.2771C206.903 37.2812 206.721 37.2872 206.539 37.2872C203.994 37.2872 201.542 36.8893 199.24 36.1561C198.789 36.0127 198.349 35.8532 197.911 35.6855C197.095 35.3725 196.299 35.021 195.529 34.6231C194.495 34.0899 193.503 33.4819 192.564 32.8094C190.454 31.2986 188.597 29.4545 187.072 27.3559C185.935 25.7906 184.984 24.0819 184.247 22.2621C183.851 21.2865 183.518 20.2786 183.251 19.2445C182.758 17.3257 182.494 15.314 182.494 13.2417C182.494 12.3772 182.54 11.5229 182.631 10.6806C182.774 9.90502 182.942 9.13952 183.132 8.38211C183.734 5.96847 184.562 3.64572 185.594 1.43809C185.65 1.31691 185.707 1.1937 185.764 1.07251C185.766 1.06645 185.77 1.06039 185.772 1.05433C185.731 1.05433 185.689 1.05837 185.648 1.06039C185.457 1.07049 185.267 1.08463 185.075 1.09675C178.723 1.52292 172.795 3.49019 167.658 6.63095C165.079 8.2084 162.698 10.0787 160.565 12.1995H160.5C160.583 10.2464 160.902 8.35181 161.425 6.54612C161.629 5.84526 161.863 5.15651 162.126 4.48191C162.572 3.34073 163.104 2.24197 163.712 1.19572C163.736 1.1533 163.76 1.10887 163.786 1.06443C163.798 1.04424 163.809 1.02606 163.821 1.00586C163.59 1.06847 163.362 1.13715 163.136 1.20582C162.825 1.27651 162.518 1.35124 162.211 1.42799C156.642 2.41365 151.49 4.59905 147.024 7.70548C145.433 8.81232 143.93 10.0363 142.524 11.3653C142.449 11.436 142.373 11.5067 142.298 11.5774C142.185 11.6865 142.074 11.7996 141.961 11.9086C134.883 18.885 130.492 28.582 130.492 39.305C130.492 42.9689 131.005 46.5116 131.961 49.8664C130.434 52.1589 128.761 54.3443 126.954 56.4085C124.453 59.2645 121.698 61.8902 118.723 64.2513C116.265 66.2024 113.657 67.9758 110.918 69.5431C107.782 71.3407 104.471 72.8738 101.024 74.1119C96.0933 75.8832 90.8762 77.0507 85.4612 77.5294C83.6272 77.6909 81.769 77.7738 79.8926 77.7738C73.601 77.7738 67.5275 76.8386 61.8014 75.1097C60.8804 74.8309 59.9654 74.534 59.0626 74.2149C52.9629 72.0598 47.2994 68.9837 42.2358 65.1582C41.8217 64.8451 41.4077 64.528 41.0017 64.2028C26.6067 52.7507 17.3783 35.0836 17.3783 15.2595C17.3783 13.3366 17.4652 11.434 17.6369 9.5556C17.6934 8.93351 17.7621 8.31343 17.8368 7.69538C17.8853 7.45906 17.9176 7.21669 17.9297 6.97028C17.9338 6.88545 17.9358 6.80062 17.9358 6.71377C17.9358 4.05775 15.7827 1.90466 13.1267 1.90466C11.4907 1.90466 10.0485 2.72065 9.17801 3.96888C9.00027 4.22337 8.84677 4.49806 8.71952 4.78487C3.80539 13.7224 1.01001 23.9768 1.01001 34.8877C1.01001 50.7915 6.95221 65.3056 16.734 76.3397C19.3921 79.3391 22.3349 82.0799 25.5201 84.5219C23.8295 89.1411 22.9045 94.1279 22.9045 99.3329C22.9045 105.998 24.4173 112.31 27.1177 117.945C27.1965 118.111 27.2793 118.274 27.3621 118.438C27.5055 118.727 27.6509 119.016 27.8024 119.3C27.8893 119.468 27.9761 119.636 28.065 119.801C27.7277 121.7 27.5298 123.647 27.4813 125.633C27.6247 128.565 27.8852 131.466 28.2569 134.334C29.6222 144.873 32.4944 154.938 36.6491 164.309H65.5663C65.1967 163.57 64.8311 162.829 64.4756 162.079C60.7289 154.162 57.9093 145.719 56.1561 136.895C65.5724 140.89 75.6652 143.598 86.2166 144.8C90.3107 145.267 94.4714 145.507 98.6907 145.507C105.285 145.507 111.743 144.921 118.014 143.798C127.125 142.168 135.845 139.403 144.021 135.659C145.752 144.932 148.658 153.792 152.579 162.079C152.932 162.829 153.298 163.57 153.667 164.309H183.12C182.696 163.572 182.275 162.829 181.867 162.079C176.374 151.997 172.423 140.953 170.338 129.26C169.438 126.392 168.745 123.433 168.278 120.397C167.812 117.368 167.567 114.263 167.567 111.102C167.567 105.705 168.276 100.472 169.599 95.4933C171.369 88.8361 174.243 82.6293 178.014 77.081C177.967 76.9658 177.921 76.8507 177.872 76.7376C177.905 76.7295 177.939 76.7214 177.971 76.7134C178.09 76.6851 178.208 76.6588 178.327 76.6285C178.222 76.778 178.117 76.9275 178.014 77.079L178.658 76.5437C186.436 74.5219 193.257 70.1309 198.302 64.1826C200.5 61.5933 202.356 58.709 203.812 55.5986C204.22 54.728 204.598 53.8393 204.941 52.9345C206.547 48.699 207.426 44.108 207.426 39.311C207.426 38.7172 207.41 38.1274 207.383 37.5397H207.389Z" stroke="#323232" stroke-width="3" stroke-linecap="round" stroke-linejoin="round"/>
</svg>
