<?xml version="1.0" encoding="utf-8"?>
<!-- Generator: Adobe Illustrator 26.1.0, SVG Export Plug-In . SVG Version: 6.00 Build 0)  -->
<svg version="1.1" id="Layer_1" xmlns="http://www.w3.org/2000/svg" xmlns:xlink="http://www.w3.org/1999/xlink" x="0px" y="0px"
	 viewBox="0 0 841.89 595.28" style="enable-background:new 0 0 841.89 595.28;" xml:space="preserve">
<style type="text/css">
	.st0{fill:#D152FF;}
</style>
<g>
	<path class="st0" d="M494.72,246.54c-4.4-6.92-4.78-14.28-1.57-21.96c-4.7,0.6-8.9,1.92-12.68,4.3c-2.35,1.48-4.48,3.31-6.66,5.04
		c-0.66,0.53-1.29,0.76-2.04,0.44c-0.73-0.31-0.89-0.99-0.82-1.72c0.09-0.9,0.12-1.82,0.31-2.71c0.35-1.6,0.79-3.17,1.22-4.85
		c-0.31,0.06-0.59,0.1-0.86,0.17c-5.75,1.51-10.82,4.29-14.98,8.53c-9.02,9.21-11.96,20.16-8.98,32.7c0.21,0.89,0.13,1.6-0.39,2.37
		c-13.32,19.6-37.36,29.33-60.51,24.48c-27.92-5.85-47.55-30.72-46.72-59.23c0.06-2.01,0.31-4.01,0.41-6.02
		c0.07-1.4-0.75-2.46-2.06-2.83c-1.28-0.37-2.59,0.15-3.24,1.34c-6.51,11.8-8.58,24.37-6.08,37.59c2.59,13.67,9.52,24.78,20.4,33.44
		c1.1,0.87,1.19,1.25,0.74,2.61c-3.42,10.28-2.72,20.26,2.12,29.96c0.3,0.6,0.38,1.36,0.37,2.04c-0.02,2.56-0.34,5.13-0.16,7.67
		c0.73,10.35,3.24,20.29,7.21,29.88c0.28,0.68,0.64,0.89,1.37,0.89c6.96-0.03,13.91-0.02,20.87-0.02c0.31,0.02,0.62,0.02,0.92,0.02
		c0.03-0.16,0.06-0.24,0.04-0.29c-0.09-0.24-0.2-0.48-0.31-0.71c-3.22-7.08-5.63-14.41-7.1-22.05c-0.1-0.51,0.13-1.21,0.45-1.65
		c0.42-0.57,1.13-0.54,1.78-0.23c0.2,0.1,0.42,0.18,0.63,0.27c11.83,4.87,24.15,7.37,36.94,7.45c14.22,0.09,27.82-2.85,40.8-8.64
		c1.71-0.76,2.54-0.32,2.89,1.49c1.58,8.15,4.14,15.97,7.71,23.47c0.31,0.64,0.65,0.9,1.38,0.89c7.15-0.03,14.3-0.02,21.46-0.02
		c0.27,0,0.54-0.03,0.9-0.05c-0.21-0.42-0.36-0.74-0.53-1.05c-3.02-5.77-5.57-11.74-7.31-18.02c-1.3-4.69-2.44-9.42-3.51-14.17
		c-0.64-2.84-1.22-5.73-1.48-8.63c-1.14-12.96,1.77-24.96,8.73-35.97c0.17-0.27,0.35-0.56,0.42-0.87c0.2-0.84,0.75-1.2,1.54-1.42
		c13.01-3.65,21.21-12.05,24.65-25.09c0.67-2.54,0.91-5.16,0.85-7.84C505.63,256.98,499.12,253.47,494.72,246.54z"/>
	<path class="st0" d="M435.45,354.69c1.27,5.33,2.95,10.4,5.01,15.35c0.27,0.65,0.68,0.64,1.22,0.64c7.01-0.01,14.03,0,21.04-0.01
		c0.28,0,0.56-0.03,0.97-0.05c-3.36-7.21-5.84-14.6-7.47-22.4C449.48,351.14,442.57,353.24,435.45,354.69z"/>
	<path class="st0" d="M402.39,355.64c-3.41-0.61-6.85-1.08-10.2-1.92c-4.33-1.09-8.58-2.48-12.93-3.75c0.01,0.09,0,0.29,0.05,0.47
		c1.63,6.69,3.88,13.15,6.84,19.37c0.31,0.64,0.64,0.89,1.38,0.89c7.11-0.03,14.23-0.02,21.34-0.02c0.31,0,0.61-0.03,1-0.06
		c-0.19-0.39-0.34-0.67-0.47-0.96c-1.91-4.33-3.85-8.65-5.7-13C403.41,355.97,403.04,355.75,402.39,355.64z"/>
</g>
<g>
	<path d="M474.63,229.41c0.37-0.26,0.64-0.44,0.89-0.63c5.87-4.3,12.44-6.65,19.7-7.11c1.49-0.09,2.18,0.95,1.66,2.36
		c-0.81,2.18-1.77,4.34-2.28,6.6c-1.29,5.63-0.06,10.87,3.29,15.51c4.05,5.63,9.63,8.55,16.62,8.61c1.64,0.02,2.32,0.68,2.39,2.38
		c0.69,16.02-9.95,31.07-25.51,35.99c-1.28,0.4-2.08,1.06-2.76,2.17c-5.27,8.59-8.04,17.88-8.14,27.97
		c-0.06,5.64,0.8,11.11,2.33,16.52c0.97,3.4,1.51,6.91,2.47,10.31c2.1,7.47,5.1,14.57,8.99,21.29c0.89,1.54,0.21,2.71-1.59,2.71
		c-5.14,0.01-10.27,0.01-15.41,0.01c-12.19,0-24.38-0.01-36.57,0.02c-1.39,0-2.18-0.47-2.74-1.79c-2.22-5.28-4.04-10.68-5.42-16.24
		c-0.04-0.15-0.08-0.3-0.15-0.56c-8.47,1.36-16.95,1.65-25.63,0.93c0.17,0.49,0.29,0.87,0.43,1.24c1.8,4.71,3.94,9.25,6.43,13.64
		c0.92,1.62,0.27,2.76-1.59,2.76c-17.42,0.01-34.85,0-52.27,0.01c-1.11,0-1.79-0.42-2.25-1.47c-4.23-9.8-6.89-19.99-7.92-30.61
		c-0.3-3.11-0.52-6.21,0-9.33c0.07-0.41-0.05-0.91-0.24-1.29c-4.8-9.85-5.57-20.03-2.44-30.51c0.19-0.62,0.11-0.95-0.41-1.38
		c-10.98-9.18-17.96-20.76-20.52-34.86c-2.41-13.3-0.42-25.99,5.84-37.99c0.3-0.57,0.59-1.16,0.96-1.69
		c1.56-2.31,4.51-3.1,7.06-2.09c2.59,1.02,3.97,3.68,3.63,6.44c-0.98,7.87-0.41,15.64,2.04,23.21
		c5.59,17.29,16.92,29.21,33.82,35.82c7.18,2.81,14.7,3.89,22.37,3.41c15.9-1.01,29.09-7.58,39.5-19.67
		c1.04-1.2,1.95-2.51,2.95-3.75c0.4-0.5,0.48-0.96,0.33-1.61c-4.31-18.6,5.85-37.08,23.8-43.27c2.23-0.77,4.56-1.27,6.87-1.77
		c0.45-0.1,1.27,0.21,1.48,0.58c0.27,0.47,0.27,1.25,0.07,1.79c-0.57,1.58-1.3,3.1-1.95,4.65
		C474.68,228.87,474.69,229.07,474.63,229.41z M382.91,371c0.03-0.16,0.06-0.24,0.04-0.29c-0.09-0.24-0.2-0.48-0.31-0.71
		c-3.22-7.08-5.63-14.41-7.1-22.05c-0.1-0.51,0.13-1.21,0.45-1.65c0.42-0.57,1.13-0.54,1.78-0.23c0.2,0.1,0.42,0.18,0.63,0.27
		c11.83,4.87,24.15,7.37,36.94,7.45c14.22,0.09,27.82-2.85,40.8-8.64c1.71-0.76,2.54-0.32,2.89,1.49
		c1.58,8.15,4.14,15.97,7.71,23.47c0.31,0.64,0.65,0.9,1.38,0.89c7.15-0.03,14.3-0.02,21.46-0.02c0.27,0,0.54-0.03,0.9-0.05
		c-0.21-0.42-0.36-0.74-0.53-1.05c-3.02-5.77-5.57-11.74-7.31-18.02c-1.3-4.69-2.44-9.42-3.51-14.17c-0.64-2.84-1.22-5.73-1.48-8.63
		c-1.14-12.96,1.77-24.96,8.73-35.97c0.17-0.27,0.35-0.56,0.42-0.87c0.2-0.84,0.75-1.2,1.54-1.42
		c13.01-3.65,21.21-12.05,24.65-25.09c0.67-2.54,0.91-5.16,0.85-7.84c-8.21-0.56-14.72-4.07-19.12-11
		c-4.4-6.92-4.78-14.28-1.57-21.96c-4.7,0.6-8.9,1.92-12.68,4.3c-2.35,1.48-4.48,3.31-6.66,5.04c-0.66,0.53-1.29,0.76-2.04,0.44
		c-0.73-0.31-0.89-0.99-0.82-1.72c0.09-0.9,0.12-1.82,0.31-2.71c0.35-1.6,0.79-3.17,1.22-4.85c-0.31,0.06-0.59,0.1-0.86,0.17
		c-5.75,1.51-10.82,4.29-14.98,8.53c-9.02,9.21-11.96,20.16-8.98,32.7c0.21,0.89,0.13,1.6-0.39,2.37
		c-13.32,19.6-37.36,29.33-60.51,24.48c-27.92-5.85-47.55-30.72-46.72-59.23c0.06-2.01,0.31-4.01,0.41-6.02
		c0.07-1.4-0.75-2.46-2.06-2.83c-1.28-0.37-2.59,0.15-3.24,1.34c-6.51,11.8-8.58,24.37-6.08,37.59c2.59,13.67,9.52,24.78,20.4,33.44
		c1.1,0.87,1.19,1.25,0.74,2.61c-3.42,10.28-2.72,20.26,2.12,29.96c0.3,0.6,0.38,1.36,0.37,2.04c-0.02,2.56-0.34,5.13-0.16,7.67
		c0.73,10.35,3.24,20.29,7.21,29.88c0.28,0.68,0.64,0.89,1.37,0.89c6.96-0.03,13.91-0.02,20.87-0.02
		C382.3,371,382.61,371,382.91,371z M456.22,348.55c-6.74,2.92-13.65,5.02-20.77,6.47c1.27,5.33,2.95,10.4,5.01,15.35
		c0.27,0.65,0.68,0.64,1.22,0.64c7.01-0.01,14.03,0,21.04-0.01c0.28,0,0.56-0.03,0.97-0.05
		C460.33,363.74,457.85,356.35,456.22,348.55z M379.26,350.3c0.01,0.09,0,0.29,0.05,0.47c1.63,6.69,3.88,13.15,6.84,19.37
		c0.31,0.64,0.64,0.89,1.38,0.89c7.11-0.03,14.23-0.02,21.34-0.02c0.31,0,0.61-0.03,1-0.06c-0.19-0.39-0.34-0.67-0.47-0.96
		c-1.91-4.33-3.85-8.65-5.7-13c-0.29-0.69-0.66-0.91-1.31-1.02c-3.41-0.61-6.85-1.08-10.2-1.92
		C387.86,352.96,383.61,351.57,379.26,350.3z"/>
	<path d="M480.49,254.83c-0.02-3.73,2.94-6.72,6.64-6.72c3.73,0,6.71,2.94,6.74,6.65c0.03,3.67-2.98,6.72-6.67,6.75
		S480.5,258.55,480.49,254.83z"/>
</g>
</svg>
