<svg width="46" height="36" viewBox="0 0 46 36" fill="none" xmlns="http://www.w3.org/2000/svg">
<path d="M35.5314 9.6448C35.9046 9.6448 36.2779 9.62663 36.6512 9.6448C39.5306 9.86276 41.468 12.8052 40.5793 15.6206C40.4726 15.9475 40.5615 16.0928 40.7748 16.3108C43.5476 18.7992 45.2362 21.9051 45.8049 25.6468C46.036 27.1907 45.9827 28.7346 45.9116 30.2785C45.8405 31.6589 45.7161 33.0575 45.6094 34.4379C45.6094 34.6559 45.5383 34.892 45.485 35.11C45.325 35.7457 44.9873 36.0182 44.3475 36.0182C42.2856 36.0182 40.2416 36.0182 38.1798 36.0182C30.4124 36.0182 22.6628 36.0182 14.8954 36.0182C10.4518 36.0182 5.99042 36.0182 1.54683 36.0182C0.92473 36.0182 0.533695 35.7457 0.427048 35.1281C0.267079 34.2563 0.124885 33.3663 0.0893359 32.4763C0.0182385 30.551 -0.106182 28.6075 0.000464175 26.6821C0.195982 23.2129 1.54683 20.1978 3.80417 17.6004C4.08856 17.2735 4.39073 16.9465 4.72844 16.6559C4.97728 16.4379 5.04838 16.22 5.0306 15.8749C4.85286 13.9314 5.59938 12.442 7.19907 11.4067C7.92782 10.9344 8.74544 10.7346 9.59861 10.7709C9.8119 10.7709 9.91855 10.7346 9.98965 10.5166C10.9495 7.66498 13.3668 5.97578 16.3173 6.08476C16.5839 6.08476 16.7083 6.0121 16.8328 5.75781C18.4147 2.59737 20.8498 0.672042 24.2447 0.127138C27.7462 -0.417766 30.7145 0.726532 33.0785 3.41473C34.5716 5.10393 35.3359 7.12007 35.4781 9.39051C35.4781 9.445 35.4781 9.49949 35.4781 9.55398C35.4781 9.57214 35.4958 9.59031 35.5136 9.62663L35.5314 9.6448ZM22.9471 33.893C26.7686 33.893 30.5901 33.893 34.4116 33.893C37.3621 33.893 40.3127 33.893 43.2632 33.893C43.5121 33.893 43.672 33.893 43.6898 33.5479C43.7609 31.9495 43.8675 30.3512 43.9386 28.7528C44.1164 24.3935 42.6411 20.7427 39.424 17.8184C39.0329 17.4551 38.6419 17.2916 38.0909 17.3098C35.1581 17.3824 32.2076 17.3824 29.2748 17.4188C24.7957 17.4733 20.3165 17.5277 15.8374 17.5822C12.8869 17.6186 9.91855 17.6367 6.96801 17.6912C6.82581 17.6912 6.64807 17.7457 6.54142 17.8365C3.69753 20.3976 2.15116 23.6307 2.06229 27.4995C2.00897 29.4611 2.18671 31.4228 2.27558 33.4026C2.29335 33.9112 2.24003 33.893 2.79104 33.893C9.50974 33.893 16.2462 33.893 22.9649 33.893H22.9471ZM7.1102 15.5843C7.28794 15.5843 7.44791 15.5843 7.60788 15.5843C11.1272 15.5479 14.6287 15.4934 18.1481 15.4571C22.9294 15.4026 27.7284 15.3481 32.5097 15.2936C34.4116 15.2755 36.3134 15.2391 38.2331 15.2391C38.5175 15.2391 38.6419 15.1483 38.713 14.8577C38.944 13.8406 38.5886 12.8234 37.7532 12.2058C36.9711 11.6246 35.8691 11.5701 35.0159 12.0969C34.6071 12.3512 34.2161 12.3693 33.825 12.0969C33.4518 11.8426 33.3629 11.4611 33.4162 11.0071C33.5584 9.82643 33.4518 8.66397 33.0963 7.53783C31.9054 3.74167 27.9951 1.41674 24.1913 2.28859C21.3475 2.94248 19.4278 4.7225 18.4325 7.51967C18.1836 8.19172 17.757 8.44601 17.0638 8.3007C16.7794 8.24621 16.4951 8.19172 16.2107 8.17356C13.9178 8.1009 12.1226 9.69929 11.8026 12.0605C11.7849 12.2422 11.7315 12.4238 11.6427 12.5873C11.376 13.0232 10.9139 13.1685 10.3807 12.9869C9.29645 12.6418 8.26553 12.9505 7.59011 13.8587C7.21685 14.3491 7.05688 14.9304 7.12798 15.5843H7.1102Z" fill="black"/>
</svg>
