<?xml version="1.0" encoding="utf-8"?>
<!-- Generator: Adobe Illustrator 26.1.0, SVG Export Plug-In . SVG Version: 6.00 Build 0)  -->
<svg version="1.1" id="a" xmlns="http://www.w3.org/2000/svg" xmlns:xlink="http://www.w3.org/1999/xlink" x="0px" y="0px"
	 viewBox="0 0 40 40" style="enable-background:new 0 0 40 40;" xml:space="preserve">
<style type="text/css">
	.st0{stroke:#000000;stroke-miterlimit:10;}
</style>
<g>
	<path class="st0" d="M28.99,1.61c0,1.36,0,2.54,0,3.83c0.82,0,1.6,0,2.39,0c2.54,0,5.07,0,7.61,0c0.46,0,0.97-0.01,0.97,0.83
		c0,0.83-0.51,0.85-0.97,0.85C36,7.12,33.01,7.12,30.02,7.12c-0.33,0-0.66,0-1.03,0c0,1.65,0,3.19,0,4.86c0.33,0,0.63,0,0.93,0
		c2.93,0,5.86,0,8.79,0c0.25,0,0.54-0.05,0.75,0.08c0.21,0.14,0.49,0.5,0.47,0.72c-0.03,0.31-0.27,0.66-0.5,0.83
		c-0.19,0.14-0.49,0.06-0.75,0.06c-2.9,0-5.8,0-8.71,0c-0.3,0-0.61,0-0.97,0c0,1.62,0,3.15,0,4.82c0.31,0.02,0.64,0.06,0.96,0.06
		c2.9,0,5.8,0,8.71,0c0.25,0,0.55-0.07,0.75,0.07c0.23,0.16,0.51,0.53,0.51,0.79c-0.01,0.27-0.31,0.65-0.54,0.75
		c-0.3,0.13-0.67,0.04-1.01,0.04c-3.1,0-6.19,0-9.36,0c0,1.65,0,3.24,0,4.94c0.86,0,1.7,0,2.54,0c2.39,0,4.79-0.01,7.18,0.01
		c0.5,0,1.21-0.24,1.2,0.83c-0.02,1.09-0.76,0.76-1.23,0.76c-2.9,0.03-5.8,0.01-8.71,0.01c-0.31,0-0.61,0-0.99,0
		c0,1.64,0,3.2,0,4.92c0.28,0,0.58,0,0.88,0c2.96,0,5.92,0,8.87,0c0.22,0,0.49-0.07,0.67,0.05c0.21,0.15,0.51,0.48,0.49,0.71
		c-0.02,0.3-0.25,0.69-0.48,0.84c-0.23,0.15-0.55,0.07-0.83,0.07c-3.18,0-6.36,0-9.61,0c0,1.45,0,2.84,0,4.37c0.3,0,0.6,0,0.9,0
		c3.01,0,6.03-0.01,9.04,0.02c0.32,0,0.76,0.17,0.93,0.47c0.32,0.54-0.03,1.07-0.72,1.08c-2.17,0.02-4.34,0.01-6.51,0.01
		c-1.3,0-2.59,0-3.89,0c-1.04,0-1.14-0.13-1.14-1.51c0-8.09,0-16.18,0-24.27c0-3.97,0-7.95,0-11.92c0-1.47,0.09-1.58,1.26-1.58
		c3.38,0,6.76,0,10.14,0c0.45,0,0.89,0.01,0.92,0.77c0.03,0.86-0.49,0.84-0.94,0.84c-2.59,0.01-5.18,0-7.78,0
		C30.5,1.61,29.78,1.61,28.99,1.61z"/>
	<path class="st0" d="M17.61,28.31c-1.83-3.52-3.64-6.99-5.5-10.57c-1.78,3.6-3.51,7.1-5.26,10.65c1.18,1.06,2.09,2.3,2.38,4.1
		c0.38,2.44-0.12,4.52-1.63,6.11c-1.49,1.56-3.2,1.82-4.91,0.77c-1.7-1.04-2.57-2.85-2.69-5.34c-0.16-3.29,2.14-6.47,4.99-6.26
		c0.29,0.02,0.71-0.24,0.87-0.55c1.73-3.42,3.41-6.88,5.13-10.3c0.31-0.62,0.16-1.03-0.11-1.54c-2.19-4.2-4.37-8.41-6.55-12.62
		C4.26,2.62,4.17,2.47,4.1,2.32c-0.26-0.53-0.6-1.11,0-1.57C4.63,0.33,4.91,0.9,5.17,1.39c1.82,3.51,3.65,7.03,5.47,10.54
		c0.42,0.81,0.84,1.62,1.34,2.57c0.59-1.13,1.13-2.16,1.66-3.19c1.71-3.35,3.42-6.7,5.13-10.05c0.14-0.27,0.27-0.61,0.47-0.74
		c0.21-0.14,0.58-0.2,0.74-0.05c0.16,0.15,0.27,0.64,0.21,0.91c-0.11,0.47-0.37,0.89-0.58,1.31c-2.13,4.16-4.26,8.33-6.41,12.47
		c-0.33,0.63-0.35,1.09-0.01,1.73c1.77,3.34,3.51,6.72,5.24,10.1c0.27,0.53,0.51,0.78,1.07,0.66c2-0.41,4.09,1.22,4.87,3.68
		c0.83,2.64,0.16,5.61-1.66,7.32c-1.62,1.52-3.99,1.42-5.58-0.22c-1.68-1.75-2.26-4.77-1.36-7.22c0.2-0.55,0.46-1.08,0.76-1.55
		C16.82,29.18,17.2,28.8,17.61,28.31z M23.39,33.67c0.02-2.43-1.42-4.38-3.29-4.42c-1.94-0.05-3.48,1.89-3.5,4.39
		c-0.01,2.41,1.53,4.44,3.39,4.46C21.86,38.12,23.37,36.15,23.39,33.67z M4.65,29.46c-1.8-0.03-3.35,1.94-3.41,4.33
		c-0.06,2.42,1.54,4.53,3.43,4.53c1.86,0,3.37-1.97,3.38-4.45C8.07,31.43,6.57,29.5,4.65,29.46z"/>
</g>
</svg>
