<svg width="17" height="17" viewBox="0 0 17 17" fill="none" xmlns="http://www.w3.org/2000/svg">
<path fill-rule="evenodd" clip-rule="evenodd" d="M8.5 15C12.0899 15 15 12.0899 15 8.5C15 4.91015 12.0899 2 8.5 2C4.91015 2 2 4.91015 2 8.5C2 12.0899 4.91015 15 8.5 15ZM8.5 16.5C12.9183 16.5 16.5 12.9183 16.5 8.5C16.5 4.08172 12.9183 0.5 8.5 0.5C4.08172 0.5 0.5 4.08172 0.5 8.5C0.5 12.9183 4.08172 16.5 8.5 16.5Z" fill="#989898"/>
<path d="M8.47225 10.0983C8.84831 10.0983 9.05487 9.88764 9.13432 9.52572C9.20318 9.07198 9.36208 8.8397 10.0665 8.42377C10.8133 7.97542 11.2 7.41904 11.2 6.60337C11.2 5.34476 10.1883 4.50209 8.68411 4.50209C7.54534 4.50209 6.69788 4.96124 6.3589 5.67427C6.25297 5.87954 6.2 6.08481 6.2 6.31708C6.2 6.72761 6.45953 6.9923 6.87797 6.9923C7.20106 6.9923 7.43941 6.84105 7.57182 6.49534C7.74131 6.01458 8.09089 5.7553 8.60996 5.7553C9.19258 5.7553 9.59513 6.12262 9.59513 6.65199C9.59513 7.14895 9.38856 7.41904 8.7053 7.83497C8.0803 8.2077 7.7572 8.62903 7.7572 9.26644V9.34206C7.7572 9.78501 8.02203 10.0983 8.47225 10.0983ZM8.48284 12.5021C8.96483 12.5021 9.35148 12.1294 9.35148 11.654C9.35148 11.1787 8.96483 10.8059 8.48284 10.8059C8.00614 10.8059 7.61949 11.1787 7.61949 11.654C7.61949 12.1294 8.00614 12.5021 8.48284 12.5021Z" fill="#989898"/>
</svg>
