<svg width="35" height="39" viewBox="0 0 35 39" fill="none" xmlns="http://www.w3.org/2000/svg">
<path fill-rule="evenodd" clip-rule="evenodd" d="M0.5 20.5204C0.5 15.4005 4.78762 11.25 10.0767 11.25C12.8229 11.25 15.268 12.4579 17.375 14.782C19.482 12.4579 21.9271 11.25 24.6733 11.25C29.9624 11.25 34.25 15.4005 34.25 20.5204C34.25 25.6522 32.1297 28.2208 23.2545 34.9029L19.1768 37.973C18.117 38.7709 16.633 38.7709 15.5732 37.973L11.4955 34.9029C2.62035 28.2208 0.5 25.6522 0.5 20.5204ZM18.9821 22.5C18.9821 21.6124 18.2626 20.8929 17.375 20.8929C16.4874 20.8929 15.7679 21.6124 15.7679 22.5V25.7143C15.7679 26.6019 16.4874 27.3214 17.375 27.3214C18.2626 27.3214 18.9821 26.6019 18.9821 25.7143V22.5Z" fill="#989898"/>
<path fill-rule="evenodd" clip-rule="evenodd" d="M8.53571 8.83929C8.53571 3.95748 12.4932 0 17.375 0C18.2626 0 18.9821 0.719542 18.9821 1.60714C18.9821 2.49474 18.2626 3.21429 17.375 3.21429C14.2684 3.21429 11.75 5.73268 11.75 8.83929V12.8571C11.75 13.7447 11.0305 14.4643 10.1429 14.4643C9.25526 14.4643 8.53571 13.7447 8.53571 12.8571V8.83929Z" fill="#989898"/>
<path fill-rule="evenodd" clip-rule="evenodd" d="M26.2143 8.83929C26.2143 3.95748 22.2568 0 17.375 0C16.4874 0 15.7679 0.719542 15.7679 1.60714C15.7679 2.49474 16.4874 3.21429 17.375 3.21429C20.4816 3.21429 23 5.73268 23 8.83929V12.8571C23 13.7447 23.7195 14.4643 24.6071 14.4643C25.4947 14.4643 26.2143 13.7447 26.2143 12.8571V8.83929Z" fill="#989898"/>
</svg>
