<?xml version="1.0" encoding="utf-8"?>
<!-- Generator: Adobe Illustrator 26.1.0, SVG Export Plug-In . SVG Version: 6.00 Build 0)  -->
<svg version="1.1" id="a" xmlns="http://www.w3.org/2000/svg" xmlns:xlink="http://www.w3.org/1999/xlink" x="0px" y="0px"
	 viewBox="0 0 33.75 38.57" style="enable-background:new 0 0 33.75 38.57;" xml:space="preserve">
<style type="text/css">
	.st0{fill-rule:evenodd;clip-rule:evenodd;fill:#C4C4C4;}
</style>
<path class="st0" d="M25.71,11.38V8.84c0-4.88-3.96-8.84-8.84-8.84S8.04,3.96,8.04,8.84v2.54C3.48,12.1,0,15.91,0,20.52
	c0,5.13,2.12,7.7,11,14.38l4.08,3.07c1.06,0.8,2.54,0.8,3.6,0l4.08-3.07c8.88-6.68,11-9.25,11-14.38
	C33.75,15.91,30.27,12.1,25.71,11.38z M18.48,25.71c0,0.89-0.72,1.61-1.61,1.61c-0.89,0-1.61-0.72-1.61-1.61V22.5
	c0-0.89,0.72-1.61,1.61-1.61c0.89,0,1.61,0.72,1.61,1.61V25.71z M16.88,14.78c-1.67-1.84-3.55-2.97-5.62-3.36V8.84
	c0-3.11,2.52-5.62,5.62-5.62c3.11,0,5.62,2.52,5.62,5.62v2.58C20.43,11.81,18.54,12.94,16.88,14.78z"/>
</svg>
