<?xml version="1.0" encoding="utf-8"?>
<!-- Generator: Adobe Illustrator 26.1.0, SVG Export Plug-In . SVG Version: 6.00 Build 0)  -->
<svg version="1.1" id="a" xmlns="http://www.w3.org/2000/svg" xmlns:xlink="http://www.w3.org/1999/xlink" x="0px" y="0px"
	 viewBox="0 0 375 340.11" style="enable-background:new 0 0 375 340.11;" xml:space="preserve">
<style type="text/css">
	.st0{clip-path:url(#SVGID_00000044866640087353597540000009714704431975176079_);}
</style>
<g>
	<defs>
		<rect id="SVGID_1_" y="-154.11" width="375" height="812"/>
	</defs>
	<clipPath id="SVGID_00000142134882724065871850000002413315524034237353_">
		<use xlink:href="#SVGID_1_"  style="overflow:visible;"/>
	</clipPath>
	<g style="clip-path:url(#SVGID_00000142134882724065871850000002413315524034237353_);">
		<path d="M-48.29,158.36c1.2-9.56,6.12-16.55,14.6-21.05c2.52-1.33,3.42-0.76,3.42,2.05c0,12.53,0,25.07,0.02,37.6
			c0,0.65,0.15,1.41,0.5,1.95c15.13,23.73,36.13,39.66,63.29,47.26c15.75,4.41,31.77,5.17,47.8,2.05
			c32.71-6.38,57.45-24.18,74.23-52.94c6.23-10.68,10.19-22.25,12.29-34.45c0.18-1.06,0.54-1.87,1.78-1.79
			c0.98,0.06,1.48,0.92,1.39,2.28c-0.17,2.6-0.17,5.23-0.55,7.8c-1.21,8.07-2.2,16.19-3.92,24.15
			c-4.79,22.09-13.15,42.74-25.64,61.66c-0.35,0.54-0.56,1.28-0.56,1.92c-0.03,11.23-0.03,22.46-0.02,33.68
			c0,0.6,0.05,1.22,0.18,1.81c2.57,11.37,3.39,22.86,2.38,34.48c-0.91,10.56-3.34,20.75-7.12,30.63c-0.52,1.36-1.29,1.89-2.81,1.88
			c-14.84-0.06-29.68-0.03-44.51-0.03c-11.88,0-23.76,0-35.64,0c-0.49,0-0.98,0-1.63,0c6.15-12.61,9.79-25.62,10.81-39.46
			c-10.38,0.57-20.51,0.32-30.6-0.82c-10.07-1.14-19.98-3.14-29.7-5.95c-0.08,0.18-0.14,0.25-0.15,0.34
			c-0.02,0.13-0.02,0.26-0.02,0.39c0.26,16.54-4.72,31.31-14.91,44.34c-0.69,0.89-1.4,1.2-2.51,1.19
			c-13.88-0.04-27.77-0.2-41.65,0.04c-10.22,0.18-20.09-1.27-29.67-4.72c-14.75-5.31-27.56-13.76-39.03-24.35
			c-1.78-1.65-3.47-3.42-5.11-5.21c-0.32-0.35-0.48-1.2-0.28-1.6c0.22-0.42,0.93-0.63,1.47-0.82c0.3-0.1,0.69,0.02,1.03,0.07
			c5.96,1,11.94,1.18,17.94,0.53c13.87-1.51,26.32-6.6,36.42-16.19c19.12-18.13,25.46-40.3,19.47-65.98
			c-1.1-4.73-3.41-8.96-5.4-13.29c-0.22,0.03-0.31,0.02-0.38,0.05c-0.28,0.12-0.56,0.25-0.83,0.38
			c-12.87,6.34-26.46,8.58-40.59,6.35c-21.47-3.39-37.9-14.6-49.07-33.23c-7.59-12.67-10.41-26.52-9.06-41.21
			c0.17-1.88,0.86-2.29,2.69-1.82c11.14,2.83,22.27,5.67,33.41,8.49c14.96,3.8,29.93,7.6,44.89,11.4c2.38,0.6,4.76,1.19,7.28,1.82
			c-0.03-0.4-0.04-0.61-0.07-0.81c-0.61-5.32,0.14-10.41,2.53-15.22c5.11-10.33,16.25-16.23,27.62-14.64
			c0.84,0.12,1.79,0.18,2.08,1.25c0.26,0.98-0.38,1.51-1.04,2.05c-5.28,4.33-8.22,9.92-8.8,16.71c-0.28,3.32,0.2,6.54,1.59,9.65
			c0.05-0.23,0.12-0.46,0.15-0.7L-48.29,158.36z M-140.93,160.24c-6.9,0.53-12.37-2.34-16.71-8.06c0.47,6.02,1.59,11.55,3.65,16.81
			c9.3,23.71,26.48,38.09,51.58,42.49c13.93,2.44,27.35,0.04,39.99-6.42c0.5-0.26,1-0.52,1.51-0.78c1.06-0.54,1.85-0.24,2.38,0.79
			c4.25,8.25,7.41,16.82,8.23,26.17c1.61,18.28-3.05,34.79-14.16,49.32c-10.79,14.12-25.26,22.31-42.71,25.3
			c-5.82,1-11.68,1.13-17.55,0.55c-0.26-0.03-0.52,0-0.88,0c0.09,0.19,0.12,0.36,0.22,0.45c13.36,12.6,28.45,22.27,46.35,27.09
			c6.76,1.82,13.65,2.65,20.66,2.2c0.53-0.03,1.12-0.18,1.57-0.47c16.33-10.46,26.48-25.14,29.98-44.26
			c0.65-3.57,0.72-7.25,1.05-10.88c0.04-0.38,0.05-0.77,0.09-1.4c40.69,19.51,82.69,22.93,126.17,11.02
			c0.66,15.94-2.05,31.17-8,46.08h1.57c12.49,0,24.98-0.02,37.47,0.03c1.11,0,1.58-0.36,1.95-1.37c5.59-15.22,7.87-30.89,6.3-47.04
			c-0.49-5-1.53-9.95-2.31-14.93c-0.11-0.68-0.17-1.38-0.17-2.08c-0.01-11.53-0.03-23.06,0.03-34.59c0-0.89,0.31-1.9,0.8-2.64
			c12.36-18.63,20.55-38.99,25.41-60.74c0.87-3.9,1.55-7.83,2.11-11.83c-0.41,0.99-0.82,1.97-1.22,2.96
			c-6.58,16.42-16.62,30.39-29.94,41.98c-15.24,13.26-32.84,21.71-52.71,25.35c-12.21,2.24-24.48,2.4-36.75,0.46
			c-25.34-4.01-46.73-15.51-64.32-34.13c-5.09-5.39-9.54-11.29-13.39-17.63c-0.4-0.66-0.65-1.53-0.65-2.31
			c-0.04-11.75-0.03-23.5-0.03-35.25v-1.71c-2.68,1.4-4.78,3.19-6.53,5.36c-4.59,5.7-6.35,12.17-5.04,19.42
			c0.17,0.95,0.24,1.92-0.78,2.37c-1,0.44-1.68-0.19-2.28-1c-7.44-9.95-6.8-23.82,1.57-33.5c0.28-0.32,0.54-0.64,0.72-1.31
			c-1.82,0.23-3.67,0.32-5.45,0.73c-12.74,2.9-20.62,15.41-17.75,28.19c0.46,2.06-0.41,3.08-2.54,2.53
			c-17.56-4.51-35.13-8.95-52.71-13.41c-0.46-0.12-0.92-0.22-1.46-0.34c-3.33,6.24-8.33,9.93-15.3,10.46L-140.93,160.24z
			 M-51.6,336.15c0.73,0.04,1.18,0.08,1.64,0.08c10.92,0,21.83-0.01,32.75,0.02c1.02,0,1.66-0.31,2.27-1.13
			c9.26-12.34,13.71-26.21,13.41-41.62c-0.02-1.02-0.3-1.45-1.31-1.82c-6.21-2.3-12.38-4.71-18.57-7.09
			c-0.36-0.14-0.7-0.31-1.24-0.54C-24.45,305.78-34.06,323.02-51.6,336.15L-51.6,336.15z M88.78,296.25
			c-7.47,1.63-15.02,2.74-22.64,3.31c-0.64,0.05-1.04,0.15-1.1,0.93c-0.94,12.2-3.9,23.9-8.74,35.13c-0.05,0.11-0.05,0.25-0.11,0.52
			c0.44,0.03,0.85,0.09,1.25,0.09c10.09,0,20.19-0.01,30.28,0.03c0.98,0,1.44-0.28,1.81-1.2c3.67-9.19,6.2-18.66,7.17-28.52
			c0.4-4.01,0.61-8.04,0.93-12.3C94.43,294.97,91.61,295.65,88.78,296.25L88.78,296.25z"/>
		<path d="M-84.18,185.48c4.72,0.01,8.49-3.73,8.46-8.4c-0.03-4.58-3.76-8.32-8.29-8.32c-4.84,0-8.63,3.71-8.59,8.42
			c0.04,4.64,3.75,8.29,8.42,8.31V185.48z"/>
	</g>
	<g style="clip-path:url(#SVGID_00000142134882724065871850000002413315524034237353_);">
		<path d="M239.04,185.49c4.94-11.77,13.68-19.02,26.16-21.73c1.38-0.3,2.15,0.34,2.17,1.77c0.01,0.52-0.03,1.04-0.06,1.56
			c-0.15,3.04-0.31,6.08-0.45,9.13c-0.38,7.86-0.77,15.73-1.11,23.59c-0.35,8.13-0.64,16.26-1.01,24.38
			c-0.06,1.33,0.34,2.24,1.3,3.17c13.59,13.18,27.14,26.4,40.7,39.61c1.39,1.35,1.45,2.02,0.26,3.14
			c-11.54,10.8-25.19,16.67-40.98,17.48c-0.92,0.05-1.39,0.33-1.75,1.15c-5.51,12.55-4.69,24.63,2.77,36.16
			c3.1,4.79,7.27,8.53,12.25,11.32c0.84,0.47,1.43,1.03,1.15,2.06c-0.27,1.02-1.11,1.1-1.97,1.08c-0.13,0-0.26,0-0.39,0
			c-14.36,0-28.73,0.01-43.09-0.03c-0.82,0-1.76-0.24-2.43-0.69c-2.8-1.9-5.51-3.92-8.36-5.97c-8.87,6.2-18.9,8.69-29.85,6.8
			c-10.98-1.89-19.59-7.68-26.04-16.7c-4.47,2.84-8.9,3.18-13.19,0.15c-3.84-2.72-5.4-6.63-4.4-11.21
			c1.24-5.65,5.16-8.41,10.66-8.92c0.15-2.59,0.16-5.12,0.47-7.61c2.08-16.45,14.08-29.83,30.17-33.74
			c1.39-0.34,2.82-0.59,4.15-1.09c11.59-4.29,21-11.47,28.26-21.46c2.33-3.2,4.33-6.59,5.93-10.31c-0.47-0.23-0.87-0.38-1.23-0.6
			c-2.91-1.89-6.1-3.46-8.66-5.74c-12.59-11.21-15.47-28.76-7.4-43.63c0.99-1.82,1.91-1.95,3.44-0.48
			c3.42,3.28,6.84,6.58,10.27,9.86c3.17,3.03,6.35,6.05,9.76,9.29c0.27-4.25,0.94-8.15,2.48-11.82L239.04,185.49z M270.43,333.56
			c-13.14-12.01-16.55-31.71-8.28-47.47c0.61-1.16,1.36-1.55,2.67-1.58c14.71-0.39,27.54-5.59,38.58-15.28
			c0.19-0.16,0.35-0.36,0.44-0.46c-1.18-1.25-2.28-2.48-3.45-3.63c-9.58-9.37-19.18-18.73-28.77-28.09
			c-2.99-2.92-5.97-5.84-8.99-8.73c-0.68-0.65-1.03-1.32-0.99-2.28c0.26-6.61,0.44-13.22,0.71-19.82
			c0.35-8.39,0.76-16.77,1.15-25.16c0.19-4.13,0.41-8.25,0.61-12.38c0.02-0.43,0-0.86,0-1.39c-0.31,0.03-0.6,0.03-0.87,0.1
			c-12.36,3.29-21.94,14.42-23.3,27.14c-0.21,1.98-0.17,3.99-0.21,5.99c-0.02,0.81,0,1.77-0.93,1.9c-0.65,0.09-1.56-0.21-2.04-0.66
			c-6.93-6.55-13.8-13.15-20.69-19.73c-0.25-0.24-0.51-0.45-0.86-0.74c-1.62,3.05-2.67,6.22-3.13,9.54
			c-1.52,10.98,1.57,20.48,9.47,28.31c3.09,3.07,6.73,5.35,10.82,6.89c1.71,0.65,2.01,1.32,1.26,2.98
			c-7.6,16.79-20.03,28.4-37.39,34.63c-2.69,0.96-5.61,1.31-8.24,2.4c-13.06,5.38-20.71,15.22-22.96,29.07
			c-0.94,5.75-1.28,11.8,1.03,17.25c5.22,12.34,14.03,20.96,27.5,23.84c10.85,2.32,20.79-0.1,29.7-6.69
			c1.19-0.88,1.69-0.76,2.84,0.21c2.46,2.06,4.99,4.04,7.52,6.01c0.38,0.3,0.94,0.51,1.43,0.51c5.22,0.04,10.44,0.02,16.07,0.02
			c-0.66-0.55-1.06-0.88-1.45-1.22c-9.22-7.86-14.08-17.82-14.4-29.95c-0.01-0.5,0.01-1.16,0.31-1.46c0.36-0.37,1.19-0.75,1.52-0.57
			c0.55,0.29,1.12,0.99,1.22,1.59c0.24,1.45,0.11,2.96,0.31,4.41c1.62,11.67,7.54,20.55,17.51,26.77c0.35,0.22,0.8,0.41,1.2,0.41
			c5.26,0.03,10.53,0.02,16.15,0.02C272.3,335.21,271.34,334.41,270.43,333.56L270.43,333.56z"/>
		<path d="M268.33,245.61c-3.83,0.01-6.76,2.96-6.74,6.78c0.02,3.77,3.05,6.79,6.8,6.77c3.71-0.01,6.8-3.13,6.78-6.84
			C275.14,248.55,272.13,245.59,268.33,245.61z"/>
	</g>
	<g style="clip-path:url(#SVGID_00000142134882724065871850000002413315524034237353_);">
		<path d="M324.23,176.21c1.66-1.92,3.21-3.83,4.89-5.62c9.68-10.33,21.37-17.29,35.07-20.86c8.04-2.09,16.23-2.78,24.49-1.97
			c21.62,2.12,38.95,11.96,52.12,29.2c1.52,1.99,1.5,2.01,0,4c-7.09,9.47-15.92,16.85-26.55,22.06c-7.08,3.47-14.52,5.77-22.35,6.71
			c-20.26,2.45-38.5-2.54-54.65-15.04c-4.69-3.63-8.81-7.87-12.44-12.56c-0.16-0.2-0.32-0.4-0.57-0.73
			c-1.19,2.05-2.39,3.99-3.48,5.99c-3.85,7.12-6.29,14.71-7.48,22.7c-0.6,4.04-0.76,8.11-0.69,12.19c0.02,0.87-0.33,1.41-1,1.64
			c-0.71,0.24-1.35,0-1.88-0.75c-2.28-3.17-4.3-6.51-6.04-10c-3.7-7.41-6.12-15.23-7.06-23.45c-2.16-18.77,2.17-35.93,13.07-51.4
			c0.66-0.93,1.42-1.17,2.19-0.72c0.51,0.3,0.71,0.76,0.75,1.34c0.19,2.6,0.29,5.21,0.61,7.79c1.12,9.09,4.04,17.6,8.59,25.54
			c0.77,1.34,1.6,2.64,2.39,3.93L324.23,176.21z M408.54,155.62c-28.21-11.79-63.42-3.13-82.35,23.27
			c21.05,28.8,57.62,34.37,83.34,22.9c-7.55-5.75-11.83-13.26-12.04-22.84c-0.2-9.57,3.72-17.27,11.04-23.34L408.54,155.62z
			 M438.6,179.09c-0.23-0.32-0.35-0.53-0.5-0.7c-1.62-1.93-3.16-3.93-4.87-5.78c-5.92-6.39-12.85-11.45-20.68-15.26
			c-0.48-0.23-0.82-0.24-1.27,0.1c-8.21,6.25-11.84,14.49-10.44,24.72c1.05,7.68,5.13,13.56,11.58,17.83
			c0.4,0.27,0.69,0.24,1.1,0.04c7.28-3.65,13.74-8.4,19.32-14.32c2.01-2.13,3.84-4.41,5.76-6.62V179.09z M309.59,217.47
			c0.02-0.29,0.03-0.43,0.04-0.58c0.36-3.25,0.54-6.54,1.11-9.75c1.77-10.06,5.6-19.32,11.35-27.78c0.27-0.4,0.23-0.65-0.01-1.02
			c-0.84-1.28-1.68-2.56-2.45-3.88c-5.13-8.74-8.32-18.13-9.49-28.2c-0.1-0.85-0.2-1.71-0.31-2.66
			C295.55,165.65,295.57,195.53,309.59,217.47L309.59,217.47z"/>
		<path d="M424.54,174.9c-0.01,3.23-2.62,5.84-5.84,5.84c-3.24,0-5.86-2.64-5.84-5.9c0.01-3.23,2.62-5.83,5.84-5.84
			C421.94,169,424.56,171.63,424.54,174.9L424.54,174.9z"/>
	</g>
	<g style="clip-path:url(#SVGID_00000142134882724065871850000002413315524034237353_);">
		<path d="M325.99,86.17c4.55-7.95,7.47-16.45,8.59-25.54c0.32-2.58,0.43-5.19,0.61-7.79c0.04-0.58,0.24-1.04,0.75-1.34
			c0.77-0.45,1.54-0.21,2.19,0.72c10.9,15.47,15.23,32.62,13.07,51.4c-0.94,8.23-3.36,16.04-7.06,23.45c-1.75,3.5-3.76,6.83-6.04,10
			c-0.53,0.74-1.17,1-1.88,0.75c-0.66-0.23-1.01-0.77-1-1.64c0.08-4.08-0.09-8.15-0.69-12.19c-1.19-8-3.64-15.59-7.48-22.7
			c-1.08-2-2.28-3.94-3.48-5.99c-0.26,0.33-0.42,0.53-0.57,0.73c-3.63,4.69-7.75,8.93-12.44,12.56
			c-16.15,12.5-34.39,17.49-54.65,15.04c-7.83-0.95-15.27-3.24-22.35-6.71c-10.63-5.21-19.46-12.59-26.55-22.06
			c-1.49-1.99-1.52-2.01,0-4c13.17-17.24,30.5-27.08,52.12-29.2c8.27-0.81,16.45-0.12,24.49,1.97c13.7,3.56,25.4,10.53,35.07,20.86
			c1.68,1.79,3.23,3.7,4.89,5.62c0.79-1.29,1.62-2.59,2.39-3.93L325.99,86.17z M250.34,92.85c-0.2,9.58-4.49,17.09-12.04,22.84
			c25.72,11.47,62.3,5.9,83.34-22.9c-18.92-26.4-54.14-35.06-82.35-23.27c7.32,6.07,11.25,13.76,11.04,23.34L250.34,92.85z
			 M214.99,99.6c5.58,5.91,12.05,10.67,19.32,14.32c0.41,0.2,0.7,0.23,1.1-0.04c6.45-4.26,10.53-10.14,11.58-17.83
			c1.4-10.23-2.23-18.47-10.44-24.72c-0.44-0.34-0.79-0.33-1.27-0.1c-7.84,3.81-14.76,8.87-20.68,15.26
			c-1.71,1.85-3.25,3.85-4.87,5.78c-0.15,0.18-0.27,0.38-0.5,0.7c1.91,2.21,3.75,4.5,5.76,6.62V99.6z M338.01,57.49
			c-0.11,0.96-0.21,1.81-0.31,2.66c-1.18,10.07-4.37,19.46-9.49,28.2c-0.77,1.32-1.61,2.6-2.45,3.88c-0.25,0.37-0.28,0.63-0.01,1.02
			c5.75,8.45,9.58,17.71,11.35,27.78c0.57,3.22,0.75,6.5,1.11,9.75c0.02,0.14,0.02,0.29,0.04,0.58
			C352.27,109.42,352.28,79.54,338.01,57.49L338.01,57.49z"/>
		<path d="M223.29,88.79c0.01,3.23,2.62,5.84,5.84,5.84c3.24,0,5.86-2.64,5.84-5.9c-0.01-3.23-2.62-5.83-5.84-5.84
			c-3.24,0-5.86,2.63-5.84,5.89V88.79z"/>
	</g>
	<g style="clip-path:url(#SVGID_00000142134882724065871850000002413315524034237353_);">
		<path d="M110.37,134.11c4.55-7.95,7.47-16.45,8.59-25.54c0.32-2.58,0.43-5.19,0.61-7.79c0.04-0.58,0.24-1.04,0.75-1.34
			c0.77-0.45,1.54-0.21,2.19,0.72c10.9,15.47,15.23,32.62,13.07,51.4c-0.94,8.23-3.36,16.04-7.06,23.45c-1.75,3.5-3.76,6.83-6.04,10
			c-0.53,0.74-1.17,1-1.88,0.75c-0.66-0.23-1.01-0.77-1-1.64c0.08-4.08-0.09-8.15-0.69-12.19c-1.19-8-3.64-15.59-7.48-22.7
			c-1.08-2-2.28-3.94-3.48-5.99c-0.26,0.33-0.42,0.53-0.57,0.73c-3.63,4.69-7.75,8.93-12.44,12.56
			c-16.15,12.5-34.39,17.49-54.65,15.04c-7.83-0.95-15.27-3.24-22.35-6.71C7.31,159.65-1.52,152.27-8.61,142.8
			c-1.49-1.99-1.52-2.01,0-4c13.17-17.24,30.5-27.08,52.12-29.2c8.27-0.81,16.45-0.12,24.49,1.97c13.7,3.56,25.4,10.53,35.07,20.86
			c1.68,1.79,3.23,3.7,4.89,5.62c0.79-1.29,1.62-2.59,2.39-3.93L110.37,134.11z M34.71,140.79c-0.2,9.58-4.49,17.09-12.04,22.84
			c25.72,11.47,62.3,5.9,83.34-22.9c-18.92-26.4-54.14-35.06-82.35-23.27c7.32,6.07,11.25,13.76,11.04,23.34L34.71,140.79z
			 M-0.64,147.54c5.58,5.91,12.05,10.67,19.32,14.32c0.41,0.2,0.7,0.23,1.1-0.04c6.45-4.26,10.53-10.14,11.58-17.83
			c1.4-10.23-2.23-18.47-10.44-24.72c-0.44-0.34-0.79-0.33-1.27-0.1c-7.84,3.81-14.76,8.87-20.68,15.26
			c-1.71,1.85-3.25,3.85-4.87,5.78c-0.15,0.18-0.27,0.38-0.5,0.7c1.91,2.21,3.75,4.5,5.76,6.62L-0.64,147.54z M122.38,105.43
			c-0.11,0.96-0.21,1.81-0.31,2.66c-1.18,10.07-4.37,19.46-9.49,28.2c-0.77,1.32-1.61,2.6-2.45,3.88c-0.25,0.37-0.28,0.63-0.01,1.02
			c5.75,8.45,9.58,17.71,11.35,27.78c0.57,3.22,0.75,6.5,1.11,9.75c0.02,0.14,0.02,0.29,0.04,0.58
			C136.64,157.36,136.66,127.48,122.38,105.43L122.38,105.43z"/>
		<path d="M7.68,136.74c0.01,3.23,2.62,5.84,5.84,5.84c3.24,0,5.86-2.64,5.84-5.9c-0.01-3.23-2.62-5.83-5.84-5.84
			C10.28,130.84,7.66,133.47,7.68,136.74L7.68,136.74z"/>
	</g>
	<g style="clip-path:url(#SVGID_00000142134882724065871850000002413315524034237353_);">
		<path d="M337.04,278.27c0.51-2.5,1.44-4.78,2.96-6.76c4.15-5.39,9.63-7.65,16.38-6.76c0.46,0.06,0.57-0.14,0.7-0.48
			c2.43-6.04,6.52-10.63,12.17-13.84c9.64-5.48,22.33-4.24,30.78,2.99c5.2,4.45,8.4,10.05,9.44,16.83c0.26,1.7,0.28,3.45,0.41,5.19
			c4.9-1.36,9.31-0.42,12.72,3.54c3.4,3.94,3.69,8.42,1.6,13.19c0.33,0.27,0.69,0.57,1.05,0.88c8.07,6.78,13.09,15.35,14.93,25.72
			c1.08,6.06,0.79,12.1-0.73,18.07c-0.27,1.05-0.73,1.4-1.83,1.4c-42.18,0-84.36,0-126.54,0c-1.11,0-1.56-0.35-1.83-1.4
			c-4.08-15.82,1.1-32.45,13.44-43.14c0.45-0.39,0.59-0.71,0.46-1.31c-1.76-8.04,4.93-15.29,13.08-14.22
			C336.48,278.2,336.72,278.23,337.04,278.27L337.04,278.27z M311.81,335.33h0.8c41.16,0,82.32,0,123.48,0.02
			c0.57,0,0.79-0.17,0.9-0.72c0.98-4.65,1.19-9.32,0.51-14.02c-1.55-10.74-6.67-19.42-15.16-26.15c-0.42-0.33-0.83-0.47-1.36-0.47
			c-9.36,0.13-18.72,0.25-28.07,0.37c-7.31,0.09-14.62,0.17-21.93,0.25c-7.35,0.08-14.71,0.17-22.06,0.25
			c-7.65,0.09-15.29,0.16-22.94,0.26c-0.26,0-0.57,0.12-0.78,0.29c-4.03,3.33-7.26,7.31-9.72,11.91
			c-3.78,7.11-5.22,14.71-4.47,22.71C311.17,331.79,311.53,333.53,311.81,335.33L311.81,335.33z M373.72,291.64v-0.14
			c2.97,0,5.93,0.02,8.9,0c8.15-0.07,16.29-0.16,24.44-0.25c4.6-0.05,9.19-0.1,13.79-0.14c0.37,0,0.62-0.09,0.79-0.45
			c1.47-3.21,1.3-6.32-0.79-9.18c-2.08-2.86-4.99-4-8.5-3.57c-1.26,0.16-2.4,0.66-3.49,1.31c-1.07,0.64-2.26-0.05-2.23-1.27
			c0-0.39,0.09-0.79,0.12-1.18c0.6-7.33-1.54-13.74-6.55-19.14c-7.83-8.43-20.8-10.12-30.56-4.01c-5,3.13-8.45,7.51-10.34,13.1
			c-0.4,1.17-1.03,1.47-2.22,1.17c-2.25-0.58-4.51-0.57-6.76-0.01c-5.49,1.35-9.92,6.01-10.61,12.2c-0.15,1.35-0.95,1.8-2.23,1.4
			c-3.2-1-6.14-0.46-8.66,1.75c-2.52,2.21-3.43,5.06-2.9,8.36c0.07,0.45,0.25,0.61,0.73,0.6c4.01-0.07,8.02-0.13,12.03-0.17
			c11.68-0.12,23.36-0.24,35.03-0.36L373.72,291.64z"/>
		<path d="M400.08,315.63c1.64,0.45,3.06,1.19,4.2,2.44c2.63,2.89,2.58,7.23-0.1,10.06c-2.62,2.77-6.98,3.04-10.01,0.61
			c-4.6-3.7-9.83-5.94-15.69-6.67c-8.32-1.03-15.91,0.88-22.75,5.74c-0.36,0.25-0.7,0.53-1.04,0.8c-2.39,1.93-5.05,2.38-7.85,1.13
			c-2.82-1.26-4.24-3.57-4.36-6.63c-0.12-3.32,2.27-6.36,5.58-7.21c0.19-0.05,0.38-0.1,0.75-0.2c-0.36-0.09-0.53-0.14-0.7-0.18
			c-2.93-0.75-5.18-3.2-5.55-6.05c-0.4-3.18,1-6.05,3.7-7.56c2.63-1.47,5.89-1.18,8.28,0.76c4.23,3.42,9.04,5.6,14.39,6.47
			c8.59,1.4,16.51-0.36,23.69-5.31c0.46-0.32,0.92-0.66,1.35-1.02c2.4-2.04,5.64-2.4,8.36-0.94c2.75,1.48,4.19,4.39,3.78,7.64
			c-0.35,2.8-2.65,5.28-5.58,6.02c-0.16,0.04-0.31,0.08-0.47,0.11L400.08,315.63z"/>
	</g>
</g>
</svg>
