<?xml version="1.0" encoding="utf-8"?>
<!-- Generator: Adobe Illustrator 26.1.0, SVG Export Plug-In . SVG Version: 6.00 Build 0)  -->
<svg version="1.1" id="a" xmlns="http://www.w3.org/2000/svg" xmlns:xlink="http://www.w3.org/1999/xlink" x="0px" y="0px"
	 viewBox="0 0 375 423.85" style="enable-background:new 0 0 375 423.85;" xml:space="preserve">
<style type="text/css">
	.st0{clip-path:url(#SVGID_00000021102421812189694470000002728082757606913453_);}
</style>
<g>
	<defs>
		<rect id="SVGID_1_" y="-224.37" width="375" height="812"/>
	</defs>
	<clipPath id="SVGID_00000078031035556064757040000010555761889404075192_">
		<use xlink:href="#SVGID_1_"  style="overflow:visible;"/>
	</clipPath>
	<path style="clip-path:url(#SVGID_00000078031035556064757040000010555761889404075192_);" d="M342.15,277.33
		c-1.85,0-3.59,0.43-5.14,1.2c-1.44,0.72-2.72,1.73-3.74,2.96c-1-1.2-2.24-2.2-3.65-2.91c-1.57-0.8-3.34-1.25-5.22-1.25
		c-6.37,0-11.54,5.17-11.54,11.54c0,1.88,0.45,3.66,1.25,5.22c0.31,0.61,0.68,1.19,1.09,1.74c0.64,0.85,2.75,2.92,3.58,3.64
		c0,0,8.95,8.66,14.57,8.66s16.53-10.67,16.53-10.67c0.3-0.27,0.59-0.56,0.86-0.86c0.7-0.77,1.29-1.64,1.76-2.58
		c0.77-1.55,1.2-3.29,1.2-5.14c0-6.37-5.17-11.54-11.54-11.54L342.15,277.33z"/>
	<g style="clip-path:url(#SVGID_00000078031035556064757040000010555761889404075192_);">
		<path d="M98.3,231.7c1.39-3.11,1.87-6.33,1.59-9.65c-0.58-6.8-3.52-12.38-8.8-16.71c-0.66-0.54-1.3-1.07-1.04-2.05
			c0.28-1.07,1.23-1.13,2.08-1.25c11.38-1.59,22.51,4.31,27.62,14.64c2.38,4.81,3.14,9.91,2.53,15.22c-0.02,0.2-0.03,0.41-0.07,0.81
			c2.52-0.63,4.9-1.22,7.28-1.82c14.96-3.8,29.93-7.6,44.89-11.4c11.14-2.83,22.27-5.66,33.41-8.49c1.83-0.47,2.52-0.06,2.69,1.82
			c1.34,14.69-1.47,28.54-9.06,41.21c-11.17,18.63-27.6,29.84-49.07,33.23c-14.13,2.23-27.72,0-40.59-6.35
			c-0.27-0.13-0.55-0.26-0.83-0.38c-0.07-0.03-0.16-0.02-0.38-0.05c-1.99,4.33-4.3,8.55-5.4,13.29
			c-5.99,25.68,0.36,47.85,19.47,65.98c10.11,9.59,22.56,14.68,36.42,16.19c6,0.65,11.99,0.47,17.94-0.53
			c0.34-0.06,0.73-0.18,1.03-0.07c0.54,0.18,1.25,0.4,1.47,0.82c0.2,0.4,0.05,1.24-0.28,1.6c-1.64,1.79-3.32,3.56-5.11,5.21
			c-11.46,10.59-24.27,19.04-39.03,24.35c-9.59,3.45-19.46,4.9-29.67,4.72c-13.88-0.25-27.77-0.08-41.65-0.04
			c-1.11,0-1.82-0.31-2.51-1.19c-10.19-13.03-15.17-27.8-14.91-44.34c0-0.13,0-0.26-0.02-0.39c-0.01-0.08-0.07-0.16-0.15-0.34
			c-9.72,2.81-19.63,4.81-29.7,5.95c-10.09,1.14-20.21,1.39-30.6,0.82c1.02,13.84,4.66,26.86,10.81,39.46c-0.65,0-1.14,0-1.63,0
			c-11.88,0-23.76,0-35.64,0c-14.84,0-29.68-0.02-44.51,0.03c-1.51,0-2.28-0.52-2.81-1.88c-3.79-9.89-6.21-20.08-7.12-30.63
			c-1.01-11.62-0.19-23.11,2.38-34.48c0.13-0.59,0.18-1.21,0.18-1.81c0.01-11.23,0.02-22.46-0.02-33.68c0-0.65-0.21-1.38-0.56-1.92
			c-12.49-18.92-20.85-39.57-25.64-61.66c-1.72-7.96-2.72-16.09-3.92-24.15c-0.38-2.57-0.39-5.2-0.55-7.8
			c-0.09-1.36,0.42-2.21,1.39-2.28c1.24-0.08,1.6,0.73,1.78,1.79c2.1,12.19,6.06,23.76,12.29,34.45
			c16.77,28.76,41.52,46.56,74.23,52.94c16.03,3.13,32.05,2.36,47.8-2.05c27.15-7.6,48.16-23.53,63.29-47.26
			c0.34-0.54,0.5-1.29,0.5-1.95c0.03-12.53,0.02-25.07,0.02-37.6c0-2.81,0.9-3.39,3.42-2.05c8.48,4.5,13.4,11.49,14.6,21.05
			c0.03,0.23,0.1,0.46,0.15,0.7L98.3,231.7z M175.49,222.42c-0.53,0.13-1,0.23-1.46,0.34c-17.57,4.46-35.15,8.9-52.71,13.41
			c-2.13,0.55-3-0.47-2.54-2.53c2.86-12.78-5.02-25.29-17.75-28.19c-1.78-0.41-3.63-0.49-5.45-0.73c0.18,0.66,0.44,0.99,0.72,1.31
			c8.37,9.67,9.02,23.55,1.57,33.5c-0.6,0.8-1.28,1.44-2.28,1c-1.01-0.45-0.95-1.42-0.78-2.37c1.31-7.25-0.45-13.71-5.04-19.42
			c-1.75-2.17-3.85-3.96-6.53-5.36v1.71c0,11.75,0.01,23.5-0.03,35.25c0,0.77-0.25,1.64-0.65,2.31c-3.85,6.34-8.3,12.24-13.39,17.63
			C51.58,288.9,30.19,300.4,4.85,304.41c-12.27,1.94-24.54,1.78-36.75-0.46c-19.87-3.64-37.47-12.09-52.71-25.35
			c-13.32-11.59-23.36-25.56-29.94-41.98c-0.4-0.99-0.81-1.97-1.22-2.96c0.56,4,1.24,7.94,2.11,11.83
			c4.86,21.75,13.05,42.12,25.41,60.74c0.49,0.74,0.8,1.76,0.8,2.64c0.05,11.53,0.04,23.06,0.03,34.59c0,0.69-0.07,1.39-0.17,2.08
			c-0.78,4.98-1.83,9.93-2.31,14.93c-1.57,16.15,0.71,31.83,6.3,47.04c0.37,1.01,0.84,1.38,1.95,1.37
			c12.49-0.04,24.98-0.03,37.47-0.03h1.57c-5.95-14.9-8.65-30.14-8-46.08c43.48,11.91,85.49,8.49,126.17-11.02
			c0.04,0.63,0.06,1.02,0.09,1.4c0.33,3.63,0.4,7.31,1.05,10.88c3.5,19.12,13.65,33.81,29.98,44.26c0.44,0.28,1.03,0.43,1.57,0.47
			c7.01,0.46,13.9-0.38,20.66-2.2c17.9-4.82,32.99-14.49,46.35-27.09c0.1-0.09,0.13-0.26,0.22-0.45c-0.37,0-0.63-0.02-0.88,0
			c-5.88,0.58-11.74,0.45-17.55-0.55c-17.46-2.99-31.93-11.18-42.71-25.3c-11.1-14.54-15.77-31.04-14.16-49.32
			c0.82-9.35,3.98-17.92,8.23-26.17c0.53-1.02,1.32-1.33,2.38-0.79c0.5,0.26,1,0.52,1.51,0.78c12.64,6.46,26.05,8.86,39.99,6.42
			c25.09-4.39,42.27-18.78,51.58-42.49c2.07-5.27,3.18-10.79,3.65-16.81c-4.33,5.73-9.81,8.59-16.71,8.06
			c-6.97-0.53-11.97-4.22-15.3-10.46L175.49,222.42z M72.51,356.69c-0.54,0.24-0.88,0.41-1.24,0.54
			c-6.18,2.38-12.35,4.79-18.57,7.09c-1.01,0.37-1.29,0.81-1.31,1.82c-0.3,15.42,4.16,29.28,13.41,41.62
			c0.61,0.82,1.25,1.13,2.27,1.13c10.92-0.04,21.83-0.02,32.75-0.02c0.45,0,0.91-0.04,1.64-0.08
			C83.92,395.67,74.31,378.42,72.51,356.69L72.51,356.69z M-47.77,366.87c0.32,4.26,0.53,8.29,0.93,12.3
			c0.97,9.86,3.5,19.33,7.17,28.52c0.37,0.92,0.83,1.21,1.81,1.2c10.09-0.04,20.19-0.02,30.28-0.03c0.4,0,0.81-0.05,1.25-0.09
			c-0.05-0.27-0.06-0.4-0.11-0.52c-4.84-11.23-7.8-22.93-8.74-35.13c-0.06-0.78-0.45-0.89-1.1-0.93
			c-7.63-0.57-15.17-1.68-22.64-3.31C-41.75,368.26-44.57,367.59-47.77,366.87L-47.77,366.87z"/>
		<path d="M134.03,258.12c-4.72,0.01-8.49-3.73-8.46-8.4c0.03-4.58,3.76-8.32,8.29-8.32c4.84,0,8.63,3.71,8.59,8.42
			C142.41,254.46,138.7,258.11,134.03,258.12L134.03,258.12z"/>
	</g>
	<g style="clip-path:url(#SVGID_00000078031035556064757040000010555761889404075192_);">
		<path d="M258.29,267.36c3.4-3.24,6.59-6.26,9.76-9.29c3.43-3.28,6.84-6.57,10.27-9.86c1.53-1.47,2.45-1.34,3.44,0.48
			c8.07,14.87,5.19,32.42-7.4,43.63c-2.56,2.28-5.75,3.85-8.66,5.74c-0.35,0.23-0.76,0.38-1.23,0.6c1.6,3.72,3.6,7.11,5.93,10.31
			c7.26,9.99,16.67,17.17,28.26,21.46c1.34,0.49,2.76,0.75,4.15,1.09c16.09,3.91,28.09,17.29,30.17,33.74
			c0.31,2.49,0.32,5.01,0.47,7.61c5.51,0.51,9.43,3.27,10.66,8.92c1,4.58-0.55,8.49-4.4,11.21c-4.29,3.03-8.72,2.69-13.19-0.15
			c-6.44,9.02-15.06,14.8-26.04,16.7c-10.95,1.88-20.98-0.6-29.85-6.8c-2.85,2.05-5.56,4.07-8.36,5.97
			c-0.67,0.45-1.61,0.69-2.43,0.69c-14.36,0.04-28.73,0.03-43.09,0.03c-0.13,0-0.26,0-0.39,0c-0.87,0.02-1.7-0.07-1.97-1.08
			c-0.27-1.03,0.31-1.59,1.15-2.06c4.98-2.8,9.15-6.53,12.25-11.32c7.46-11.52,8.28-23.6,2.77-36.16c-0.36-0.83-0.83-1.11-1.75-1.15
			c-15.79-0.81-29.44-6.68-40.98-17.48c-1.2-1.12-1.13-1.79,0.26-3.14c13.56-13.21,27.11-26.43,40.7-39.61
			c0.96-0.93,1.36-1.85,1.3-3.17c-0.37-8.13-0.65-16.26-1.01-24.38c-0.34-7.87-0.73-15.73-1.11-23.59c-0.15-3.04-0.3-6.08-0.45-9.13
			c-0.03-0.52-0.07-1.04-0.06-1.56c0.03-1.44,0.79-2.08,2.17-1.77c12.48,2.72,21.21,9.97,26.16,21.73
			c1.54,3.67,2.22,7.57,2.48,11.82L258.29,267.36z M221.34,406.29c5.63,0,10.89,0,16.15-0.02c0.4,0,0.85-0.19,1.2-0.41
			c9.97-6.22,15.89-15.1,17.51-26.77c0.2-1.46,0.07-2.97,0.31-4.41c0.1-0.6,0.67-1.29,1.22-1.59c0.33-0.18,1.16,0.2,1.52,0.57
			c0.3,0.3,0.32,0.97,0.31,1.46c-0.31,12.14-5.18,22.09-14.4,29.95c-0.4,0.34-0.8,0.67-1.45,1.22c5.63,0,10.85,0.01,16.07-0.02
			c0.48,0,1.04-0.21,1.43-0.51c2.53-1.97,5.06-3.95,7.52-6.01c1.15-0.96,1.64-1.09,2.84-0.21c8.92,6.6,18.85,9.01,29.7,6.69
			c13.47-2.88,22.28-11.51,27.5-23.84c2.31-5.45,1.96-11.5,1.03-17.25c-2.25-13.85-9.91-23.69-22.96-29.07
			c-2.63-1.08-5.55-1.43-8.24-2.4c-17.36-6.23-29.79-17.84-37.39-34.63c-0.75-1.66-0.45-2.34,1.26-2.98
			c4.09-1.54,7.72-3.82,10.82-6.89c7.9-7.84,10.99-17.33,9.47-28.31c-0.46-3.32-1.51-6.49-3.13-9.54c-0.34,0.3-0.61,0.51-0.86,0.74
			c-6.89,6.59-13.76,13.19-20.69,19.73c-0.48,0.46-1.4,0.76-2.04,0.66c-0.94-0.13-0.92-1.09-0.93-1.9c-0.04-2,0-4.01-0.21-5.99
			c-1.36-12.72-10.94-23.85-23.3-27.14c-0.27-0.07-0.56-0.07-0.87-0.1c0,0.53-0.02,0.96,0,1.39c0.2,4.13,0.42,8.25,0.61,12.38
			c0.39,8.39,0.8,16.77,1.15,25.16c0.28,6.61,0.46,13.21,0.71,19.82c0.04,0.96-0.31,1.63-0.99,2.28c-3.02,2.89-6,5.81-8.99,8.73
			c-9.59,9.36-19.19,18.72-28.77,28.09c-1.18,1.15-2.27,2.38-3.45,3.63c0.09,0.1,0.25,0.29,0.44,0.46
			c11.04,9.7,23.86,14.89,38.58,15.28c1.3,0.03,2.05,0.42,2.67,1.58c8.28,15.76,4.86,35.47-8.28,47.47
			c-0.92,0.84-1.88,1.64-3.08,2.69L221.34,406.29z"/>
		<path d="M226.52,315.66c3.83,0.01,6.76,2.96,6.74,6.78c-0.02,3.77-3.05,6.79-6.8,6.77c-3.71-0.01-6.8-3.13-6.78-6.84
			C219.71,318.6,222.72,315.64,226.52,315.66L226.52,315.66z"/>
	</g>
	<g style="clip-path:url(#SVGID_00000078031035556064757040000010555761889404075192_);">
		<path d="M-54.44,203.65c1.66-1.92,3.21-3.83,4.89-5.62c9.68-10.33,21.37-17.29,35.07-20.86c8.04-2.09,16.23-2.78,24.49-1.97
			c21.62,2.12,38.95,11.96,52.12,29.2c1.52,1.99,1.5,2.01,0,4c-7.09,9.47-15.92,16.85-26.55,22.06c-7.08,3.47-14.52,5.77-22.35,6.71
			c-20.26,2.45-38.5-2.54-54.65-15.04c-4.69-3.63-8.81-7.87-12.44-12.56c-0.16-0.2-0.32-0.4-0.57-0.73
			c-1.19,2.05-2.39,3.99-3.48,5.99c-3.85,7.12-6.29,14.71-7.48,22.7c-0.6,4.04-0.76,8.11-0.69,12.19c0.02,0.87-0.33,1.41-1,1.64
			c-0.71,0.24-1.35,0-1.88-0.75c-2.28-3.17-4.3-6.51-6.04-10c-3.7-7.41-6.12-15.23-7.06-23.45c-2.16-18.77,2.17-35.93,13.07-51.4
			c0.66-0.93,1.42-1.17,2.19-0.72c0.51,0.3,0.71,0.76,0.75,1.34c0.19,2.6,0.29,5.21,0.61,7.79c1.12,9.09,4.04,17.6,8.59,25.54
			c0.77,1.34,1.6,2.64,2.39,3.93L-54.44,203.65z M29.87,183.06c-28.21-11.79-63.42-3.13-82.35,23.27
			c21.05,28.8,57.62,34.37,83.34,22.9c-7.55-5.75-11.83-13.26-12.04-22.84c-0.2-9.57,3.72-17.27,11.04-23.34L29.87,183.06z
			 M59.93,206.53c-0.23-0.32-0.35-0.53-0.5-0.7c-1.62-1.93-3.16-3.93-4.87-5.78c-5.92-6.39-12.85-11.45-20.68-15.26
			c-0.48-0.23-0.82-0.24-1.27,0.1c-8.21,6.25-11.84,14.49-10.44,24.72c1.05,7.68,5.13,13.56,11.58,17.83
			c0.4,0.27,0.69,0.24,1.1,0.04c7.28-3.65,13.74-8.4,19.32-14.32c2.01-2.13,3.84-4.41,5.76-6.62L59.93,206.53z M-69.08,244.91
			c0.02-0.29,0.03-0.43,0.04-0.58c0.36-3.25,0.54-6.54,1.11-9.75c1.77-10.06,5.6-19.32,11.35-27.78c0.27-0.4,0.23-0.65-0.01-1.02
			c-0.84-1.28-1.68-2.56-2.45-3.88c-5.13-8.74-8.32-18.13-9.49-28.2c-0.1-0.85-0.2-1.71-0.31-2.66
			c-14.28,22.05-14.26,51.93-0.23,73.87H-69.08z"/>
		<path d="M45.88,202.34c-0.01,3.23-2.62,5.84-5.84,5.84c-3.24,0-5.86-2.64-5.84-5.9c0.01-3.23,2.62-5.83,5.84-5.84
			c3.24,0,5.86,2.63,5.84,5.89V202.34z"/>
	</g>
	<g style="clip-path:url(#SVGID_00000078031035556064757040000010555761889404075192_);">
		<path d="M349.6,208.04c0.28-0.02,0.36-0.01,0.44-0.04c1.51-0.53,3.06-0.96,4.51-1.62c2.11-0.96,4.15-2.07,6.21-3.14
			c1.14-0.59,2.41,0.04,2.38,1.25c-0.01,0.38-0.18,0.77-0.36,1.11c-5.24,9.75-12.88,16.96-22.96,21.54
			c-0.85,0.39-1.11,0.79-1.1,1.73c0.12,8.26,2.35,15.89,6.63,22.94c0.39,0.65,0.61,1.28,0.21,1.97c-0.4,0.68-1.06,0.74-1.78,0.71
			c-4.55-0.2-9.05-0.73-13.47-1.79c-21.56-5.17-37.95-17.36-49.21-36.44c-2.87-4.86-5.04-10.05-6.71-15.45
			c-0.08-0.27-0.37-0.54-0.63-0.67c-6.22-3.09-10.88-7.73-13.95-13.97c-0.08-0.17-0.18-0.34-0.29-0.53
			c-0.18,0.05-0.32,0.09-0.46,0.14c-4.31,1.65-7.96,4.22-10.97,7.7c-0.41,0.48-0.86,0.8-1.52,0.74c-0.86-0.08-1.58-1-1.62-2.12
			c-0.16-3.81,0.02-7.6,0.83-11.32c3.52-16.14,12.82-27.65,27.83-34.53c5.95-2.72,12.2-3.77,18.65-2.39
			c12.1,2.6,19.88,9.96,23.38,21.82c0.15,0.51,0.38,0.7,0.86,0.77c6.91,1.06,13.73,0.7,20.41-1.38
			c11.78-3.67,20.64-10.97,26.68-21.72c0.46-0.82,0.97-1.09,1.75-0.96c0.7,0.12,1.12,0.61,1.27,1.48c0.83,4.65,0.95,9.32,0.42,14.01
			c-1.06,9.27-4.56,17.53-10.37,24.82c-0.13,0.17-0.25,0.35-0.38,0.52c0.54-0.12,1-0.32,1.45-0.53c5.01-2.35,9.44-5.53,13.32-9.47
			c0.31-0.31,0.74-0.6,1.15-0.67c1.16-0.19,1.88,0.81,1.61,2.14c-2.88,14.04-10.45,24.82-22.6,32.39
			C350.73,207.38,350.24,207.65,349.6,208.04L349.6,208.04z M364.14,148.63c-1.41,1.77-2.71,3.54-4.16,5.17
			c-7.1,7.95-15.88,13.06-26.31,15.27c-6.3,1.33-12.62,1.36-18.94,0.16c-1.23-0.23-1.51-0.51-1.77-1.75
			c-2.13-10.33-10.81-18.75-21.21-20.63c-3.16-0.58-6.31-0.61-9.48-0.12c-0.6,0.09-0.93,0.33-1.2,0.9
			c-2.94,6.34-4.97,12.96-6.02,19.87c-0.6,3.91-0.88,7.83-0.84,11.78c0.07,6.93,1.08,13.72,3.07,20.36
			c2.63,8.79,6.78,16.8,12.48,23.98c9.37,11.82,21.24,20.04,35.64,24.59c5.1,1.61,10.31,2.6,15.64,3.02c0.11,0,0.21,0,0.4,0
			c-0.15-0.3-0.25-0.53-0.37-0.76c-3.78-7.33-5.56-15.12-5.42-23.37c0.02-1.12,0.48-1.72,1.52-2.15
			c8.16-3.35,14.77-8.66,19.88-15.84c0.1-0.14,0.19-0.29,0.36-0.56c-0.29,0.11-0.47,0.17-0.63,0.24c-6.45,2.83-13.2,4.22-20.25,4.12
			c-0.75-0.01-1.34-0.23-1.64-0.95c-0.38-0.92,0.13-1.85,1.18-2.09c3.55-0.81,7-1.96,10.25-3.61c11.4-5.79,19.12-14.76,23.17-26.89
			c0.05-0.16,0.1-0.33,0.19-0.66c-0.5,0.38-0.88,0.66-1.24,0.95c-5.15,4.1-10.92,6.95-17.25,8.69c-0.81,0.23-1.52-0.04-1.88-0.68
			c-0.37-0.66-0.24-1.4,0.42-2.01c3.83-3.54,6.97-7.62,9.4-12.24c2.77-5.27,4.44-10.89,4.97-16.83
			C364.33,153.95,364.4,151.3,364.14,148.63L364.14,148.63z M247.98,188.87c2.05-1.4,3.98-2.96,6.12-4.11
			c4.98-2.68,10.27-4.62,15.89-5.52c1.09-0.17,1.11-0.17,1.11-1.26c0.08-10.25,2.14-20.08,6.19-29.5c0.04-0.1,0.07-0.21,0.15-0.44
			c-7.93,2.91-14.49,7.58-19.7,14.1c-6.26,7.83-9.46,16.8-9.77,26.72L247.98,188.87z M271.16,182.26c-1.1-0.09-6.9,1.36-8.77,2.18
			c2.35,5.01,5.89,8.92,10.76,11.87c-1.12-4.71-1.74-9.33-1.99-14.04V182.26z"/>
		<path d="M285.62,157.1c2.92,0.01,5.25,2.36,5.24,5.27c-0.02,2.89-2.41,5.27-5.29,5.25c-2.9-0.01-5.23-2.38-5.23-5.29
			c0-2.92,2.34-5.23,5.27-5.23L285.62,157.1z"/>
	</g>
</g>
</svg>
