<?xml version="1.0" encoding="utf-8"?>
<!-- Generator: Adobe Illustrator 26.1.0, SVG Export Plug-In . SVG Version: 6.00 Build 0)  -->
<svg version="1.1" id="a" xmlns="http://www.w3.org/2000/svg" xmlns:xlink="http://www.w3.org/1999/xlink" x="0px" y="0px"
	 viewBox="0 0 40 40" style="enable-background:new 0 0 40 40;" xml:space="preserve">
<path d="M29.94,0.51c3.74,0.22,6.85,2.08,8.56,5.86s1.21,7.41-1.42,10.67c-0.45,0.56-0.95,1.07-1.46,1.58
	c-5.85,5.87-11.7,11.73-17.57,17.58c-3.99,3.98-9.82,4.4-13.84,1.03c-4.62-3.88-4.98-10.57-0.65-14.99
	c6.13-6.26,12.36-12.42,18.57-18.6C24.17,1.59,26.66,0.53,29.94,0.51z M26.2,24.51c3.05-2.96,6.16-5.94,9.21-8.97
	c1.07-1.07,1.56-2.47,1.75-3.96c0.46-3.45-1.23-6.46-4.48-8.12c-2.72-1.38-6.31-0.78-8.71,1.52c-1.6,1.54-3.15,3.14-4.72,4.71
	c-1.33,1.33-2.65,2.65-3.93,3.92C19.03,17.33,22.67,20.98,26.2,24.51z M13.65,15.35c-0.12,0.1-0.28,0.22-0.42,0.37
	c-2.89,2.91-5.88,5.74-8.64,8.76c-2.69,2.93-2.42,7.59,0.37,10.44c2.86,2.92,7.52,3.19,10.57,0.49c1.69-1.49,3.23-3.14,4.83-4.73
	c1.45-1.44,2.9-2.88,4.3-4.29C20.95,22.68,17.31,19.03,13.65,15.35z"/>
</svg>
