<?xml version="1.0" encoding="utf-8"?>
<!-- Generator: Adobe Illustrator 26.1.0, SVG Export Plug-In . SVG Version: 6.00 Build 0)  -->
<svg version="1.1" id="a" xmlns="http://www.w3.org/2000/svg" xmlns:xlink="http://www.w3.org/1999/xlink" x="0px" y="0px"
	 viewBox="0 0 90.08 75.44" style="enable-background:new 0 0 90.08 75.44;" xml:space="preserve">
<ellipse transform="matrix(0.8861 -0.4635 0.4635 0.8861 -16.5512 9.6208)" cx="11.3" cy="38.49" rx="10.66" ry="13.38"/>
<ellipse transform="matrix(0.9922 -0.1243 0.1243 0.9922 -1.5965 3.8899)" cx="30.38" cy="14.74" rx="11.78" ry="14.78"/>
<ellipse transform="matrix(0.4635 -0.8861 0.8861 0.4635 8.1548 90.4445)" cx="78.76" cy="38.49" rx="13.38" ry="10.66"/>
<ellipse transform="matrix(0.1243 -0.9922 0.9922 0.1243 37.6455 72.1455)" cx="59.7" cy="14.75" rx="14.78" ry="11.78"/>
<path d="M69.09,62.41c0.05,0.46,0.09,0.92,0.09,1.39C69.18,63.33,69.14,62.87,69.09,62.41z"/>
<path d="M68.36,59.51c0.15,0.38,0.28,0.77,0.39,1.16C68.64,60.27,68.51,59.88,68.36,59.51z"/>
<path d="M68.32,59.42c-0.18-0.44-0.39-0.87-0.62-1.28l0,0C67.93,58.55,68.14,58.98,68.32,59.42z"/>
<path d="M68.84,61.02c0.08,0.33,0.15,0.67,0.2,1.02C68.99,61.7,68.92,61.36,68.84,61.02z"/>
<path d="M64.06,73.45c-0.62,0.42-1.28,0.78-1.98,1.07C62.78,74.23,63.44,73.87,64.06,73.45z"/>
<path d="M20.96,62.04c0.05-0.34,0.12-0.68,0.2-1.01C21.08,61.36,21.01,61.7,20.96,62.04z"/>
<path d="M21.25,60.68c0.11-0.4,0.24-0.79,0.39-1.16C21.49,59.9,21.36,60.29,21.25,60.68z"/>
<path d="M21.68,59.42c0.18-0.44,0.39-0.87,0.62-1.28C22.07,58.55,21.86,58.98,21.68,59.42z"/>
<path d="M20.81,63.8c0-0.47,0.04-0.93,0.09-1.39C20.85,62.87,20.81,63.33,20.81,63.8z"/>
<path d="M43.84,32.27c0.32-0.03,0.65-0.05,0.98-0.05C44.49,32.22,44.17,32.24,43.84,32.27z"/>
<path d="M45.04,32.21H45c0.06,0,0.13,0,0.19,0C45.14,32.21,45.09,32.21,45.04,32.21z"/>
<path d="M46.16,32.27c0.21,0.02,0.42,0.04,0.62,0.06C46.57,32.3,46.37,32.28,46.16,32.27z"/>
<path d="M21.16,61.02c0.03-0.12,0.06-0.23,0.09-0.34C21.22,60.79,21.19,60.91,21.16,61.02z"/>
<path d="M21.34,67.26c-0.23-0.73-0.38-1.49-0.46-2.27C20.96,65.77,21.12,66.53,21.34,67.26z"/>
<path d="M20.9,62.41c0.02-0.13,0.04-0.25,0.06-0.38C20.94,62.16,20.92,62.28,20.9,62.41z"/>
<path d="M21.64,59.51c0,0,0.02-0.06,0.03-0.09C21.66,59.45,21.65,59.48,21.64,59.51z"/>
<path d="M42.91,32.38c0.1-0.01,0.2-0.03,0.3-0.05C43.11,32.34,43.01,32.36,42.91,32.38z"/>
<path d="M46.79,32.33c0.1,0.01,0.2,0.03,0.3,0.05C46.99,32.36,46.89,32.35,46.79,32.33z"/>
<path d="M43.21,32.33c0.21-0.03,0.41-0.05,0.62-0.06C43.62,32.29,43.41,32.31,43.21,32.33z"/>
<path d="M68.75,60.68c0.03,0.11,0.06,0.23,0.09,0.34C68.81,60.9,68.78,60.79,68.75,60.68z"/>
<path d="M45.19,32.22c0.33,0,0.65,0.02,0.98,0.05C45.85,32.24,45.52,32.23,45.19,32.22z"/>
<path d="M68.32,59.42c0,0,0.02,0.06,0.03,0.09C68.34,59.48,68.33,59.45,68.32,59.42z"/>
<path d="M44.96,32.21c-0.05,0-0.1,0-0.15,0c0.06,0,0.13,0,0.19,0C45,32.21,44.96,32.21,44.96,32.21z"/>
<path d="M69.04,62.04c0.02,0.13,0.04,0.25,0.06,0.38C69.08,62.29,69.06,62.17,69.04,62.04z"/>
<path d="M69.09,62.41c-0.02-0.13-0.04-0.25-0.06-0.38c-0.05-0.34-0.12-0.68-0.2-1.02c-0.03-0.11-0.06-0.23-0.09-0.34
	c-0.11-0.4-0.24-0.79-0.39-1.16c-0.01-0.03-0.02-0.06-0.03-0.09c-0.18-0.44-0.39-0.87-0.62-1.28h0.02l-9.8-17.52
	c-1.92-4.35-5.97-7.53-10.84-8.24c-0.1-0.01-0.2-0.03-0.3-0.05c-0.21-0.03-0.41-0.05-0.62-0.06c-0.32-0.03-0.65-0.05-0.98-0.05
	c-0.06,0-0.13,0-0.19,0c-0.06,0-0.13,0-0.19,0c-0.33,0-0.65,0.02-0.98,0.05c-0.21,0.02-0.42,0.04-0.62,0.06
	c-0.1,0.01-0.2,0.03-0.3,0.05c-4.86,0.71-8.92,3.89-10.84,8.24l-9.8,17.51h0.02c-0.23,0.42-0.44,0.85-0.62,1.29
	c-0.01,0.03-0.02,0.06-0.03,0.09c-0.15,0.38-0.28,0.77-0.39,1.16c-0.03,0.11-0.06,0.23-0.09,0.34c-0.08,0.33-0.15,0.67-0.2,1.01
	c-0.02,0.13-0.04,0.25-0.06,0.38c-0.05,0.46-0.09,0.92-0.09,1.39c0,0.4,0.02,0.8,0.06,1.19c0.08,0.78,0.24,1.54,0.46,2.27
	c0.11,0.36,0.24,0.72,0.39,1.07c0.59,1.39,1.44,2.64,2.49,3.7c0.79,0.79,1.69,1.47,2.68,2c0.66,0.36,1.36,0.65,2.09,0.88
	c0.73,0.23,1.49,0.38,2.27,0.46c0.39,0.04,0.79,0.06,1.19,0.06c0.83,0,1.64-0.09,2.42-0.26c1.3-0.28,2.52-0.78,3.62-1.45
	c0.15-0.1,0.31-0.19,0.47-0.29c1.76-1.08,3.83-1.71,6.04-1.71s4.25,0.62,6.01,1.69c0.18,0.11,0.36,0.21,0.53,0.33
	c1.09,0.66,2.3,1.16,3.59,1.43c0.78,0.17,1.59,0.26,2.42,0.26s1.59-0.08,2.34-0.24c0.76-0.15,1.49-0.38,2.18-0.68
	c0.7-0.29,1.36-0.65,1.98-1.07c3.09-2.09,5.13-5.63,5.13-9.64c0-0.47-0.04-0.93-0.09-1.39L69.09,62.41z"/>
</svg>
