<?xml version="1.0" encoding="utf-8"?>
<!-- Generator: Adobe Illustrator 26.1.0, SVG Export Plug-In . SVG Version: 6.00 Build 0)  -->
<svg version="1.1" id="Layer_1" xmlns="http://www.w3.org/2000/svg" xmlns:xlink="http://www.w3.org/1999/xlink" x="0px" y="0px"
	 viewBox="0 0 841.89 595.28" style="enable-background:new 0 0 841.89 595.28;" xml:space="preserve">
<style type="text/css">
	.st0{fill:#EB50B4;}
</style>
<path class="st0" d="M446.2,305.71c-2.63-1.08-5.55-1.43-8.24-2.4c-17.36-6.23-29.79-17.84-37.39-34.63
	c-0.75-1.66-0.45-2.34,1.26-2.98c4.09-1.54,7.72-3.82,10.82-6.89c7.9-7.84,10.99-17.33,9.47-28.31c-0.46-3.32-1.51-6.49-3.13-9.54
	c-0.34,0.3-0.61,0.51-0.86,0.74c-6.89,6.59-13.76,13.19-20.69,19.73c-0.48,0.46-1.4,0.76-2.04,0.66c-0.94-0.13-0.92-1.09-0.93-1.9
	c-0.04-2,0-4.01-0.21-5.99c-1.36-12.72-10.94-23.85-23.3-27.14c-0.27-0.07-0.56-0.07-0.87-0.1c0,0.53-0.02,0.96,0,1.39
	c0.2,4.13,0.42,8.25,0.61,12.38c0.39,8.39,0.8,16.77,1.15,25.16c0.28,6.61,0.46,13.21,0.71,19.82c0.04,0.96-0.31,1.63-0.99,2.28
	c-3.02,2.89-6,5.81-8.99,8.73c-9.59,9.36-19.19,18.72-28.77,28.09c-1.18,1.15-2.27,2.38-3.45,3.63c0.09,0.1,0.25,0.29,0.44,0.46
	c11.04,9.7,23.86,14.89,38.58,15.28c1.3,0.03,2.05,0.42,2.67,1.58c8.28,15.76,4.86,35.47-8.28,47.47c-0.91,0.85-1.87,1.65-3.07,2.7
	c5.63,0,10.89,0.01,16.15-0.02c0.4,0,0.85-0.19,1.2-0.41c9.97-6.22,15.89-15.1,17.51-26.77c0.2-1.46,0.07-2.97,0.31-4.41
	c0.1-0.6,0.67-1.29,1.22-1.59c0.33-0.18,1.16,0.2,1.52,0.57c0.3,0.3,0.32,0.97,0.31,1.46c-0.31,12.14-5.18,22.09-14.4,29.95
	c-0.4,0.34-0.8,0.67-1.45,1.22c5.63,0,10.85,0.01,16.07-0.02c0.48,0,1.04-0.21,1.43-0.51c2.53-1.97,5.06-3.95,7.52-6.01
	c1.15-0.96,1.64-1.09,2.84-0.21c8.92,6.6,18.85,9.01,29.7,6.69c13.47-2.88,22.28-11.51,27.5-23.84c2.31-5.45,1.96-11.5,1.03-17.25
	C466.91,320.93,459.25,311.09,446.2,305.71z"/>
<g>
	<path d="M397.65,236.79c3.4-3.24,6.59-6.26,9.76-9.29c3.43-3.28,6.84-6.57,10.27-9.86c1.53-1.47,2.45-1.34,3.44,0.48
		c8.07,14.87,5.19,32.42-7.4,43.63c-2.56,2.28-5.75,3.85-8.66,5.74c-0.35,0.23-0.76,0.38-1.23,0.6c1.6,3.72,3.6,7.11,5.93,10.31
		c7.26,9.99,16.67,17.17,28.26,21.46c1.34,0.49,2.76,0.75,4.15,1.09c16.09,3.91,28.09,17.29,30.17,33.74
		c0.31,2.49,0.32,5.01,0.47,7.61c5.51,0.51,9.43,3.27,10.66,8.92c1,4.58-0.55,8.49-4.4,11.21c-4.29,3.03-8.72,2.69-13.19-0.15
		c-6.44,9.02-15.06,14.8-26.04,16.7c-10.95,1.88-20.98-0.6-29.85-6.8c-2.85,2.05-5.56,4.07-8.36,5.97
		c-0.67,0.45-1.61,0.69-2.43,0.69c-14.36,0.04-28.73,0.03-43.09,0.03c-0.13,0-0.26,0-0.39,0c-0.87,0.02-1.7-0.07-1.97-1.08
		c-0.27-1.03,0.31-1.59,1.15-2.06c4.98-2.8,9.15-6.53,12.25-11.32c7.46-11.52,8.28-23.6,2.77-36.16c-0.36-0.83-0.83-1.11-1.75-1.15
		c-15.79-0.81-29.44-6.68-40.98-17.48c-1.2-1.12-1.13-1.79,0.26-3.14c13.56-13.21,27.11-26.43,40.7-39.61
		c0.96-0.93,1.36-1.85,1.3-3.17c-0.37-8.13-0.65-16.26-1.01-24.38c-0.34-7.87-0.73-15.73-1.11-23.59c-0.15-3.04-0.3-6.08-0.45-9.13
		c-0.03-0.52-0.07-1.04-0.06-1.56c0.03-1.44,0.79-2.08,2.17-1.77c12.48,2.72,21.21,9.97,26.16,21.73
		C396.72,228.64,397.39,232.54,397.65,236.79z M360.7,375.72c5.63,0,10.89,0.01,16.15-0.02c0.4,0,0.85-0.19,1.2-0.41
		c9.97-6.22,15.89-15.1,17.51-26.77c0.2-1.46,0.07-2.97,0.31-4.41c0.1-0.6,0.67-1.29,1.22-1.59c0.33-0.18,1.16,0.2,1.52,0.57
		c0.3,0.3,0.32,0.97,0.31,1.46c-0.31,12.14-5.18,22.09-14.4,29.95c-0.4,0.34-0.8,0.67-1.45,1.22c5.63,0,10.85,0.01,16.07-0.02
		c0.48,0,1.04-0.21,1.43-0.51c2.53-1.97,5.06-3.95,7.52-6.01c1.15-0.96,1.64-1.09,2.84-0.21c8.92,6.6,18.85,9.01,29.7,6.69
		c13.47-2.88,22.28-11.51,27.5-23.84c2.31-5.45,1.96-11.5,1.03-17.25c-2.25-13.85-9.91-23.69-22.96-29.07
		c-2.63-1.08-5.55-1.43-8.24-2.4c-17.36-6.23-29.79-17.84-37.39-34.63c-0.75-1.66-0.45-2.34,1.26-2.98
		c4.09-1.54,7.72-3.82,10.82-6.89c7.9-7.84,10.99-17.33,9.47-28.31c-0.46-3.32-1.51-6.49-3.13-9.54c-0.34,0.3-0.61,0.51-0.86,0.74
		c-6.89,6.59-13.76,13.19-20.69,19.73c-0.48,0.46-1.4,0.76-2.04,0.66c-0.94-0.13-0.92-1.09-0.93-1.9c-0.04-2,0-4.01-0.21-5.99
		c-1.36-12.72-10.94-23.85-23.3-27.14c-0.27-0.07-0.56-0.07-0.87-0.1c0,0.53-0.02,0.96,0,1.39c0.2,4.13,0.42,8.25,0.61,12.38
		c0.39,8.39,0.8,16.77,1.15,25.16c0.28,6.61,0.46,13.21,0.71,19.82c0.04,0.96-0.31,1.63-0.99,2.28c-3.02,2.89-6,5.81-8.99,8.73
		c-9.59,9.36-19.19,18.72-28.77,28.09c-1.18,1.15-2.27,2.38-3.45,3.63c0.09,0.1,0.25,0.29,0.44,0.46
		c11.04,9.7,23.86,14.89,38.58,15.28c1.3,0.03,2.05,0.42,2.67,1.58c8.28,15.76,4.86,35.47-8.28,47.47
		C362.86,373.87,361.9,374.67,360.7,375.72z"/>
	<path d="M365.88,285.08c3.83,0.01,6.76,2.96,6.74,6.78c-0.02,3.77-3.05,6.79-6.8,6.77c-3.71-0.01-6.8-3.13-6.78-6.84
		C359.07,288.03,362.08,285.07,365.88,285.08z"/>
</g>
</svg>
