<svg width="152" height="183" viewBox="0 0 152 183" fill="none" xmlns="http://www.w3.org/2000/svg">
<path d="M3.1582 107.236L38.7503 72.5659L46.2092 65.2985V59.1121L43.446 1.47314C46.8838 2.09767 50.251 3.24067 53.4296 4.91098C55.7863 6.14825 58.0399 7.67421 60.1373 9.49476C68.863 17.0716 72.9372 28.0125 72.1094 38.7149L73.7885 37.1094L96.3922 15.4985C98.9757 19.8525 100.637 24.8133 101.126 30.1159C101.223 31.1852 101.279 32.2664 101.279 33.3622C101.279 44.1029 96.4511 53.7123 88.8478 60.1432C85.681 62.8239 82.034 64.9509 78.0512 66.3796C82.9885 78.1071 91.3076 88.0612 101.786 95.0224C106.423 98.1008 111.481 100.596 116.86 102.399C119.485 102.826 122.021 103.512 124.446 104.431C134.942 108.405 143.308 116.719 147.347 127.185C149.17 131.734 150.178 136.698 150.178 141.897C150.178 143.352 150.098 144.787 149.945 146.198C149.945 146.198 150.959 154.408 144.38 162.515C144.039 162.937 143.771 163.364 143.562 163.791C137.799 172.437 128.723 178.682 118.147 180.715C115.72 181.18 113.21 181.428 110.647 181.428C108.084 181.428 105.583 181.18 103.159 180.715H103.156C96.8547 179.504 91.0926 176.794 86.2378 172.979C83.3685 176.057 80.019 178.679 76.2984 180.715H29.7712C33.6451 178.591 37.1241 175.842 40.07 172.596C46.4419 165.576 50.3246 156.258 50.3246 146.03C50.3246 139.116 48.5482 132.621 45.4315 126.967L45.1546 127.009C36.5526 126.87 28.3602 125.038 20.8983 121.833C16.8506 120.095 13.018 117.959 9.45354 115.464C6.61961 113.481 3.95066 111.278 1.47612 108.877L3.16116 107.236H3.1582Z" stroke="#323232" stroke-width="3" stroke-linecap="round" stroke-linejoin="round"/>
</svg>
