<svg width="24" height="25" viewBox="0 0 24 25" fill="none" xmlns="http://www.w3.org/2000/svg">
<path d="M15.4577 9.30752C15.8678 8.89747 16.5326 8.89747 16.9427 9.30752C17.3527 9.71757 17.3527 10.3824 16.9427 10.7924L11.576 16.1591C11.1659 16.5692 10.5011 16.5692 10.0911 16.1591L7.05773 13.1258C6.64768 12.7157 6.64768 12.0509 7.05773 11.6409C7.46778 11.2308 8.1326 11.2308 8.54265 11.6409L10.8335 13.9317L15.4577 9.30752Z" fill="#323232"/>
<path fill-rule="evenodd" clip-rule="evenodd" d="M12.0002 0.949951C18.3785 0.949951 23.5502 6.12164 23.5502 12.5C23.5502 18.8783 18.3785 24.0499 12.0002 24.0499C5.62188 24.0499 0.450195 18.8783 0.450195 12.5C0.450195 6.12164 5.62189 0.949951 12.0002 0.949951ZM12.0002 3.04995C6.78052 3.04995 2.5502 7.28028 2.5502 12.5C2.5502 17.7196 6.78052 21.95 12.0002 21.95C17.2199 21.95 21.4502 17.7196 21.4502 12.5C21.4502 7.28028 17.2199 3.04995 12.0002 3.04995Z" fill="#323232"/>
</svg>
