<svg width="84" height="84" viewBox="0 0 84 84" fill="none" xmlns="http://www.w3.org/2000/svg">
<path d="M0 42C0 18.804 18.804 0 42 0C65.196 0 84 18.804 84 42C84 65.196 65.196 84 42 84C18.804 84 0 65.196 0 42Z" fill="black"/>
<path d="M36 51.1716L25.4142 40.5858C24.6332 39.8047 23.3668 39.8047 22.5858 40.5858C21.8047 41.3668 21.8047 42.6332 22.5858 43.4142L34.5858 55.4142C35.3668 56.1953 36.6332 56.1953 37.4142 55.4142L61.4142 31.4142C62.1953 30.6332 62.1953 29.3668 61.4142 28.5858C60.6332 27.8047 59.3668 27.8047 58.5858 28.5858L36 51.1716Z" fill="white"/>
</svg>
