<?xml version="1.0" encoding="utf-8"?>
<!-- Generator: Adobe Illustrator 26.1.0, SVG Export Plug-In . SVG Version: 6.00 Build 0)  -->
<svg version="1.1" id="a" xmlns="http://www.w3.org/2000/svg" xmlns:xlink="http://www.w3.org/1999/xlink" x="0px" y="0px"
	 viewBox="0 0 40 40" style="enable-background:new 0 0 40 40;" xml:space="preserve">
<style type="text/css">
	.st0{stroke:#000000;stroke-miterlimit:10;}
</style>
<g>
	<path class="st0" d="M10.69,39.38C4.81,39.37,0.59,33.95,2,28.27c0.91-3.69,2.81-6.89,4.85-10.02c0.92-1.41,1.93-2.77,2.92-4.14
		c0.59-0.82,1.22-0.81,1.84,0.01c2.51,3.37,4.9,6.82,6.6,10.69c1.02,2.32,1.77,4.7,1.29,7.3C18.69,36.4,15.06,39.39,10.69,39.38z
		 M10.71,14.73c-2.26,2.92-4.26,5.91-5.89,9.13c-0.99,1.97-1.83,4.01-1.98,6.27c-0.21,3.17,1.81,6.37,4.89,7.61
		c3.04,1.23,6.72,0.38,8.77-1.98c2.27-2.6,2.51-5.52,1.43-8.64C16.34,22.56,13.59,18.66,10.71,14.73z"/>
	<path class="st0" d="M38.27,23.8c-0.1,3.92-3.17,7.04-7.15,7.17c-3.6,0.12-6.78-2.82-7.11-6.54c-0.17-1.96,0.37-3.78,1.29-5.42
		c1.52-2.7,3.24-5.29,4.92-7.9c0.46-0.71,1.15-0.73,1.62-0.1c2.32,3.14,4.6,6.31,5.81,10.09C37.94,21.98,38.07,22.9,38.27,23.8z
		 M31.08,11.8c-1.93,2.59-3.74,5.13-4.93,8.02c-0.53,1.29-1.01,2.71-1.05,4.08c-0.06,2.49,1.22,4.39,3.51,5.42
		c2.13,0.96,4.23,0.74,6.08-0.71c1.98-1.55,2.74-3.64,2.18-6.1C35.96,18.45,33.47,15.21,31.08,11.8z"/>
	<path class="st0" d="M20.08,14.28c-3.03-0.03-5.25-2.67-4.73-5.66c0.42-2.44,1.8-4.41,3.13-6.41c0.27-0.41,0.55-0.82,0.86-1.19
		c0.43-0.51,1.09-0.55,1.48-0.02c1.67,2.23,3.3,4.49,3.97,7.26C25.56,11.38,23.23,14.32,20.08,14.28z M20.1,1.82
		c-1.55,2.21-3.06,4.26-3.66,6.79c-0.35,1.51,0.27,3.06,1.54,3.94c1.2,0.83,2.92,0.86,4.17,0.01c1.31-0.9,1.91-2.17,1.61-3.75
		C23.27,6.17,21.66,4.09,20.1,1.82z"/>
</g>
</svg>
