<?xml version="1.0" encoding="utf-8"?>
<!-- Generator: Adobe Illustrator 26.1.0, SVG Export Plug-In . SVG Version: 6.00 Build 0)  -->
<svg version="1.1" id="a" xmlns="http://www.w3.org/2000/svg" xmlns:xlink="http://www.w3.org/1999/xlink" x="0px" y="0px"
	 viewBox="0 0 40 40" style="enable-background:new 0 0 40 40;" xml:space="preserve">
<style type="text/css">
	.st0{stroke:#000000;stroke-miterlimit:10;}
</style>
<g>
	<g>
		<path class="st0" d="M9.81,40C3.37,39.99-1.24,34.4,0.3,28.53c1-3.81,3.08-7.11,5.31-10.34c1.01-1.46,2.11-2.86,3.2-4.27
			c0.65-0.85,1.34-0.84,2.01,0.01c2.75,3.48,5.36,7.04,7.22,11.03c1.12,2.39,1.94,4.85,1.41,7.53C18.57,36.92,14.59,40.01,9.81,40z
			 M9.83,14.56c-2.47,3.01-4.66,6.1-6.45,9.42c-1.08,2.03-2,4.14-2.17,6.47c-0.23,3.27,1.98,6.57,5.35,7.85
			c3.33,1.27,7.36,0.39,9.6-2.04c2.48-2.68,2.75-5.7,1.57-8.92C16,22.64,12.99,18.62,9.83,14.56z"/>
		<path class="st0" d="M40,23.92c-0.11,4.05-3.47,7.27-7.83,7.4c-3.94,0.12-7.42-2.91-7.78-6.75c-0.19-2.02,0.41-3.9,1.41-5.59
			c1.66-2.79,3.55-5.46,5.39-8.15c0.5-0.73,1.26-0.75,1.77-0.1c2.54,3.24,5.04,6.51,6.36,10.41C39.64,22.04,39.78,22.99,40,23.92z
			 M32.13,11.54c-2.11,2.67-4.09,5.29-5.4,8.28c-0.58,1.33-1.11,2.8-1.15,4.21c-0.07,2.57,1.34,4.53,3.84,5.59
			c2.33,0.99,4.63,0.76,6.66-0.73c2.17-1.6,3-3.76,2.39-6.3C37.47,18.4,34.75,15.06,32.13,11.54z"/>
		<path class="st0" d="M20.09,14.1c-3.32-0.03-5.75-2.76-5.18-5.84c0.46-2.52,1.97-4.55,3.43-6.62c0.3-0.42,0.6-0.85,0.94-1.23
			c0.47-0.53,1.19-0.57,1.62-0.02c1.83,2.3,3.61,4.63,4.35,7.49C26.09,11.1,23.54,14.14,20.09,14.1z M20.11,1.24
			c-1.7,2.28-3.35,4.4-4.01,7.01c-0.38,1.56,0.3,3.16,1.69,4.07c1.31,0.86,3.2,0.89,4.56,0.01c1.43-0.93,2.09-2.24,1.76-3.87
			C23.58,5.73,21.82,3.58,20.11,1.24z"/>
	</g>
</g>
</svg>
